<?xml version="1.0" encoding="utf-8"?>
<!-- Generator: $$$/GeneralStr/196=Adobe Illustrator 27.6.0, SVG Export Plug-In . SVG Version: 6.00 Build 0)  -->
<svg version="1.1" id="Capa_1" xmlns="http://www.w3.org/2000/svg" xmlns:xlink="http://www.w3.org/1999/xlink" x="0px" y="0px"
	 viewBox="0 0 419 566.93" style="enable-background:new 0 0 419 566.93;" xml:space="preserve">
<style type="text/css">
	.st0{fill:#E41F18;}
	.st1{fill:none;stroke:#E4003C;stroke-miterlimit:10;}
	.st2{fill:#7F988A;}
	.st3{fill:#113C2B;}
</style>
<g>
	<path class="st0" d="M87.52,309.72c-0.98,5.9-3.64,13.58-7.98,23.06l-11.09,24.33c-3.76,8.24-5.65,14.86-5.65,19.85
		c0,2.34,1.27,5.14,3.8,8.37l3.5,4.38l-2.04,0.3c-0.27,0.06-0.64,0.1-1.17,0.1c-2.77,0-5.16-1.3-7.1-3.89
		c-1.74-2.35-2.63-4.97-2.63-7.9c0-0.9,0.43-3.17,1.26-6.8c0.4-1.69,0.59-3.02,0.59-4c0-0.24-0.19-0.83-0.59-1.73
		c-0.38-0.93-0.58-1.47-0.58-1.67c-1.69-0.91-4.67-1.36-8.95-1.36h-3.61c-5.63,0-10.01,1.95-13.13,5.84
		c-1.49,2.72-3.61,6.36-6.33,10.9c-2.34,3.89-5.65,5.84-9.93,5.84c0.27-2.14,1.49-4.89,3.71-8.28c0.58-0.83,2.43-3.36,5.55-7.59
		l-5.55-1.85v-0.97c0-3.05,1.58-4.8,4.78-5.25c4.08-0.66,7.23-3.42,9.42-8.28c2.34-5.27,4.65-7.89,6.91-7.89
		c1.49,0,2.75,0.36,3.8,1.08c2.74-1.49,6.95-5.55,12.65-12.17c8.31-9.61,13.11-15.08,14.41-16.45c5.38-5.52,9.79-8.28,13.24-8.28
		L87.52,309.72z M40.42,351.96v-0.98l-0.87-0.87l-0.98,0.87v0.98l0.98,0.96L40.42,351.96z M42.67,348.56l-0.21-2.44l-0.97,1.07
		c-1.04,0-1.53,0.39-1.47,1.17c0,0.59,0.21,1.39,0.59,2.44C41.96,349.61,42.67,348.88,42.67,348.56 M79.16,317.2
		c-5.78,3.96-12.73,10.19-20.83,18.69c-8.45,8.63-14.34,15.79-17.71,21.5c1.88,0.4,3.63,0.81,5.26,1.26c4,1.12,7.03,1.66,9.05,1.66
		c2,0,3.72-0.4,5.16-1.17c0.83-0.45,3.53-4.97,8.08-13.52c4.27-8.18,6.89-13.33,7.87-15.47C78.12,325.36,79.16,321.04,79.16,317.2"
		/>
	<path class="st1" d="M87.52,309.72c-0.98,5.9-3.64,13.58-7.98,23.06l-11.09,24.33c-3.76,8.24-5.65,14.86-5.65,19.85
		c0,2.34,1.27,5.14,3.8,8.37l3.5,4.38l-2.04,0.3c-0.27,0.06-0.64,0.1-1.17,0.1c-2.77,0-5.16-1.3-7.1-3.89
		c-1.74-2.35-2.63-4.97-2.63-7.9c0-0.9,0.43-3.17,1.26-6.8c0.4-1.69,0.59-3.02,0.59-4c0-0.24-0.19-0.83-0.59-1.73
		c-0.38-0.93-0.58-1.47-0.58-1.67c-1.69-0.91-4.67-1.36-8.95-1.36h-3.61c-5.63,0-10.01,1.95-13.13,5.84
		c-1.49,2.72-3.61,6.36-6.33,10.9c-2.34,3.89-5.65,5.84-9.93,5.84c0.27-2.14,1.49-4.89,3.71-8.28c0.58-0.83,2.43-3.36,5.55-7.59
		l-5.55-1.85v-0.97c0-3.05,1.58-4.8,4.78-5.25c4.08-0.66,7.23-3.42,9.42-8.28c2.34-5.27,4.65-7.89,6.91-7.89
		c1.49,0,2.75,0.36,3.8,1.08c2.74-1.49,6.95-5.55,12.65-12.17c8.31-9.61,13.11-15.08,14.41-16.45c5.38-5.52,9.79-8.28,13.24-8.28
		L87.52,309.72z M40.42,351.96v-0.98l-0.87-0.87l-0.98,0.87v0.98l0.98,0.96L40.42,351.96z M42.67,348.56l-0.21-2.44l-0.97,1.07
		c-1.04,0-1.53,0.39-1.47,1.17c0,0.59,0.21,1.39,0.59,2.44C41.96,349.61,42.67,348.88,42.67,348.56z M79.16,317.2
		c-5.78,3.96-12.73,10.19-20.83,18.69c-8.45,8.63-14.34,15.79-17.71,21.5c1.88,0.4,3.63,0.81,5.26,1.26c4,1.12,7.03,1.66,9.05,1.66
		c2,0,3.72-0.4,5.16-1.17c0.83-0.45,3.53-4.97,8.08-13.52c4.27-8.18,6.89-13.33,7.87-15.47C78.12,325.36,79.16,321.04,79.16,317.2z"
		/>
	<path class="st0" d="M157.34,379.53c-4.16,3.23-10.35,5.64-18.54,7.26c-6.53,1.33-13.28,2.02-20.27,2.02
		c-15.45,0-23.18-4.74-23.18-14.22c0-10.13,9.57-19.34,28.74-27.61c6.51-2.82,12.75-4.89,18.74-6.24c2.49,1.47,3.72,3.15,3.72,5.03
		c0,2.42-0.82,5.49-2.5,9.17c-1.95,4.31-3.97,6.45-6.06,6.45c-1,0-2-0.31-2.98-0.96c-0.96-0.63-1.45-1.42-1.45-2.36
		c0-0.86,1.8-3.73,5.44-8.57c-1.14-0.19-2.25-0.37-3.33-0.51c-5.98,0-13.01,2.52-21.07,7.57c-8.94,5.58-13.4,11.23-13.4,16.94
		c0,4.23,2.11,7.36,6.34,9.37c3.23,1.55,7.2,2.31,11.89,2.31c10.95,0,20.26-0.94,27.93-2.82c0.2-0.06,1.23-0.51,3.11-1.31
		c1.21-0.55,2.23-0.81,3.03-0.81c0.27,0,0.51,0.02,0.71,0.1l1.01-0.9l1.92-0.12L157.34,379.53z"/>
	<path class="st1" d="M157.34,379.53c-4.16,3.23-10.35,5.64-18.54,7.26c-6.53,1.33-13.28,2.02-20.27,2.02
		c-15.45,0-23.18-4.74-23.18-14.22c0-10.13,9.57-19.34,28.74-27.61c6.51-2.82,12.75-4.89,18.74-6.24c2.49,1.47,3.72,3.15,3.72,5.03
		c0,2.42-0.82,5.49-2.5,9.17c-1.95,4.31-3.97,6.45-6.06,6.45c-1,0-2-0.31-2.98-0.96c-0.96-0.63-1.45-1.42-1.45-2.36
		c0-0.86,1.8-3.73,5.44-8.57c-1.14-0.19-2.25-0.37-3.33-0.51c-5.98,0-13.01,2.52-21.07,7.57c-8.94,5.58-13.4,11.23-13.4,16.94
		c0,4.23,2.11,7.36,6.34,9.37c3.23,1.55,7.2,2.31,11.89,2.31c10.95,0,20.26-0.94,27.93-2.82c0.2-0.06,1.23-0.51,3.11-1.31
		c1.21-0.55,2.23-0.81,3.03-0.81c0.27,0,0.51,0.02,0.71,0.1l1.01-0.9l1.92-0.12L157.34,379.53z"/>
	<path class="st0" d="M194.37,357.06c0,1.07-1.88,6.41-5.64,16.02c-0.47,1.22-1.17,2.99-2.11,5.34c-0.82,1.82-1.86,2.95-3.14,3.42
		c-0.74,0.27-2.25,0.41-4.54,0.41c0-0.47-0.07-1.14-0.25-2.02c-0.18-0.87-0.26-1.54-0.26-2.01c0-1.48,0.57-3.13,1.72-4.95
		c1.54-2.48,2.4-3.99,2.62-4.54c0.53-1.66,1.57-4.64,3.11-8.86c1.15-2.96,2.95-5.44,5.46-7.44
		C193.37,354.43,194.37,355.98,194.37,357.06 M203.83,329.33c0,2.41-1.6,3.62-4.83,3.62c-2.95,0-4.44-1.21-4.44-3.62
		c0-1.21,0.4-2.9,1.17-5.04c0.76-2.15,1.19-3.75,1.25-4.83c0.66,0.39,1.96,2.31,3.83,5.74c0.14,0.21,0.74,0.82,1.82,1.82
		C203.44,327.75,203.83,328.51,203.83,329.33"/>
	<path class="st1" d="M194.37,357.06c0,1.07-1.88,6.41-5.64,16.02c-0.47,1.22-1.17,2.99-2.11,5.34c-0.82,1.82-1.86,2.95-3.14,3.42
		c-0.74,0.27-2.25,0.41-4.54,0.41c0-0.47-0.07-1.14-0.25-2.02c-0.18-0.87-0.26-1.54-0.26-2.01c0-1.48,0.57-3.13,1.72-4.95
		c1.54-2.48,2.4-3.99,2.62-4.54c0.53-1.66,1.57-4.64,3.11-8.86c1.15-2.96,2.95-5.44,5.46-7.44
		C193.37,354.43,194.37,355.98,194.37,357.06z M203.83,329.33c0,2.41-1.6,3.62-4.83,3.62c-2.95,0-4.44-1.21-4.44-3.62
		c0-1.21,0.4-2.9,1.17-5.04c0.76-2.15,1.19-3.75,1.25-4.83c0.66,0.39,1.96,2.31,3.83,5.74c0.14,0.21,0.74,0.82,1.82,1.82
		C203.44,327.75,203.83,328.51,203.83,329.33z"/>
	<path class="st0" d="M264.99,325.5c0,1.68-0.57,3.56-1.7,5.63c-0.48,0.89-2.53,3.74-6.17,8.57c1.68,1.15,3.41,2.25,5.15,3.33
		c1.88,1.55,2.73,3.31,2.53,5.24l-0.1,1.12c-0.06,0-1.62-0.47-4.63-1.41c-1.96-0.61-3.46-0.9-4.54-0.9
		c-3.69,0-9.02,3.87-15.98,11.64c-6.95,7.74-10.43,13.56-10.43,17.39c0,3.29,2.95,5.67,8.86,7.14c3.77,0.96,8,1.43,12.72,1.43
		c1.82,0,3.65-0.14,5.54-0.41c-0.06,0.33,0.23,0.94,0.89,1.82c-4.22,1.6-8.43,2.41-12.59,2.41c-15.1,0-22.68-3.7-22.68-11.09
		c0-4.36,3.8-10.78,11.38-19.25l8.67-9.66l-3.52-0.22c-1.48-0.06-3.46,0.36-5.95,1.21c-4.91,1.76-7.78,2.62-8.67,2.62
		c-1.15,0-2.21-0.35-3.19-1.05c-0.96-0.71-1.45-1.59-1.45-2.68c0-2.61,2.99-3.91,8.96-3.91c0.6,0,1.48,0.02,2.62,0.1
		c1.15,0.06,2.03,0.1,2.62,0.1c5.13,0,9.33-0.88,12.65-2.62c3.33-1.75,6.26-4.78,8.83-9.08c0.86-1.47,2.91-5.63,6.14-12.49
		c0.88,0,1.76,0.6,2.68,1.82C264.53,323.49,264.99,324.56,264.99,325.5"/>
	<path class="st1" d="M264.99,325.5c0,1.68-0.57,3.56-1.7,5.63c-0.48,0.89-2.53,3.74-6.17,8.57c1.68,1.15,3.41,2.25,5.15,3.33
		c1.88,1.55,2.73,3.31,2.53,5.24l-0.1,1.12c-0.06,0-1.62-0.47-4.63-1.41c-1.96-0.61-3.46-0.9-4.54-0.9
		c-3.69,0-9.02,3.87-15.98,11.64c-6.95,7.74-10.43,13.56-10.43,17.39c0,3.29,2.95,5.67,8.86,7.14c3.77,0.96,8,1.43,12.72,1.43
		c1.82,0,3.65-0.14,5.54-0.41c-0.06,0.33,0.23,0.94,0.89,1.82c-4.22,1.6-8.43,2.41-12.59,2.41c-15.1,0-22.68-3.7-22.68-11.09
		c0-4.36,3.8-10.78,11.38-19.25l8.67-9.66l-3.52-0.22c-1.48-0.06-3.46,0.36-5.95,1.21c-4.91,1.76-7.78,2.62-8.67,2.62
		c-1.15,0-2.21-0.35-3.19-1.05c-0.96-0.71-1.45-1.59-1.45-2.68c0-2.61,2.99-3.91,8.96-3.91c0.6,0,1.48,0.02,2.62,0.1
		c1.15,0.06,2.03,0.1,2.62,0.1c5.13,0,9.33-0.88,12.65-2.62c3.33-1.75,6.26-4.78,8.83-9.08c0.86-1.47,2.91-5.63,6.14-12.49
		c0.88,0,1.76,0.6,2.68,1.82C264.53,323.49,264.99,324.56,264.99,325.5z"/>
	<path class="st0" d="M351.67,345.46c0,2.42-1.68,5.65-5.03,9.68c-1.87,2.2-5.22,6.23-9.97,12.09c-3.58,4.43-5.34,8.51-5.34,12.2
		c0,1.94,1.23,2.88,3.72,2.82c0.55,0,1.05-0.04,1.52-0.1h0.99c1.02,0,2.1,0.16,3.23,0.5l1.41,1.62c-0.27,0.06-1.92,0.51-4.93,1.31
		c-2.03,0.47-3.68,0.7-4.95,0.7c-2.76,0-4.7-0.66-5.85-2.01c-0.94-1.21-1.41-3.22-1.41-6.04v-2.33c0-0.75,0.04-1.51,0.1-2.31
		c-4.63,2.95-7.88,4.97-9.76,6.04c-8.47,4.64-15.77,6.94-21.89,6.94c-6.79,0-10.18-1.64-10.18-4.93c0-2.42,3.1-7.43,9.27-15.02
		c4.23-5.16,8.39-9.84,12.51-14c5.37-5.44,8.84-8.16,10.39-8.16c1.27,0,1.89,0.66,1.89,2.01c0,1.74-2.44,5.44-7.35,11.08
		c-2.15,2.36-5.36,5.94-9.67,10.79c-4.38,5.03-7.19,9.04-8.47,12l0.99,0.99c0.47,0,1.15,0.04,2.03,0.12c0.86,0.06,1.53,0.1,2,0.1
		c2.09,0,4.3-0.47,6.67-1.41c1.41-0.61,3.52-1.52,6.33-2.74c7.12-2.88,12.58-5.83,16.34-8.86c1.95-1.54,4.59-4.63,7.96-9.27
		c1.47-2.07,4.17-5.81,8.06-11.19c2.69-3.62,4.73-5.44,6.15-5.44c0.8,0,1.66,0.33,2.62,1L351.67,345.46z"/>
	<path class="st1" d="M351.67,345.46c0,2.42-1.68,5.65-5.03,9.68c-1.87,2.2-5.22,6.23-9.97,12.09c-3.58,4.43-5.34,8.51-5.34,12.2
		c0,1.94,1.23,2.88,3.72,2.82c0.55,0,1.05-0.04,1.52-0.1h0.99c1.02,0,2.1,0.16,3.23,0.5l1.41,1.62c-0.27,0.06-1.92,0.51-4.93,1.31
		c-2.03,0.47-3.68,0.7-4.95,0.7c-2.76,0-4.7-0.66-5.85-2.01c-0.94-1.21-1.41-3.22-1.41-6.04v-2.33c0-0.75,0.04-1.51,0.1-2.31
		c-4.63,2.95-7.88,4.97-9.76,6.04c-8.47,4.64-15.77,6.94-21.89,6.94c-6.79,0-10.18-1.64-10.18-4.93c0-2.42,3.1-7.43,9.27-15.02
		c4.23-5.16,8.39-9.84,12.51-14c5.37-5.44,8.84-8.16,10.39-8.16c1.27,0,1.89,0.66,1.89,2.01c0,1.74-2.44,5.44-7.35,11.08
		c-2.15,2.36-5.36,5.94-9.67,10.79c-4.38,5.03-7.19,9.04-8.47,12l0.99,0.99c0.47,0,1.15,0.04,2.03,0.12c0.86,0.06,1.53,0.1,2,0.1
		c2.09,0,4.3-0.47,6.67-1.41c1.41-0.61,3.52-1.52,6.33-2.74c7.12-2.88,12.58-5.83,16.34-8.86c1.95-1.54,4.59-4.63,7.96-9.27
		c1.47-2.07,4.17-5.81,8.06-11.19c2.69-3.62,4.73-5.44,6.15-5.44c0.8,0,1.66,0.33,2.62,1L351.67,345.46z"/>
	<path class="st0" d="M390.25,357.06c0,1.07-1.88,6.41-5.66,16.02c-0.47,1.22-1.17,2.99-2.11,5.34c-0.8,1.82-1.83,2.95-3.12,3.42
		c-0.75,0.27-2.25,0.41-4.54,0.41c0-0.47-0.08-1.14-0.24-2.02c-0.17-0.87-0.26-1.54-0.26-2.01c0-1.48,0.57-3.13,1.7-4.95
		c1.55-2.48,2.42-3.99,2.62-4.54c0.55-1.66,1.58-4.64,3.13-8.86c1.13-2.96,2.95-5.44,5.43-7.44
		C389.23,354.43,390.25,355.98,390.25,357.06 M399.71,329.33c0,2.41-1.6,3.62-4.83,3.62c-2.95,0-4.43-1.21-4.43-3.62
		c0-1.21,0.39-2.9,1.15-5.04c0.78-2.15,1.19-3.75,1.27-4.83c0.67,0.39,1.94,2.31,3.83,5.74c0.14,0.21,0.73,0.82,1.8,1.82
		C399.33,327.75,399.71,328.51,399.71,329.33"/>
	<path class="st1" d="M390.25,357.06c0,1.07-1.88,6.41-5.66,16.02c-0.47,1.22-1.17,2.99-2.11,5.34c-0.8,1.82-1.83,2.95-3.12,3.42
		c-0.75,0.27-2.25,0.41-4.54,0.41c0-0.47-0.08-1.14-0.24-2.02c-0.17-0.87-0.26-1.54-0.26-2.01c0-1.48,0.57-3.13,1.7-4.95
		c1.55-2.48,2.42-3.99,2.62-4.54c0.55-1.66,1.58-4.64,3.13-8.86c1.13-2.96,2.95-5.44,5.43-7.44
		C389.23,354.43,390.25,355.98,390.25,357.06z M399.71,329.33c0,2.41-1.6,3.62-4.83,3.62c-2.95,0-4.43-1.21-4.43-3.62
		c0-1.21,0.39-2.9,1.15-5.04c0.78-2.15,1.19-3.75,1.27-4.83c0.67,0.39,1.94,2.31,3.83,5.74c0.14,0.21,0.73,0.82,1.8,1.82
		C399.33,327.75,399.71,328.51,399.71,329.33z"/>
	<path class="st2" d="M201.18,211.24v-138l5.44-6.5v141.52C205.24,208.95,203.38,209.94,201.18,211.24"/>
	<path class="st2" d="M190.3,218.45V86.86l5.42-6.56v134.35C194.01,215.78,192.2,217.05,190.3,218.45"/>
	<path class="st2" d="M179.41,227.59V100.04l5.42-6.56v129.3C183.04,224.26,181.23,225.86,179.41,227.59"/>
	<path class="st2" d="M168.51,239.44V113.21l5.42-6.56v126.47C172.1,235.1,170.28,237.2,168.51,239.44"/>
	<path class="st2" d="M157.63,256.2V126.36l5.39-6.54v127.16C161.11,249.87,159.31,252.96,157.63,256.2"/>
	<path class="st2" d="M146.72,294.09V139.53l5.4-6.52v135.88C149.44,276.49,147.51,284.87,146.72,294.09"/>
	<path class="st2" d="M135.82,429.07v-26.55h2.34C136.8,421.03,135.82,429.07,135.82,429.07"/>
	<rect x="135.82" class="st2" width="5.42" height="294.09"/>
	<polygon class="st2" points="130.34,429.04 124.91,429.02 124.91,402.52 130.34,402.52 	"/>
	<rect x="124.91" y="10.51" class="st2" width="5.42" height="283.57"/>
	<polygon class="st2" points="119.43,429.02 114.01,429 114.01,402.52 119.43,402.52 	"/>
	<polygon class="st2" points="119.43,294.09 114.01,294.09 114.01,0.06 119.43,0.04 	"/>
	<polygon class="st2" points="108.55,429 103.13,428.98 103.13,402.52 108.55,402.52 	"/>
	<polygon class="st2" points="108.55,294.09 103.13,294.09 103.13,10.58 108.55,10.56 	"/>
	<rect x="92.23" y="402.52" class="st2" width="5.44" height="26.44"/>
	<rect x="92.23" y="0.11" class="st2" width="5.44" height="293.98"/>
	<polygon class="st2" points="86.76,428.96 81.34,428.93 81.34,402.52 86.76,402.52 	"/>
	<rect x="81.34" y="10.62" class="st2" width="5.42" height="283.47"/>
	<polygon class="st2" points="75.86,428.91 70.44,428.89 70.44,402.52 75.86,402.52 	"/>
	<rect x="70.44" y="0.15" class="st2" width="5.42" height="293.94"/>
	<polygon class="st2" points="64.97,428.89 59.53,428.87 59.53,402.52 64.97,402.52 	"/>
	<polygon class="st2" points="64.97,294.09 59.53,294.09 59.53,10.69 64.97,10.67 	"/>
	<rect x="48.65" y="402.52" class="st2" width="5.42" height="26.32"/>
	<polygon class="st2" points="54.07,294.09 48.65,294.09 48.65,0.22 54.07,0.19 	"/>
	<polygon class="st2" points="43.19,428.84 37.75,428.82 37.75,402.52 43.19,402.52 	"/>
	<rect x="37.75" y="10.73" class="st2" width="5.44" height="283.36"/>
	<rect x="26.85" y="402.52" class="st2" width="5.44" height="26.28"/>
	<rect x="26.85" y="0.26" class="st2" width="5.44" height="293.83"/>
	<polygon class="st2" points="21.38,428.8 15.96,428.78 15.96,402.52 21.38,402.52 	"/>
	<polygon class="st2" points="21.38,294.09 15.96,294.09 15.96,10.8 21.38,10.78 	"/>
	<rect x="5.08" y="402.52" class="st2" width="5.42" height="26.22"/>
	<polygon class="st2" points="10.5,294.09 5.08,294.09 5.08,0.32 10.5,0.3 	"/>
	<path class="st2" d="M217.57,211.24c-2.22-1.3-4.06-2.29-5.45-2.98V66.74l5.45,6.5V211.24"/>
	<path class="st2" d="M228.45,218.45c-1.89-1.4-3.71-2.68-5.42-3.8V80.3l5.42,6.56V218.45"/>
	<path class="st2" d="M239.34,227.59c-1.81-1.73-3.62-3.33-5.42-4.82V93.47l5.42,6.56V227.59"/>
	<path class="st2" d="M250.24,239.44c-1.76-2.24-3.58-4.34-5.42-6.33V106.65l5.42,6.56V239.44"/>
	<path class="st2" d="M261.12,256.2c-1.69-3.24-3.48-6.33-5.4-9.22V119.82l5.4,6.54V256.2"/>
	<path class="st2" d="M272.03,294.09c-0.78-9.22-2.73-17.6-5.4-25.2V133.01l5.4,6.52V294.09"/>
	<path class="st2" d="M282.6,428.82c0,0-0.97-8.19-2.33-26.7h2.33V428.82"/>
	<rect x="277.51" class="st2" width="5.42" height="294.09"/>
	<polygon class="st2" points="288.09,428.8 288.09,402.12 293.5,402.12 293.5,428.78 	"/>
	<rect x="288.41" y="10.51" class="st2" width="5.42" height="283.57"/>
	<polygon class="st2" points="298.99,428.78 298.99,402.12 304.41,402.12 304.41,428.76 	"/>
	<polygon class="st2" points="304.74,294.09 299.32,294.09 299.32,0.04 304.74,0.06 	"/>
	<polygon class="st2" points="309.88,428.76 309.88,402.12 315.29,402.12 315.29,428.74 	"/>
	<polygon class="st2" points="315.62,294.09 310.21,294.09 310.21,10.56 315.62,10.58 	"/>
	<rect x="320.75" y="402.12" class="st2" width="5.45" height="26.59"/>
	<rect x="321.09" y="0.11" class="st2" width="5.44" height="293.98"/>
	<polygon class="st2" points="331.66,428.72 331.66,402.12 337.08,402.12 337.08,428.69 	"/>
	<rect x="331.99" y="10.62" class="st2" width="5.42" height="283.47"/>
	<polygon class="st2" points="342.57,428.83 342.57,402.12 347.98,402.12 347.98,428.8 	"/>
	<rect x="342.9" y="0.15" class="st2" width="5.41" height="293.94"/>
	<polygon class="st2" points="353.45,428.82 353.45,402.12 358.89,402.12 358.89,428.8 	"/>
	<polygon class="st2" points="359.22,294.09 353.78,294.09 353.78,10.67 359.22,10.69 	"/>
	<rect x="364.35" y="402.12" class="st2" width="5.42" height="26.68"/>
	<polygon class="st2" points="370.1,294.09 364.68,294.09 364.68,0.19 370.1,0.22 	"/>
	<polygon class="st2" points="375.23,428.83 375.23,402.12 380.67,402.12 380.67,428.81 	"/>
	<rect x="375.56" y="10.73" class="st2" width="5.44" height="283.36"/>
	<rect x="386.13" y="402.12" class="st2" width="5.44" height="26.71"/>
	<rect x="386.46" y="0.26" class="st2" width="5.45" height="293.83"/>
	<polygon class="st2" points="397.03,428.84 397.03,402.12 402.46,402.12 402.46,428.82 	"/>
	<polygon class="st2" points="402.79,294.09 397.37,294.09 397.37,10.78 402.79,10.8 	"/>
	<rect x="407.92" y="402.12" class="st2" width="5.42" height="26.71"/>
	<polygon class="st2" points="413.67,294.09 408.25,294.09 408.25,0.3 413.67,0.32 	"/>
	<path class="st3" d="M26.03,471.6c0,2.17,0.1,4.28,0.36,5.99h-4.08l-0.36-3.15H21.8c-1.39,1.96-4.08,3.72-7.64,3.72
		c-5.06,0-7.64-3.56-7.64-7.18c0-6.04,5.37-9.34,15.03-9.29v-0.52c0-2.02-0.57-5.79-5.68-5.74c-2.38,0-4.8,0.68-6.56,1.86
		l-1.03-3.05c2.07-1.29,5.11-2.17,8.26-2.17c7.64,0,9.5,5.21,9.5,10.17V471.6z M21.64,464.84c-4.96-0.1-10.58,0.78-10.58,5.63
		c0,3,1.96,4.34,4.23,4.34c3.31,0,5.42-2.07,6.14-4.18c0.16-0.52,0.21-1.03,0.21-1.44V464.84z"/>
	<path class="st3" d="M52.99,473c1.39,0.82,3.77,1.75,6.04,1.75c3.25,0,4.8-1.6,4.8-3.72c0-2.17-1.29-3.31-4.6-4.55
		c-4.54-1.65-6.66-4.08-6.66-7.07c0-4.03,3.3-7.33,8.62-7.33c2.53,0,4.75,0.67,6.09,1.55l-1.08,3.31c-0.98-0.62-2.79-1.5-5.11-1.5
		c-2.68,0-4.13,1.55-4.13,3.41c0,2.06,1.45,2.99,4.7,4.29c4.29,1.6,6.56,3.77,6.56,7.48c0,4.44-3.46,7.54-9.29,7.54
		c-2.74,0-5.27-0.72-7.02-1.76L52.99,473z"/>
	<path class="st3" d="M116.91,464.89c0,9.24-6.45,13.27-12.44,13.27c-6.71,0-11.98-4.96-11.98-12.85c0-8.31,5.52-13.22,12.39-13.22
		C112.05,452.08,116.91,457.3,116.91,464.89 M97.13,465.15c0,5.47,3.1,9.6,7.54,9.6c4.34,0,7.59-4.08,7.59-9.71
		c0-4.23-2.12-9.55-7.49-9.55C99.45,455.49,97.13,460.45,97.13,465.15"/>
	<path class="st3" d="M160.69,476.71c-1.19,0.57-3.82,1.45-7.18,1.45c-7.54,0-12.45-5.11-12.45-12.75c0-7.69,5.27-13.32,13.42-13.32
		c2.68,0,5.06,0.67,6.3,1.34l-1.03,3.46c-1.08-0.57-2.79-1.19-5.27-1.19c-5.73,0-8.83,4.29-8.83,9.45c0,5.78,3.72,9.34,8.68,9.34
		c2.58,0,4.29-0.62,5.58-1.19L160.69,476.71z"/>
	<path class="st3" d="M191.31,445.58c0,1.55-1.08,2.79-2.89,2.79c-1.65,0-2.74-1.24-2.74-2.79c0-1.55,1.14-2.84,2.84-2.84
		C190.17,442.74,191.31,443.98,191.31,445.58 M186.25,452.6h4.54v24.99h-4.54V452.6z"/>
	<path class="st3" d="M236.13,471.6c0,2.17,0.1,4.28,0.36,5.99h-4.08l-0.36-3.15h-0.15c-1.39,1.96-4.08,3.72-7.64,3.72
		c-5.06,0-7.64-3.56-7.64-7.18c0-6.04,5.37-9.34,15.03-9.29v-0.52c0-2.02-0.57-5.79-5.68-5.74c-2.38,0-4.8,0.68-6.56,1.86
		l-1.03-3.05c2.07-1.29,5.12-2.17,8.26-2.17c7.64,0,9.5,5.21,9.5,10.17V471.6z M231.74,464.84c-4.96-0.1-10.59,0.78-10.59,5.63
		c0,3,1.96,4.34,4.23,4.34c3.31,0,5.42-2.07,6.14-4.18c0.16-0.52,0.21-1.03,0.21-1.44V464.84z"/>
	<path class="st3" d="M281.51,476.71c-1.19,0.57-3.82,1.45-7.18,1.45c-7.54,0-12.45-5.11-12.45-12.75c0-7.69,5.27-13.32,13.43-13.32
		c2.69,0,5.06,0.67,6.3,1.34l-1.03,3.46c-1.09-0.57-2.79-1.19-5.27-1.19c-5.73,0-8.83,4.29-8.83,9.45c0,5.78,3.72,9.34,8.67,9.34
		c2.58,0,4.28-0.62,5.58-1.19L281.51,476.71z"/>
	<path class="st3" d="M312.13,445.58c0,1.55-1.09,2.79-2.89,2.79c-1.65,0-2.74-1.24-2.74-2.79c0-1.55,1.14-2.84,2.84-2.84
		C310.99,442.74,312.13,443.98,312.13,445.58 M307.07,452.6h4.54v24.99h-4.54V452.6z"/>
	<path class="st3" d="M362.01,464.89c0,9.24-6.45,13.27-12.45,13.27c-6.71,0-11.98-4.96-11.98-12.86c0-8.31,5.53-13.22,12.39-13.22
		C357.15,452.08,362.01,457.3,362.01,464.89 M342.23,465.15c0,5.47,3.1,9.6,7.54,9.6c4.34,0,7.59-4.08,7.59-9.71
		c0-4.23-2.12-9.56-7.49-9.56C344.55,455.49,342.23,460.45,342.23,465.15 M356.58,441.81l-6.3,7.39h-3.2l4.5-7.39H356.58z"/>
	<path class="st3" d="M387.97,459.37c0-2.64-0.05-4.7-0.21-6.77h4.03l0.26,4.13h0.1c1.24-2.32,4.13-4.64,8.26-4.64
		c3.46,0,8.83,2.06,8.83,10.64v14.87h-4.54v-14.41c0-4.03-1.5-7.38-5.78-7.38c-2.94,0-5.27,2.11-6.09,4.65
		c-0.21,0.57-0.31,1.34-0.31,2.12v15.02h-4.54V459.37z"/>
	<path class="st3" d="M23.67,495.29v22.64c0,1.66,0.08,3.56,0.15,4.84h-3.02l-0.16-3.25h-0.12c-1.01,2.09-3.25,3.68-6.31,3.68
		c-4.53,0-8.05-3.83-8.05-9.52c-0.04-6.23,3.87-10.03,8.4-10.03c2.9,0,4.8,1.35,5.65,2.83h0.08v-11.19H23.67z M20.31,511.66
		c0-0.43-0.04-1.01-0.16-1.43c-0.5-2.13-2.36-3.91-4.91-3.91c-3.52,0-5.61,3.1-5.61,7.2c0,3.79,1.9,6.93,5.53,6.93
		c2.28,0,4.37-1.55,4.99-4.06c0.12-0.47,0.16-0.93,0.16-1.47V511.66z"/>
	<path class="st3" d="M38.44,514.02c0.08,4.61,2.98,6.5,6.43,6.5c2.44,0,3.95-0.43,5.19-0.97l0.62,2.44c-1.2,0.54-3.29,1.2-6.27,1.2
		c-5.77,0-9.21-3.83-9.21-9.48c0-5.65,3.33-10.06,8.79-10.06c6.15,0,7.74,5.34,7.74,8.79c0,0.7-0.04,1.2-0.12,1.59H38.44z
		 M48.42,511.58c0.04-2.13-0.89-5.5-4.72-5.5c-3.48,0-4.95,3.13-5.23,5.5H48.42z"/>
	<path class="st3" d="M92.61,522.11c-0.89,0.43-2.87,1.09-5.38,1.09c-5.65,0-9.33-3.83-9.33-9.56c0-5.77,3.95-9.99,10.06-9.99
		c2.01,0,3.79,0.5,4.72,1.01l-0.77,2.59c-0.81-0.43-2.09-0.89-3.95-0.89c-4.3,0-6.62,3.22-6.62,7.08c0,4.34,2.79,7.01,6.5,7.01
		c1.93,0,3.21-0.47,4.18-0.89L92.61,522.11z"/>
	<path class="st3" d="M120.49,513.25c0,6.93-4.84,9.95-9.33,9.95c-5.03,0-8.98-3.71-8.98-9.64c0-6.23,4.14-9.91,9.29-9.91
		C116.85,503.65,120.49,507.56,120.49,513.25 M105.67,513.44c0,4.1,2.32,7.2,5.65,7.2c3.25,0,5.69-3.06,5.69-7.28
		c0-3.17-1.59-7.16-5.61-7.16C107.41,506.2,105.67,509.92,105.67,513.44"/>
	<path class="st3" d="M131.96,509.11c0-1.98-0.08-3.52-0.16-5.07h2.98l0.15,3.05h0.12c1.05-1.78,2.79-3.44,5.92-3.44
		c2.51,0,4.45,1.55,5.26,3.76h0.08c0.58-1.08,1.35-1.86,2.13-2.44c1.12-0.85,2.32-1.31,4.1-1.31c2.51,0,6.19,1.63,6.19,8.13v10.99
		h-3.33V512.2c0-3.63-1.36-5.77-4.06-5.77c-1.97,0-3.45,1.43-4.06,3.06c-0.16,0.51-0.27,1.08-0.27,1.7v11.57h-3.33v-11.22
		c0-2.98-1.32-5.11-3.91-5.11c-2.09,0-3.68,1.71-4.22,3.41c-0.19,0.46-0.27,1.08-0.27,1.66v11.26h-3.33V509.11z"/>
	<path class="st3" d="M173.32,514.02c0.08,4.61,2.98,6.5,6.43,6.5c2.44,0,3.95-0.43,5.19-0.97l0.62,2.44
		c-1.2,0.54-3.29,1.2-6.27,1.2c-5.77,0-9.21-3.83-9.21-9.48c0-5.65,3.33-10.06,8.79-10.06c6.15,0,7.74,5.34,7.74,8.79
		c0,0.7-0.04,1.2-0.12,1.59H173.32z M183.31,511.58c0.04-2.13-0.89-5.5-4.72-5.5c-3.48,0-4.95,3.13-5.22,5.5H183.31z"/>
	<path class="st3" d="M197.99,509.88c0-2.21-0.04-4.1-0.16-5.84h2.98l0.16,3.72h0.12c0.85-2.52,2.94-4.1,5.23-4.1
		c0.35,0,0.62,0.04,0.93,0.08v3.21c-0.35-0.08-0.7-0.08-1.16-0.08c-2.4,0-4.1,1.78-4.57,4.34c-0.08,0.47-0.12,1.04-0.12,1.59v9.98
		h-3.41V509.88z"/>
	<path class="st3" d="M230.78,522.11c-0.89,0.43-2.87,1.09-5.38,1.09c-5.65,0-9.33-3.83-9.33-9.56c0-5.77,3.95-9.99,10.06-9.99
		c2.01,0,3.8,0.5,4.72,1.01l-0.77,2.59c-0.82-0.43-2.09-0.89-3.95-0.89c-4.29,0-6.62,3.22-6.62,7.08c0,4.34,2.79,7.01,6.5,7.01
		c1.94,0,3.21-0.47,4.18-0.89L230.78,522.11z"/>
	<path class="st3" d="M245.73,498.77c0,1.16-0.81,2.09-2.17,2.09c-1.24,0-2.05-0.93-2.05-2.09c0-1.16,0.85-2.13,2.13-2.13
		C244.88,496.64,245.73,497.57,245.73,498.77 M241.94,504.04h3.41v18.73h-3.41V504.04z"/>
	<path class="st3" d="M271.33,518.28c0,1.63,0.08,3.22,0.27,4.49h-3.06l-0.27-2.36h-0.11c-1.05,1.47-3.06,2.79-5.73,2.79
		c-3.79,0-5.73-2.67-5.73-5.38c0-4.53,4.03-7.01,11.26-6.97v-0.39c0-1.51-0.43-4.33-4.26-4.29c-1.78,0-3.6,0.5-4.92,1.39l-0.77-2.28
		c1.55-0.97,3.83-1.63,6.19-1.63c5.73,0,7.12,3.91,7.12,7.63V518.28z M268.04,513.21c-3.72-0.08-7.93,0.58-7.93,4.22
		c0,2.24,1.47,3.25,3.17,3.25c2.48,0,4.07-1.55,4.61-3.13c0.12-0.39,0.16-0.78,0.16-1.08V513.21z"/>
	<path class="st3" d="M284,509.11c0-1.98-0.04-3.52-0.16-5.07h3.02l0.19,3.09h0.08c0.93-1.74,3.1-3.48,6.19-3.48
		c2.59,0,6.62,1.55,6.62,7.97v11.15h-3.41v-10.8c0-3.02-1.12-5.54-4.33-5.54c-2.21,0-3.95,1.59-4.57,3.48
		c-0.16,0.43-0.23,1.01-0.23,1.59v11.26H284V509.11z"/>
	<path class="st3" d="M316.6,499.55v4.49h4.88v2.59h-4.88v10.1c0,2.32,0.66,3.64,2.56,3.64c0.93,0,1.47-0.08,1.97-0.23l0.16,2.59
		c-0.66,0.23-1.7,0.46-3.02,0.46c-1.59,0-2.86-0.54-3.68-1.43c-0.93-1.05-1.32-2.71-1.32-4.92v-10.22h-2.9v-2.59h2.9v-3.48
		L316.6,499.55z"/>
	<path class="st3" d="M334.14,514.02c0.08,4.61,2.98,6.5,6.43,6.5c2.44,0,3.95-0.43,5.19-0.97l0.62,2.44
		c-1.2,0.54-3.29,1.2-6.27,1.2c-5.76,0-9.21-3.83-9.21-9.48c0-5.65,3.33-10.06,8.79-10.06c6.15,0,7.74,5.34,7.74,8.79
		c0,0.7-0.04,1.2-0.11,1.59H334.14z M344.13,511.58c0.04-2.13-0.89-5.5-4.72-5.5c-3.48,0-4.96,3.13-5.22,5.5H344.13z"/>
	<path class="st3" d="M358.35,519.33c1.04,0.61,2.82,1.31,4.53,1.31c2.44,0,3.6-1.2,3.6-2.79c0-1.62-0.97-2.48-3.44-3.41
		c-3.41-1.24-4.99-3.06-4.99-5.3c0-3.02,2.48-5.5,6.46-5.5c1.9,0,3.56,0.5,4.57,1.16l-0.81,2.48c-0.74-0.47-2.09-1.12-3.83-1.12
		c-2.01,0-3.1,1.16-3.1,2.56c0,1.55,1.08,2.24,3.52,3.21c3.21,1.2,4.92,2.83,4.92,5.61c0,3.33-2.59,5.65-6.97,5.65
		c-2.05,0-3.95-0.54-5.26-1.31L358.35,519.33z"/>
	<path class="st3" d="M399.36,514.02c0.08,4.61,2.98,6.5,6.43,6.5c2.44,0,3.95-0.43,5.19-0.97l0.62,2.44
		c-1.2,0.54-3.29,1.2-6.27,1.2c-5.76,0-9.21-3.83-9.21-9.48c0-5.65,3.33-10.06,8.79-10.06c6.15,0,7.74,5.34,7.74,8.79
		c0,0.7-0.04,1.2-0.12,1.59H399.36z M409.35,511.58c0.04-2.13-0.89-5.5-4.72-5.5c-3.48,0-4.96,3.13-5.22,5.5H409.35z"/>
	<path class="st3" d="M11.33,542.51c0,1.16-0.81,2.09-2.17,2.09c-1.24,0-2.05-0.93-2.05-2.09c0-1.16,0.85-2.13,2.13-2.13
		C10.48,540.38,11.33,541.3,11.33,542.51 M7.53,547.77h3.41v18.73H7.53V547.77z"/>
	<path class="st3" d="M24.65,552.84c0-1.98-0.04-3.52-0.16-5.07h3.02l0.19,3.1h0.08c0.93-1.74,3.1-3.48,6.19-3.48
		c2.59,0,6.62,1.55,6.62,7.97v11.15h-3.4v-10.8c0-3.02-1.12-5.53-4.34-5.53c-2.21,0-3.95,1.58-4.57,3.48
		c-0.16,0.43-0.23,1.01-0.23,1.59v11.26h-3.41V552.84z"/>
	<path class="st3" d="M70.34,539.02v22.64c0,1.67,0.08,3.56,0.15,4.84h-3.02l-0.15-3.25H67.2c-1.01,2.09-3.25,3.68-6.31,3.68
		c-4.53,0-8.05-3.83-8.05-9.52c-0.04-6.23,3.87-10.02,8.4-10.02c2.9,0,4.8,1.36,5.65,2.83h0.08v-11.19H70.34z M66.97,555.4
		c0-0.43-0.04-1.01-0.16-1.43c-0.5-2.13-2.36-3.91-4.92-3.91c-3.52,0-5.61,3.1-5.61,7.2c0,3.8,1.9,6.93,5.53,6.93
		c2.29,0,4.37-1.55,4.99-4.07c0.12-0.46,0.16-0.93,0.16-1.47V555.4z"/>
	<path class="st3" d="M99.77,561.36c0,1.97,0.04,3.68,0.16,5.15H96.9l-0.19-3.06h-0.08c-0.85,1.51-2.86,3.48-6.19,3.48
		c-2.94,0-6.46-1.66-6.46-8.21v-10.95h3.41v10.34c0,3.56,1.12,6,4.18,6c2.28,0,3.87-1.58,4.49-3.13c0.19-0.46,0.31-1.08,0.31-1.74
		v-11.46h3.41V561.36z"/>
	<path class="st3" d="M113.02,563.06c1.04,0.62,2.83,1.32,4.53,1.32c2.44,0,3.6-1.2,3.6-2.79c0-1.63-0.97-2.48-3.44-3.4
		c-3.41-1.24-4.99-3.06-4.99-5.3c0-3.02,2.48-5.5,6.46-5.5c1.9,0,3.56,0.51,4.57,1.16l-0.81,2.48c-0.74-0.47-2.09-1.12-3.83-1.12
		c-2.01,0-3.1,1.16-3.1,2.56c0,1.55,1.09,2.24,3.52,3.21c3.21,1.2,4.92,2.83,4.92,5.61c0,3.33-2.59,5.65-6.97,5.65
		c-2.05,0-3.95-0.54-5.26-1.32L113.02,563.06z"/>
	<path class="st3" d="M140.98,543.28v4.49h4.88v2.59h-4.88v10.1c0,2.32,0.66,3.64,2.55,3.64c0.93,0,1.47-0.07,1.97-0.23l0.16,2.6
		c-0.66,0.23-1.7,0.46-3.02,0.46c-1.59,0-2.86-0.54-3.68-1.43c-0.93-1.05-1.32-2.71-1.32-4.92v-10.22h-2.9v-2.59h2.9v-3.48
		L140.98,543.28z"/>
	<path class="st3" d="M157.75,553.61c0-2.2-0.04-4.1-0.16-5.84h2.98l0.15,3.72h0.12c0.85-2.51,2.94-4.1,5.23-4.1
		c0.35,0,0.62,0.04,0.93,0.08v3.21c-0.35-0.08-0.7-0.08-1.16-0.08c-2.4,0-4.1,1.78-4.57,4.33c-0.08,0.47-0.12,1.05-0.12,1.59v9.98
		h-3.41V553.61z"/>
	<path class="st3" d="M182.41,542.51c0,1.16-0.81,2.09-2.17,2.09c-1.24,0-2.05-0.93-2.05-2.09c0-1.16,0.85-2.13,2.13-2.13
		C181.56,540.38,182.41,541.3,182.41,542.51 M178.62,547.77h3.41v18.73h-3.41V547.77z"/>
	<path class="st3" d="M208.89,562.01c0,1.63,0.08,3.21,0.27,4.49h-3.06l-0.27-2.36h-0.11c-1.05,1.47-3.06,2.78-5.73,2.78
		c-3.79,0-5.73-2.67-5.73-5.38c0-4.53,4.03-7,11.27-6.96v-0.39c0-1.51-0.43-4.33-4.26-4.3c-1.78,0-3.6,0.51-4.92,1.39l-0.77-2.28
		c1.55-0.97,3.83-1.63,6.19-1.63c5.73,0,7.12,3.91,7.12,7.62V562.01z M205.61,556.94c-3.72-0.08-7.94,0.58-7.94,4.22
		c0,2.25,1.47,3.25,3.17,3.25c2.48,0,4.06-1.55,4.61-3.14c0.12-0.39,0.16-0.77,0.16-1.08V556.94z"/>
	<path class="st3" d="M226.25,542.51c0,1.16-0.81,2.09-2.17,2.09c-1.24,0-2.05-0.93-2.05-2.09c0-1.16,0.85-2.13,2.13-2.13
		C225.4,540.38,226.25,541.3,226.25,542.51 M222.46,547.77h3.4v18.73h-3.4V547.77z"/>
	<path class="st3" d="M239.11,563.06c1.04,0.62,2.83,1.32,4.53,1.32c2.44,0,3.6-1.2,3.6-2.79c0-1.63-0.97-2.48-3.44-3.4
		c-3.41-1.24-4.99-3.06-4.99-5.3c0-3.02,2.48-5.5,6.46-5.5c1.9,0,3.56,0.51,4.57,1.16l-0.81,2.48c-0.74-0.47-2.09-1.12-3.83-1.12
		c-2.01,0-3.1,1.16-3.1,2.56c0,1.55,1.08,2.24,3.52,3.21c3.21,1.2,4.91,2.83,4.91,5.61c0,3.33-2.59,5.65-6.97,5.65
		c-2.05,0-3.95-0.54-5.27-1.32L239.11,563.06z"/>
	<path class="st3" d="M297.72,539.02v22.64c0,1.67,0.08,3.56,0.15,4.84h-3.02l-0.15-3.25h-0.12c-1.01,2.09-3.25,3.68-6.31,3.68
		c-4.53,0-8.05-3.83-8.05-9.52c-0.04-6.23,3.87-10.02,8.4-10.02c2.9,0,4.8,1.36,5.65,2.83h0.07v-11.19H297.72z M294.35,555.4
		c0-0.43-0.04-1.01-0.15-1.43c-0.5-2.13-2.36-3.91-4.91-3.91c-3.52,0-5.61,3.1-5.61,7.2c0,3.8,1.9,6.93,5.54,6.93
		c2.28,0,4.37-1.55,4.99-4.07c0.12-0.46,0.15-0.93,0.15-1.47V555.4z"/>
	<path class="st3" d="M313.37,557.75c0.08,4.61,2.98,6.5,6.42,6.5c2.44,0,3.95-0.42,5.19-0.97l0.62,2.44
		c-1.2,0.54-3.29,1.2-6.27,1.2c-5.77,0-9.21-3.83-9.21-9.48c0-5.65,3.33-10.06,8.79-10.06c6.16,0,7.74,5.34,7.74,8.79
		c0,0.7-0.04,1.2-0.11,1.59H313.37z M323.36,555.32c0.04-2.13-0.89-5.49-4.73-5.49c-3.48,0-4.96,3.13-5.22,5.49H323.36z"/>
	<path class="st3" d="M361.65,543.28v4.49h4.88v2.59h-4.88v10.1c0,2.32,0.66,3.64,2.56,3.64c0.93,0,1.47-0.07,1.97-0.23l0.16,2.6
		c-0.66,0.23-1.7,0.46-3.02,0.46c-1.59,0-2.86-0.54-3.68-1.43c-0.93-1.05-1.32-2.71-1.32-4.92v-10.22h-2.9v-2.59h2.9v-3.48
		L361.65,543.28z"/>
	<path class="st3" d="M394.09,561.36c0,1.97,0.04,3.68,0.16,5.15h-3.02l-0.19-3.06h-0.08c-0.85,1.51-2.86,3.48-6.19,3.48
		c-2.94,0-6.46-1.66-6.46-8.21v-10.95h3.41v10.34c0,3.56,1.12,6,4.18,6c2.29,0,3.87-1.58,4.49-3.13c0.19-0.46,0.31-1.08,0.31-1.74
		v-11.46h3.41V561.36z"/>
	<path class="st3" d="M411.6,542.51c0,1.16-0.81,2.09-2.17,2.09c-1.24,0-2.05-0.93-2.05-2.09c0-1.16,0.85-2.13,2.13-2.13
		C410.75,540.38,411.6,541.3,411.6,542.51 M407.81,547.77h3.41v18.73h-3.41V547.77z"/>
</g>
</svg>
