<?xml version="1.0" encoding="utf-8"?>
<!-- Generator: $$$/GeneralStr/196=Adobe Illustrator 27.6.0, SVG Export Plug-In . SVG Version: 6.00 Build 0)  -->
<svg version="1.1" id="Capa_2_00000035505711068071337870000004845972462624245179_"
	 xmlns="http://www.w3.org/2000/svg" xmlns:xlink="http://www.w3.org/1999/xlink" x="0px" y="0px" viewBox="0 0 256 121.5"
	 style="enable-background:new 0 0 256 121.5;" xml:space="preserve">
<style type="text/css">
	.st0{fill:#00499E;}
</style>
<g id="Capa_1-2">
	<g>
		<g>
			<path class="st0" d="M63.8,114.5c0-1.1,0-2,0-2.9c0-10.1,0-20.2,0-30.3c0-1-0.1-2.2,0.3-3.1c0.5-0.9,1.4-2,2.3-2.2
				c1.4-0.2,1.9,1.1,1.9,2.4c0,0.9,0.1,1.8,0.1,2.7c0,10.3,0,20.5,0,30.8c0,0.8,0,1.6,0,2.5h15.5c0-1.1,0-2.1,0-3
				c0-10.5,0-21,0-31.5c0-2.6,1.1-4.2,2.6-4c2.4,0.3,1.9,2.3,2,3.8c0.1,0.7,0,1.3,0,2c0,10,0,20.1,0,30.1c0,0.8,0,1.7,0,2.5h15.2
				c0.1-0.3,0.2-0.6,0.2-0.8c0-13.2,0.1-26.3-0.2-39.5c-0.1-4.2-1.8-8.1-5.3-10.9c-0.9-0.7-1.9-1.2-2.9-1.8c0-0.1,0.1-0.3,0.1-0.4
				h4.7c0-1.1,0-1.9,0-2.7c0-10.4,0-20.8,0-31.2c0-1.2,0.1-2.4,0.6-3.4c0.8-1.6,2.3-2,4-1.7c1.6,0.3,2.7,1.1,2.9,2.9
				c0.2,1.8-0.4,3.2-2.2,3.9c-0.8,0.3-1.5,0.4-2.3,0.6v13.2c12.3,1.5,20.7-5.4,20.4-17.5c-0.2-9.9-9.2-20-22.5-17.5
				c-10.7,2-16.2,8.9-16.3,19.9c-0.1,10.4,0,20.8,0,31.2c0,1.6-0.3,2.5-2,3.4c-2,1.1-3.7,2.9-5.5,4.5c-0.5,0.4-0.8,0.9-1,1.1
				c-2.5-2.2-4.7-4.3-7.1-6.5h7.2v-15c-0.9,0-1.7,0-2.5,0c-3.3,0-6.7,0.1-10-0.1c-0.9-0.1-2.2-1.1-2.3-1.8c-0.2-0.9,0.4-2.3,1.1-3
				c0.5-0.6,1.8-0.6,2.7-0.6c3.3-0.1,6.6,0,10,0V29.1c-0.9,0-1.7,0-2.4,0c-2.8-0.1-5.6-0.1-8.4-0.3c-1.5-0.1-2.4-1.3-2.1-2.6
				c0.2-1,1.2-2,2.1-2.4c1.1-0.5,2.5-0.3,3.7-0.3c2.7,0,5.3,0,8,0V8.7c-5.7,0-11.2-0.4-16.6,0.1c-8.2,0.8-13.1,6.3-13.2,14.4
				c-0.2,7.7-0.1,15.3,0,23c0.1,6.9,3.7,11.8,9.9,13.9c0.9,0.3,1.8,0.5,2.9,0.8c-9,4.7-11.1,8-11.1,18.1c0,11,0,22,0,33v2.5
				L63.8,114.5L63.8,114.5z M112.4,102.6c0.5-0.3,0.7-0.4,0.9-0.5c14.4-8.6,29.6-15.6,46.1-19.1c9.2-2,18.6-3.3,26.9,3.7
				c3.4-7.5,3.6-15.3,2.6-23c-1.1-8.2-4.5-15.6-8.7-22.7c-5.6-9.5-13.9-16.6-22.2-23.6c-3.2-2.7-6.9-5.1-10.3-7.6
				c-0.7,7.1-1.3,13.7-2.1,20.3c-1.1,9.5-3.9,18.5-9.1,26.5c-5,7.8-10.9,15-16.1,22.7C115.7,86.1,112.4,93.7,112.4,102.6
				L112.4,102.6z M256,114.7c-0.3-0.9-0.5-1.5-0.7-2.1c-2.5-6-4.9-11.9-7.5-17.9c-0.5-1.2-0.5-1.9,0.5-2.8c5.7-5.2,7.3-12,4.7-18.8
				c-2.4-6.4-8.6-10.6-16-10.8c-7-0.2-14-0.1-21-0.1c-0.5,0-1,0.1-1.5,0.2v52.2h15.3V112c0-10.7,0-21.4,0-32.1
				c0-4.2,0.5-4.6,4.7-3.8c0.4,0.1,0.7,0.2,1.1,0.3c1.8,0.6,2.9,1.7,2.9,3.7c0,2.1-1,3.4-2.9,3.9c-1,0.3-2,0.4-3.3,0.6
				c0,4.3,0,8.6,0,12.9c0,0.3,0.2,0.6,0.3,0.8c2.2,5,4.5,10,6.8,15c0.3,0.6,1,1.2,1.5,1.3C245.8,114.7,250.8,114.7,256,114.7
				L256,114.7z M116,0c13.6,8.6,22.8,20.1,24.8,36.8c0.3-0.6,0.4-0.8,0.5-1.1c2.2-8.5,3-17.1,3-25.8c0-1.4-0.6-2.1-1.7-2.5
				c-6.6-2.1-13.2-4.3-19.9-6.3C120.5,0.5,118.2,0.4,116,0L116,0z M109.1,101.5c0.1-0.6,0.2-0.8,0.2-0.9c-0.7-8,1.6-15.2,6.1-21.7
				c6.2-9,12.6-17.9,18.9-26.8c2.8-3.9,4.1-8.3,4.2-13.1c0.1-8.3-3.2-15.5-7.4-22.3c-2.4-3.8-5.6-6.9-9.2-9.6
				c0.3,0.7,0.8,1.2,1.2,1.8c5.3,6.4,9.5,13.2,12,21.2c2.5,8.1,1.7,15.5-3.3,22.4c-4.9,6.7-9.9,13.4-14.9,20.1
				c-3.7,5-7.3,10.2-8.5,16.5C107.6,93.1,107.3,97.2,109.1,101.5L109.1,101.5z M164.8,107.5c-17.3,3.1-34.6,2.1-51.8,1.2
				c0.5,0.2,1,0.4,1.5,0.5c11.4,2.6,22.9,4.8,34.6,5.6C155.8,115.4,160.5,112.1,164.8,107.5z M110.7,111c6.8,2.7,13.4,5.4,20.3,7.9
				c3.8,1.4,7.9,0.3,10.3-2.2C130.7,116.9,120.9,113.2,110.7,111z"/>
			<path class="st0" d="M0,8.6c6.8,0,13.5,0,20.3,0c5.1,0,10,0.8,13.9,4.3c7.7,6.7,8,18,0.5,25c-1.5,1.4-1.4,2.3-0.7,4
				c2.5,5.7,4.8,11.5,7.2,17.3c0.2,0.6,0.4,1.2,0.7,2.1c-5.2,0-10.2,0-15.1-0.1c-0.5,0-1.3-0.7-1.5-1.3c-2.2-4.8-4.4-9.7-6.5-14.6
				c-0.1-0.3-0.4-0.7-0.4-1c0-4.4,0-8.7,0-13.2c1.1-0.2,2.1-0.2,3-0.5c1.9-0.5,3.1-2,3.1-4.1c-0.1-2-1.2-3.1-3.1-3.6
				c-5.1-1.3-5.9-0.8-5.9,4.5c0,10.4,0,20.8,0,31.2c0,0.8,0,1.6,0,2.7H0V8.6z"/>
			<path class="st0" d="M205.8,121.5c-3.5-1.8-6.6-4.4-10.8-4.1c-1.4,0.1-2.7,0.6-4.1,0.8c-1.4,0.1-2.7,0-4.2-0.3
				c8.8-6.4,13.9-14.9,16.6-26c-27.6,10.2-55.4,15.3-84.8,14.3c30.9-6.6,60.9-14.6,90.9-24c0.7,13.7-4.7,24.1-15.7,32
				c0.6,0.1,1,0.1,1.5,0.2c2,0.6,4.1,1.1,6.1,1.8c1,0.4,1.9,1.1,2.9,1.6c3.2,1.5,5.9,1,8-2.4c0.3,2.9-1.1,4.6-2.7,6.1L205.8,121.5
				L205.8,121.5z"/>
			<path class="st0" d="M63.8,114.5H48.3V112c0-11,0-22,0-33c0-10.1,2-13.4,11.1-18.1c-1.1-0.3-2-0.6-2.9-0.8
				c-6.2-2-9.8-6.9-9.9-13.9c-0.1-7.7-0.2-15.3,0-23c0.2-8.1,5-13.6,13.2-14.4c5.4-0.5,11-0.1,16.6-0.1v14.7c-2.7,0-5.4,0-8,0
				c-1.3,0-2.7-0.1-3.7,0.3c-0.9,0.4-1.9,1.5-2.1,2.4c-0.3,1.3,0.6,2.5,2.1,2.6c2.8,0.2,5.6,0.2,8.4,0.3c0.7,0,1.5,0,2.4,0v11.5
				c-3.4,0-6.7,0-10,0c-0.9,0-2.2,0-2.7,0.6c-0.7,0.7-1.3,2.1-1.1,3c0.2,0.8,1.5,1.8,2.3,1.8c3.3,0.2,6.7,0.1,10,0.1
				c0.8,0,1.6,0,2.5,0v15h-7.2c2.4,2.2,4.7,4.2,7.1,6.5c0.2-0.2,0.6-0.7,1-1.1c1.8-1.5,3.4-3.4,5.5-4.5c1.7-0.9,2-1.8,2-3.4
				c-0.1-10.4-0.1-20.8,0-31.2C85,16.5,90.5,9.5,101.2,7.5c13.4-2.5,22.3,7.6,22.5,17.5c0.3,12.1-8.1,19-20.4,17.5V29.4
				c0.7-0.2,1.5-0.4,2.3-0.6c1.8-0.6,2.4-2.1,2.2-3.9c-0.1-1.8-1.3-2.6-2.9-2.9c-1.7-0.3-3.2,0.1-4,1.7c-0.5,1-0.6,2.3-0.6,3.4
				c0,10.4,0,20.8,0,31.2c0,0.8,0,1.6,0,2.7h-4.7c0,0.1-0.1,0.3-0.1,0.4c1,0.6,2,1.2,2.9,1.8c3.6,2.7,5.3,6.6,5.3,10.9
				c0.2,13.2,0.2,26.3,0.2,39.5c0,0.2-0.1,0.4-0.2,0.8H88.5c0-0.8,0-1.7,0-2.5c0-10,0-20.1,0-30.1c0-0.7,0-1.3,0-2
				c-0.1-1.6,0.4-3.5-2-3.8C85,75.8,84,77.4,84,80c0,10.5,0,21,0,31.5c0,0.9,0,1.9,0,3H68.5c0-0.9,0-1.7,0-2.5c0-10.3,0-20.5,0-30.8
				c0-0.9,0-1.8-0.1-2.7c-0.1-1.3-0.5-2.6-1.9-2.4c-0.9,0.1-1.8,1.2-2.3,2.2c-0.4,0.9-0.3,2-0.3,3.1c0,10.1,0,20.2,0,30.3
				C63.8,112.5,63.8,113.4,63.8,114.5L63.8,114.5z"/>
			<path class="st0" d="M112.4,102.6c0-8.9,3.3-16.5,8-23.4c5.2-7.7,11.1-14.9,16.1-22.7c5.2-8,7.9-17,9.1-26.5
				c0.8-6.6,1.4-13.2,2.1-20.3c3.5,2.5,7.1,4.9,10.3,7.6c8.3,7,16.5,14.1,22.2,23.6c4.2,7.1,7.6,14.5,8.7,22.7
				c1.1,7.8,0.8,15.5-2.6,23c-8.3-6.9-17.7-5.6-26.9-3.7c-16.5,3.5-31.6,10.5-46.1,19.1C113.1,102.2,112.9,102.3,112.4,102.6
				L112.4,102.6z"/>
			<path class="st0" d="M256,114.7c-5.2,0-10.1,0-15.1-0.1c-0.5,0-1.3-0.7-1.5-1.3c-2.3-5-4.5-10-6.8-15c-0.1-0.3-0.3-0.6-0.3-0.8
				c0-4.3,0-8.6,0-12.9c1.2-0.2,2.3-0.3,3.3-0.6c1.9-0.6,2.9-1.9,2.9-3.9c0-2-1.1-3.1-2.9-3.7c-0.4-0.1-0.7-0.2-1.1-0.3
				c-4.3-0.8-4.7-0.4-4.7,3.8c0,10.7,0,21.4,0,32.1v2.5h-15.3V62.3c0.5-0.1,1-0.2,1.5-0.2c7,0,14,0,21,0.1c7.5,0.2,13.6,4.4,16,10.8
				c2.6,6.8,1,13.6-4.7,18.8c-1.1,1-1,1.7-0.5,2.8c2.5,5.9,5,11.9,7.5,17.9C255.5,113.1,255.7,113.7,256,114.7L256,114.7z"/>
			<path class="st0" d="M116,0c2.3,0.3,4.6,0.4,6.8,1.1c6.7,2,13.3,4.2,19.9,6.3c1.2,0.4,1.7,1.1,1.7,2.5c0,8.7-0.9,17.3-3,25.8
				c-0.1,0.3-0.2,0.5-0.5,1.1C138.8,20.1,129.5,8.6,116,0L116,0z"/>
			<path class="st0" d="M109.1,101.5c-1.9-4.3-1.6-8.4-0.8-12.5c1.2-6.3,4.8-11.5,8.5-16.5c4.9-6.7,9.9-13.4,14.9-20.1
				c5.1-6.9,5.9-14.3,3.3-22.4c-2.5-8-6.8-14.8-12-21.2c-0.5-0.6-0.9-1.1-1.2-1.8c3.6,2.7,6.8,5.8,9.2,9.6c4.3,6.8,7.5,14,7.4,22.3
				c-0.1,4.8-1.4,9.2-4.2,13.1c-6.3,8.9-12.7,17.8-18.9,26.8c-4.5,6.5-6.8,13.7-6.1,21.7C109.3,100.8,109.2,100.9,109.1,101.5
				L109.1,101.5z"/>
			<path class="st0" d="M164.8,107.5c-4.2,4.6-8.9,7.9-15.7,7.4c-11.7-0.9-23.2-3.1-34.6-5.6c-0.5-0.1-1-0.3-1.5-0.5
				C130.2,109.7,147.5,110.6,164.8,107.5z"/>
			<path class="st0" d="M110.7,111c10.2,2.2,19.9,5.9,30.5,5.7c-2.4,2.4-6.4,3.5-10.3,2.2C124.2,116.5,117.5,113.7,110.7,111z"/>
		</g>
	</g>
</g>
</svg>
