<?xml version="1.0" encoding="UTF-8"?>
<svg id="Capa_2" data-name="Capa 2" xmlns="http://www.w3.org/2000/svg" viewBox="0 0 895.63 166.06">
  <defs>
    <style>
      .cls-1 {
        fill: #fff;
      }

      .cls-2 {
        fill: #25d366;
      }

      .cls-3 {
        fill: #3c3c3b;
      }
    </style>
  </defs>
  <g id="Capa_1-2" data-name="Capa 1">
    <g>
      <path class="cls-3" d="m43.64.88l4.59,113.88,38.44-76.28L84.38.88h38.68l7.49,110.69L180,.88h48.47l-78.57,165.18h-55.85l-3.02-52.77-25.51,52.77h-23.57c-9.03,0-16.8-3.1-23.33-9.31-6.53-6.2-10.15-14.04-10.88-23.51L0,.88h43.64Z"/>
      <path class="cls-3" d="m254.82,165.57c-11.69-.73-20.53-3.39-26.53-7.96-6-4.57-10.54-10.78-13.6-18.61-6.69-16.9-5.24-36.12,4.35-57.67,12.89-24.57,33.93-37.75,63.1-39.55h70.11l-29.62,124.28-67.82-.49Zm46.9-76.65h-.12l3.02-13.1h-18.74c-10.08.16-18.17,2.9-24.3,8.2-5.96,4.82-9.87,10.69-11.73,17.63-5.48,19.02.08,28.65,16.68,28.9h25.39l9.79-41.63Z"/>
      <path class="cls-3" d="m339.08,166.06l30.46-125.14h39.89l-29.98,125.14h-40.38ZM379.57.76h39.77l-7.5,29.39h-39.77l7.5-29.39Z"/>
      <path class="cls-3" d="m457.54,41.53h39.04l-8.95,35.51h-21.28c-2.42,0-4.63.86-6.65,2.57-1.93,1.71-3.22,3.88-3.87,6.49l-19.22,79.96h-39.17l21.4-90.12c5.56-20.08,18.45-31.55,38.68-34.41Z"/>
      <path class="cls-3" d="m490.06,132.02h59.11c9.67-.33,17.49-3.06,23.45-8.2,5.88-4.82,9.79-10.69,11.73-17.63,5.48-19.02-.08-28.65-16.68-28.9h-24.66l-11.6,43.22h-38.56L522.1.76h38.56l-9.31,41.39,28.04.12c11.68.73,20.53,3.39,26.53,7.96,6,4.57,10.54,10.78,13.6,18.61,6.69,16.98,5.24,36.2-4.35,57.67-12.9,24.57-33.93,37.76-63.1,39.55h-70.11l8.1-34.04Z"/>
      <path class="cls-3" d="m807.99,123.69L837.85.76h39.17c-6.61,26.2-10.03,39.76-10.27,40.65h28.89l-8.7,36.12h-28.77c-2.1,8.74-3.83,15.98-5.2,21.73-1.37,5.76-2.62,10.98-3.75,15.67-1.13,4.7-1.81,7.61-2.05,8.75-.24,2.04.24,3.88,1.45,5.51,1.21,1.63,2.9,2.45,5.08,2.45h20.31l-8.22,34.41h-26.35c-10.8,0-19.3-4.24-25.51-12.73-6.29-8.49-8.26-18.37-5.92-29.63Z"/>
      <g>
        <path class="cls-2" d="m718.08,162.92h-88.83v-82.04c0-44.67,36.21-80.88,80.88-80.88h7.95c44.67,0,80.88,36.21,80.88,80.88v1.16c0,44.67-36.21,80.88-80.88,80.88Z"/>
        <rect class="cls-1" x="648.33" y="54.79" width="129.82" height="52.46" rx="16.59" ry="16.59" transform="translate(266.19 -480.6) rotate(45)"/>
        <g>
          <circle class="cls-2" cx="690.87" cy="58.65" r="12.78"/>
          <circle class="cls-2" cx="735.6" cy="103.38" r="12.78"/>
        </g>
      </g>
    </g>
  </g>
</svg>