<?xml version="1.0" encoding="utf-8"?>
<!-- Generator: $$$/GeneralStr/196=Adobe Illustrator 27.6.0, SVG Export Plug-In . SVG Version: 6.00 Build 0)  -->
<svg version="1.1" id="Capa_1" xmlns="http://www.w3.org/2000/svg" xmlns:xlink="http://www.w3.org/1999/xlink" x="0px" y="0px"
	 viewBox="0 0 562 193.9" style="enable-background:new 0 0 562 193.9;" xml:space="preserve">
<style type="text/css">
	.st0{fill:#66AFD9;}
	.st1{fill:#268ECA;}
	.st2{fill:#007AC0;}
</style>
<g>
	<g>
		<path class="st0" d="M82.5,55.6c-2.6-0.7-5.5-1.1-8.4-1.5v29.2c2.9,0.4,5.8,0.7,8.4,1.5V55.6z"/>
		<path class="st0" d="M67.9,54.1c-3.3,0.4-6.6,1.1-9.5,1.8v29.2c2.9-1.1,6.2-1.8,9.5-1.8V54.1z"/>
		<path class="st0" d="M52.2,58.8c-2.6,1.5-5.1,3.3-7.3,5.1v29.2c2.2-1.8,4.7-3.6,7.3-5.1V58.8z"/>
		<path class="st0" d="M38.7,70.9c-4.7,6.6-7.7,15-7.7,23.7c0,5.1,1.1,10.2,2.9,14.6c1.1-3.3,2.9-6.2,5.1-9.1V70.9H38.7z"/>
		<path class="st0" d="M96,62.5c-2.2-1.8-4.7-3.3-7.3-4.4v29.2c2.6,1.1,5.1,2.9,7.3,4.4V62.5z"/>
		<path class="st0" d="M102.2,68.7v29.2c2.9,3.3,5.1,7.3,6.9,11.3c1.8-4.4,2.9-9.5,2.9-14.6C111.7,84.8,108.4,75.6,102.2,68.7z"/>
	</g>
	<g>
		<path class="st1" d="M53.3,87.7c-3.3,1.8-6.6,4-9.5,6.6v29.2c2.9-2.6,5.8-4.7,9.5-6.6V87.7z"/>
		<path class="st1" d="M83.6,85.1c-3.3-1.1-6.9-1.5-10.6-1.8v29.2c3.6,0,7.3,0.7,10.6,1.8V85.1z"/>
		<path class="st1" d="M69,83.7c-4,0.4-8,1.1-11.3,2.6v29.2c3.6-1.5,7.3-2.2,11.3-2.6V83.7z"/>
		<path class="st1" d="M101.1,96.8V126c3.3,3.6,5.8,8,7.7,12.8c1.8-4.4,2.9-9.5,2.9-14.6C111.7,113.6,107.7,104.1,101.1,96.8z"/>
		<path class="st1" d="M97.1,92.8c-2.9-2.2-5.8-4.4-9.5-5.8v29.2c3.3,1.5,6.6,3.6,9.5,5.8V92.8z"/>
		<path class="st1" d="M39.8,99c-5.5,6.9-8.8,15.7-8.8,25.2c0,5.1,1.1,10.2,2.9,14.6c1.5-3.6,3.6-7.3,5.8-10.6
			C39.8,128.2,39.8,99,39.8,99z"/>
	</g>
	<path class="st2" d="M71.2,112.9c-22.3,0-40.5,18.2-40.5,40.5s18.2,40.5,40.5,40.5s40.5-18.2,40.5-40.5
		C111.7,131.1,93.8,112.9,71.2,112.9z"/>
	<polygon class="st2" points="142.7,158.1 123.3,158.1 123.3,147.5 132.5,147.5 132.5,25.3 10.2,25.3 10.2,147.5 19,147.5 19,158.1 
		0,158.1 0,15.1 142.7,15.1 	"/>
</g>
<g>
	<g>
		<path class="st2" d="M163.9,111.6v-8.5L155,87.6h7l5,9.3l5-9.3h7l-8.9,15.5v8.5H163.9z"/>
		<g>
			<path class="st2" d="M182.1,111.6l9.7-23.6h5.8l9.7,23.6h-6.6l-1.2-3.1h-8.9l-1.2,3.1H182.1z M191.8,103.5h5.8l-2.7-7.4
				L191.8,103.5z"/>
			<path class="st2" d="M208.9,111.6V88h10.9c1.9,0,3.9,0.8,5.4,1.9c1.6,1.2,2.7,3.5,2.7,6.2c0,2.3-0.8,4.3-2.7,6.2
				c-1.6,1.6-3.5,2.3-5.8,2.3h-4.7v7C214.7,111.6,208.9,111.6,208.9,111.6z M215.1,98.8h4.3c0.4,0,0.8,0,1.2-0.4
				c0.8-0.4,1.2-1.2,1.2-2.3s-0.4-1.9-1.2-2.3c-0.8-0.4-0.8-0.4-1.2-0.4h-4.3V98.8z"/>
			<path class="st2" d="M229.8,88h6.2v12.8c0,3.9,1.6,5.4,4.3,5.4c2.7,0,4.3-1.6,4.3-5.4V88h6.2v13.6c0,3.5-1.2,6.2-3.1,7.8
				c-1.9,1.9-4.7,2.7-7.4,2.7s-5.4-0.8-7.4-2.7c-1.9-1.9-3.1-4.3-3.1-7.8L229.8,88L229.8,88z"/>
			<path class="st2" d="M253.8,111.6V88h17.4v5.8h-10.9v3.1h10.1v5.4h-10.1v3.5h11.2v5.8C271.7,111.6,253.8,111.6,253.8,111.6z"/>
			<path class="st2" d="M276.7,103.5c1.2,1.6,3.5,3.1,5.8,3.1c1.9,0,3.1-0.4,3.1-1.6c0-0.8-0.4-1.2-1.2-1.6c-0.4,0-0.8-0.4-1.6-0.4
				c-0.8-0.4-2.7-0.8-3.9-1.2c-3.5-1.6-5.4-3.5-5.4-7c0-2.3,0.8-3.9,2.3-5.4c1.6-1.2,3.5-1.9,5.8-1.9c3.9,0,6.6,1.2,8.5,3.9L286,95
				c-1.2-1.2-2.3-1.9-4.3-1.9c-1.6,0-2.7,0.8-2.7,1.6c0,0.8,0.4,1.2,0.8,1.6c0.4,0,0.8,0.4,1.2,0.4c0.8,0,2.7,0.8,4.3,1.2
				c3.9,1.6,5.8,3.5,5.8,7c0,4.7-3.1,7.4-9.3,7.4c-2.7,0-4.7-0.4-6.6-1.6c-1.6-1.2-3.1-2.3-3.9-3.5L276.7,103.5z"/>
			<path class="st2" d="M298.4,111.6V93.8h-6.6V88h19v5.8h-6.2v17.8H298.4z"/>
			<path class="st2" d="M308.1,111.6l9.7-23.6h5.8l9.7,23.6h-6.6l-1.2-3.1h-8.9l-1.2,3.1H308.1z M317.8,103.5h5.8l-2.7-7.4
				L317.8,103.5z"/>
			<path class="st2" d="M336.4,103.5c1.2,1.6,3.5,3.1,5.8,3.1c1.9,0,3.1-0.4,3.1-1.6c0-0.8-0.4-1.2-1.2-1.6c-0.4,0-0.8-0.4-1.6-0.4
				c-0.8-0.4-2.7-0.8-3.9-1.2c-3.5-1.6-5.4-3.5-5.4-7c0-2.3,0.8-3.9,2.3-5.4c1.6-1.2,3.5-1.9,5.8-1.9c3.9,0,6.6,1.2,8.5,3.9
				l-4.3,3.5c-1.2-1.2-2.3-1.9-4.3-1.9c-1.6,0-2.7,0.8-2.7,1.6c0,0.8,0.4,1.2,0.8,1.6c0.4,0,0.8,0.4,1.2,0.4c0.8,0,2.7,0.8,4.3,1.2
				c3.9,1.6,5.8,3.5,5.8,7c0,4.7-3.1,7.4-9.3,7.4c-2.7,0-4.7-0.4-6.6-1.6c-1.6-1.2-3.1-2.3-3.9-3.5L336.4,103.5z"/>
		</g>
		<g>
			<path class="st2" d="M361.6,111.6V88h9.7c3.9,0,7,1.2,9.3,3.5c2.3,2.3,3.1,5,3.1,8.5s-1.2,6.6-3.1,8.5c-1.9,2.3-5.4,3.1-9.3,3.1
				C371.3,111.6,361.6,111.6,361.6,111.6z M368.2,105.8h2.7c2.7,0,4.7-0.8,5.4-1.9c0.8-1.2,1.2-2.3,1.2-4.3c0-1.6-0.4-3.1-1.2-3.9
				c-0.8-1.2-2.7-1.6-5.4-1.6h-2.7V105.8z"/>
			<path class="st2" d="M386.4,111.6V88h17.4v5.8h-11.2v3.1h10.1v5.4h-10.1v3.5h11.2v5.8C403.8,111.6,386.4,111.6,386.4,111.6z"/>
			<path class="st2" d="M406.6,111.6V88h6.2v17.8h8.9v5.8H406.6z"/>
		</g>
		<g>
			<path class="st2" d="M431.8,111.6V88h17.4v5.8h-10.9v3.1h10.1v5.4h-10.1v3.5h11.2v5.8C449.6,111.6,431.8,111.6,431.8,111.6z"/>
			<path class="st2" d="M454.6,103.5c1.2,1.6,3.5,3.1,5.8,3.1c1.9,0,3.1-0.4,3.1-1.6c0-0.8-0.4-1.2-1.2-1.6c-0.4,0-0.8-0.4-1.6-0.4
				c-0.8-0.4-2.7-0.8-3.9-1.2c-3.5-1.6-5.4-3.5-5.4-7c0-2.3,0.8-3.9,2.3-5.4c1.6-1.2,3.5-1.9,5.8-1.9c3.9,0,6.6,1.2,8.5,3.9
				l-4.3,3.5c-1.2-1.2-2.3-1.9-4.3-1.9c-1.6,0-2.7,0.8-2.7,1.6c0,0.8,0.4,1.2,0.8,1.6c0.4,0,0.8,0.4,1.2,0.4c0.8,0,2.7,0.8,4.3,1.2
				c3.9,1.6,5.8,3.5,5.8,7c0,4.7-3.1,7.4-9.3,7.4c-2.7,0-4.7-0.4-6.6-1.6c-1.6-1.2-3.1-2.3-3.9-3.5L454.6,103.5z"/>
			<path class="st2" d="M475.9,111.6V93.8h-6.2V88h19v5.8h-6.2v17.8H475.9z"/>
			<path class="st2" d="M485.6,111.6l9.7-23.6h5.8l9.7,23.6h-6.6l-1.2-3.1h-8.9l-1.2,3.1H485.6z M495.3,103.5h5.8l-2.7-7.4
				L495.3,103.5z"/>
			<path class="st2" d="M512,111.6V88h9.7c3.9,0,7,1.2,9.3,3.5c2.3,2.3,3.1,5,3.1,8.5s-1.2,6.6-3.1,8.5c-1.9,2.3-5.4,3.1-9.3,3.1
				C521.7,111.6,512,111.6,512,111.6z M518.6,105.8h2.7c2.7,0,4.7-0.8,5.4-1.9c0.8-1.2,1.2-2.3,1.2-4.3c0-1.6-0.4-3.1-1.2-3.9
				c-0.8-1.2-2.7-1.6-5.4-1.6h-2.7V105.8z"/>
			<path class="st2" d="M557.7,108.5c-2.7,2.3-5.4,3.5-9.3,3.5c-3.5,0-6.6-1.2-9.3-3.5c-2.7-2.3-3.9-5.4-3.9-8.5
				c0-3.5,1.2-6.2,3.9-8.5c2.7-2.3,5.4-3.5,9.3-3.5c3.5,0,6.6,1.2,9.3,3.5c2.7,2.3,3.9,5.4,3.9,8.5S560.4,106.2,557.7,108.5z
				 M544.2,104.3c1.2,1.2,2.7,1.9,4.7,1.9c1.9,0,3.1-0.8,4.7-1.9c1.2-1.2,1.9-2.7,1.9-4.7c0-1.6-0.8-3.1-1.9-4.7
				c-1.2-1.2-2.7-1.9-4.7-1.9c-1.9,0-3.1,0.8-4.7,1.9c-1.2,1.2-1.9,2.7-1.9,4.7C542.2,101.6,543,103.1,544.2,104.3z"/>
		</g>
	</g>
	<g>
		<path class="st2" d="M155.4,69.8v-55h14.7v41.1H191v13.6h-35.7V69.8z"/>
		<path class="st2" d="M248,62.4c-5.8,5.4-12.8,8.1-21.3,8.1s-15.5-2.7-21.3-8.1s-8.9-12.4-8.9-20.2s2.7-14.3,8.9-20.2
			c5.8-5.4,12.8-8.1,21.3-8.1s15.5,2.7,21.3,8.1s8.9,12,8.9,20.2S254.2,57,248,62.4z M216.2,53.1c2.7,2.7,6.6,4.3,10.5,4.3
			c4.3,0,7.8-1.6,10.5-4.3c3.1-3.1,4.7-6.6,4.7-10.5s-1.6-7.4-4.7-10.5c-2.7-3.1-6.6-4.7-10.5-4.7c-4.3,0-7.8,1.6-10.5,4.7
			c-2.7,2.7-4.3,6.6-4.3,10.5S213.5,50,216.2,53.1z"/>
		<path class="st2" d="M277.9,69.8V28.3h-14.7V14.7h44.2v13.6H293v41.1h-15.1V69.8z"/>
		<path class="st2" d="M319,69.8v-55h40.3v13.6h-25.6v7.4h23.6v12.4h-23.6v8.5h26v13.2H319z"/>
		<path class="st2" d="M373.2,69.8v-55H398c5.4,0,10.1,1.9,14,5.4c3.9,3.9,5.8,8.1,5.8,13.2c0,7-3.9,13.2-9.3,15.5L422.1,69H405
			l-11.2-17.1l0,0h-5.4V69h-15.1V69.8z M388.3,40.7h8.1c3.9,0,6.6-2.3,6.6-6.6c0-3.5-2.3-5.8-5-5.8h-9.7
			C388.3,28.3,388.3,40.7,388.3,40.7z"/>
		<path class="st2" d="M430.6,69.8v-55h14.7v54.7h-14.7V69.8z M431,11.2L434.9,0h14.7l-8.1,11.2C441.4,11.2,431,11.2,431,11.2z"/>
		<path class="st2" d="M454.2,69.8l22.1-54.7h13.6L512,69.8h-15.9l-2.7-7h-20.9l-2.7,7H454.2z M476.7,50.8h13.2l-6.6-17.1
			L476.7,50.8z"/>
		<path class="st2" d="M526,50.8c2.7,3.9,7.8,6.6,13.6,6.6c5,0,7.4-1.2,7.4-3.9c0-1.6-0.8-2.3-3.1-3.5c-1.2-0.4-1.9-0.8-3.1-1.2
			c-1.9-0.8-6.2-1.9-8.5-2.7c-8.5-3.1-12.8-8.5-12.8-15.9c0-5,1.9-9.3,5.8-12c3.9-2.7,8.5-4.3,14-4.3c8.9,0,15.9,3.1,20.2,8.9
			l-9.7,8.5c-2.3-2.7-5.8-4.3-9.7-4.3s-5.8,1.6-5.8,3.5c0,1.6,0.4,2.3,2.3,3.1c0.8,0.4,1.9,0.8,2.7,0.8c1.9,0.4,6.2,1.6,9.7,2.7
			c9.3,3.5,13.2,8.1,13.2,15.9c0,10.5-7.4,17.4-21.7,17.4c-6.2,0-11.2-1.2-15.1-3.5c-3.9-2.3-7-5-8.9-8.1L526,50.8z"/>
	</g>
</g>
<g>
	<path class="st0" d="M164,138.1h5.3l8.4,20h-5.9l-1.4-3.5h-7.7l-1.4,3.5h-5.8L164,138.1z M168.8,150.3l-2.2-5.6l-2.2,5.6H168.8z"/>
	<path class="st0" d="M178.1,150.5L178.1,150.5c0-5,3.1-8.1,6.7-8.1c2.3,0,3.7,1,4.7,2.2v-7.2h5.4v20.7h-5.4v-2
		c-1,1.3-2.4,2.4-4.7,2.4C181.2,158.4,178.1,155.4,178.1,150.5z M189.6,150.4L189.6,150.4c0-2.1-1.4-3.5-3.1-3.5
		c-1.7,0-3.1,1.4-3.1,3.5v0.1c0,2,1.4,3.5,3.1,3.5C188.2,153.9,189.6,152.5,189.6,150.4z"/>
	<path class="st0" d="M197.8,142.8h5.4v2.1c1-1.3,2.4-2.4,4.6-2.4c2,0,3.6,0.9,4.4,2.5c1.3-1.5,2.9-2.5,5.1-2.5c3.3,0,5.2,2,5.2,5.6
		v10.1h-5.4v-8.3c0-1.7-0.8-2.6-2.1-2.6c-1.3,0-2.2,0.9-2.2,2.6v8.3h-5.4v-8.3c0-1.7-0.8-2.6-2.1-2.6s-2.2,0.9-2.2,2.6v8.3h-5.4
		V142.8z"/>
	<path class="st0" d="M225.4,137.4h5.6v4h-5.6V137.4z M225.5,142.8h5.4v15.3h-5.4V142.8z"/>
	<path class="st0" d="M233.9,142.8h5.4v2.2c1-1.3,2.4-2.5,4.6-2.5c3.3,0,5.2,2.2,5.2,5.6v10h-5.4v-8.3c0-1.7-0.9-2.6-2.2-2.6
		c-1.3,0-2.3,0.9-2.3,2.6v8.3h-5.4V142.8z"/>
	<path class="st0" d="M251.8,137.4h5.6v4h-5.6V137.4z M252,142.8h5.4v15.3H252V142.8z"/>
	<path class="st0" d="M259.2,156.2l2-3.3c1.8,1.2,3.7,1.8,5.3,1.8c0.9,0,1.4-0.3,1.4-0.8v-0.1c0-0.6-0.9-0.9-2.5-1.3
		c-3-0.8-5.4-1.8-5.4-4.9v-0.1c0-3.3,2.6-5.1,6.2-5.1c2.2,0,4.6,0.7,6.3,1.8l-1.8,3.4c-1.6-0.9-3.3-1.4-4.5-1.4
		c-0.8,0-1.2,0.3-1.2,0.7v0.1c0,0.6,0.9,0.9,2.5,1.4c3,0.9,5.4,1.9,5.4,4.9v0.1c0,3.4-2.5,5.1-6.3,5.1
		C263.9,158.4,261.3,157.7,259.2,156.2z"/>
	<path class="st0" d="M275.6,153.3v-6.2h-1.8v-4.3h1.8v-3.9h5.4v3.9h3.6v4.3H281v5.2c0,1.1,0.5,1.5,1.5,1.5c0.7,0,1.4-0.2,2-0.5v4.2
		c-1,0.5-2.2,0.9-3.7,0.9C277.5,158.4,275.6,157,275.6,153.3z"/>
	<path class="st0" d="M286.9,142.8h5.4v3.1c0.9-2.1,2.3-3.5,4.8-3.3v5.7h-0.5c-2.8,0-4.4,1.6-4.4,5.2v4.8h-5.4V142.8z"/>
	<path class="st0" d="M297.5,153.7L297.5,153.7c0-3.2,2.4-4.9,6-4.9c1.4,0,2.8,0.3,3.7,0.6v-0.3c0-1.6-1-2.5-3.1-2.5
		c-1.6,0-2.9,0.3-4.2,0.9l-1.1-3.8c1.7-0.7,3.6-1.2,6.2-1.2c2.8,0,4.6,0.7,5.8,1.9c1.2,1.1,1.6,2.7,1.6,4.9v8.8h-5.3v-1.6
		c-1,1.2-2.5,1.9-4.5,1.9C299.8,158.4,297.5,156.8,297.5,153.7z M307.3,152.5v-0.7c-0.5-0.2-1.3-0.4-2.1-0.4c-1.6,0-2.5,0.8-2.5,1.9
		v0.1c0,1,0.8,1.7,1.9,1.7C306.2,155.1,307.3,154.1,307.3,152.5z"/>
	<path class="st0" d="M314.7,150.5L314.7,150.5c0-4.4,3.4-8.1,8.2-8.1c3.1,0,5.2,1.4,6.5,3.4l-3.7,2.7c-0.7-1-1.6-1.6-2.9-1.6
		c-1.7,0-3,1.5-3,3.4v0.1c0,2,1.2,3.5,3.1,3.5c1.3,0,2.1-0.6,2.9-1.6l3.6,2.6c-1.4,2.1-3.5,3.5-6.8,3.5
		C318.1,158.5,314.7,154.8,314.7,150.5z"/>
	<path class="st0" d="M331.4,137.4h5.6v4h-5.6V137.4z M331.5,142.8h5.4v15.3h-5.4V142.8z"/>
	<path class="st0" d="M339.3,150.5L339.3,150.5c0-4.4,3.6-8.1,8.5-8.1c4.9,0,8.4,3.6,8.4,8v0.1c0,4.4-3.6,8-8.5,8
		C342.8,158.5,339.3,154.9,339.3,150.5z M351,150.5L351,150.5c0-1.9-1.4-3.5-3.3-3.5c-2,0-3.2,1.6-3.2,3.4v0.1
		c0,1.9,1.4,3.5,3.3,3.5C349.8,153.9,351,152.3,351,150.5z M348.6,136.2l5,1.6l-4.2,3.6h-3.8L348.6,136.2z"/>
	<path class="st0" d="M358.5,142.8h5.4v2.2c1-1.3,2.4-2.5,4.6-2.5c3.3,0,5.2,2.2,5.2,5.6v10h-5.4v-8.3c0-1.7-0.9-2.6-2.2-2.6
		c-1.3,0-2.3,0.9-2.3,2.6v8.3h-5.4V142.8z"/>
	<path class="st0" d="M384.7,138.3h5.1l8.2,10.5v-10.5h5.4v19.8h-4.8l-8.5-10.9v10.9h-5.4V138.3z"/>
	<path class="st0" d="M406.1,142.6L406.1,142.6c0-2.5,2-4.5,4.6-4.5c2.6,0,4.6,1.9,4.6,4.3v0.1c0,2.4-2,4.4-4.6,4.4
		C408,146.9,406.1,145,406.1,142.6z M406.6,148.3h8.2v2.2h-8.2V148.3z M412.4,142.6L412.4,142.6c0-1.1-0.7-2-1.7-2s-1.7,0.8-1.7,1.8
		v0.1c0,1,0.7,1.9,1.7,1.9S412.4,143.6,412.4,142.6z"/>
	<path class="st0" d="M424.6,155l3.5-3.5c1.4,1.4,2.9,2.3,4.7,2.3c1.6,0,2.6-0.8,2.6-2v-0.1c0-1.3-1.2-2-3.2-2h-2.3l-0.8-2.9
		l4.6-4.1h-7.6v-4.5h14.3v3.9l-4.7,4.1c2.8,0.6,5.1,2.2,5.1,5.6v0.1c0,4-3.2,6.6-7.7,6.6C429.2,158.5,426.5,157.1,424.6,155z"/>
	<path class="st0" d="M451.6,142.9h-9.2v-4.6h15.3v4.1l-8.8,15.7h-6.1L451.6,142.9z"/>
	<path class="st0" d="M467.5,146.9h9.3v4.7h-9.3V146.9z"/>
	<path class="st0" d="M486,138.3h6.2l4.5,12.6l4.5-12.6h6l-8.1,20H494L486,138.3z"/>
	<path class="st0" d="M509.2,138.3h5.5v19.8h-5.5V138.3z"/>
	<path class="st0" d="M517.7,148.2L517.7,148.2c0-5.8,4.5-10.4,10.7-10.4c3.5,0,6,1.1,8.1,2.9l-3.2,3.9c-1.4-1.2-2.8-1.9-4.8-1.9
		c-2.9,0-5.1,2.4-5.1,5.4v0.1c0,3.2,2.2,5.5,5.4,5.5c1.3,0,2.4-0.3,3.2-0.8v-2.4H528v-4h9.1v8.9c-2.1,1.7-5,3.1-8.6,3.1
		C522.3,158.5,517.7,154.2,517.7,148.2z"/>
	<path class="st0" d="M539.5,148.2L539.5,148.2c0-5.8,4.6-10.4,10.7-10.4s10.7,4.6,10.7,10.3v0.1c0,5.7-4.6,10.3-10.7,10.3
		S539.5,153.9,539.5,148.2z M555.3,148.2L555.3,148.2c0-2.9-2.1-5.4-5.1-5.4c-3,0-5,2.4-5,5.3v0.1c0,2.9,2.1,5.4,5.1,5.4
		C553.3,153.5,555.3,151.1,555.3,148.2z"/>
</g>
</svg>
