<?xml version="1.0" encoding="utf-8"?>
<!-- Generator: $$$/GeneralStr/196=Adobe Illustrator 27.6.0, SVG Export Plug-In . SVG Version: 6.00 Build 0)  -->
<svg version="1.1" id="Capa_1" xmlns="http://www.w3.org/2000/svg" xmlns:xlink="http://www.w3.org/1999/xlink" x="0px" y="0px"
	 viewBox="0 0 419 277.6" style="enable-background:new 0 0 419 277.6;" xml:space="preserve">
<style type="text/css">
	.st0{fill:#749CBC;}
	.st1{fill:#22376C;}
</style>
<rect x="82.7" y="24" class="st0" width="245.4" height="254.7"/>
<g>
	<g>
		<path class="st1" d="M40.9,267.3h-20L18,277.6H0l21.5-62.4h19.3l21.5,62.4H43.7L40.9,267.3z M37.2,253.8l-6.3-22.4l-6.2,22.4H37.2
			z"/>
		<path class="st1" d="M64.7,257l16.8-1.1c0.4,3,1.1,5.3,2.2,6.8c1.8,2.5,4.4,3.8,7.8,3.8c2.5,0,4.5-0.6,5.8-1.9
			c1.4-1.3,2-2.8,2-4.5c0-1.6-0.7-3.1-1.9-4.3c-1.3-1.3-4.3-2.5-9-3.6c-7.7-1.9-13.3-4.4-16.6-7.6c-3.3-3.2-5-7.2-5-12
			c0-3.2,0.9-6.2,2.6-9.1c1.7-2.9,4.3-5.1,7.7-6.7c3.4-1.6,8.1-2.4,14.1-2.4c7.3,0,12.9,1.5,16.7,4.4c3.8,3,6.1,7.7,6.8,14.2
			l-16.6,1.1c-0.4-2.8-1.4-4.9-2.8-6.1c-1.4-1.3-3.4-1.9-5.9-1.9c-2.1,0-3.6,0.5-4.6,1.4c-1,1-1.6,2.1-1.6,3.5c0,1,0.4,1.9,1.3,2.7
			c0.8,0.8,2.8,1.6,5.9,2.3c7.7,1.8,13.2,3.7,16.6,5.5c3.3,1.9,5.8,4.2,7.3,6.9c1.5,2.8,2.3,5.8,2.3,9.2c0,4-1,7.7-3,11.1
			c-2,3.4-4.9,5.9-8.5,7.7c-3.6,1.7-8.2,2.6-13.8,2.6c-9.7,0-16.4-2-20.2-6.1C67.4,268.5,65.2,263.3,64.7,257z"/>
		<path class="st1" d="M125.7,215.2h26.2c5.2,0,9.3,0.8,12.5,2.3c3.2,1.5,5.8,3.7,7.9,6.6c2.1,2.9,3.6,6.2,4.5,10
			c0.9,3.8,1.4,7.8,1.4,12.1c0,6.7-0.7,11.8-2.1,15.5c-1.4,3.7-3.3,6.8-5.8,9.2c-2.5,2.5-5.1,4.1-8,5c-3.9,1.1-7.4,1.7-10.5,1.7
			h-26.2V215.2z M143.4,229.4v34.1h4.3c3.7,0,6.3-0.4,7.9-1.3c1.6-0.9,2.8-2.5,3.7-4.7c0.9-2.2,1.3-5.8,1.3-10.8
			c0-6.6-1-11.1-3-13.6c-2-2.4-5.2-3.7-9.8-3.7H143.4z"/>
		<path class="st1" d="M187.5,215.2h47.3v13.3h-29.6v9.9h27.5v12.7h-27.5v12.3h30.5v14.1h-48.2V215.2z"/>
		<path class="st1" d="M273.9,255v-13h27.3v26.6c-5.2,3.9-9.8,6.5-13.9,7.9s-8.8,2.1-14.3,2.1c-6.8,0-12.3-1.3-16.6-3.8
			c-4.3-2.5-7.6-6.3-9.9-11.3c-2.4-5-3.5-10.7-3.5-17.2c0-6.8,1.3-12.7,3.9-17.8c2.6-5,6.3-8.9,11.3-11.5c3.9-2,9.1-3,15.6-3
			c6.3,0,11,0.6,14.2,1.9c3.1,1.2,5.7,3.2,7.8,5.8c2.1,2.6,3.6,6,4.7,10l-17,3.3c-0.7-2.4-1.9-4.2-3.6-5.4c-1.7-1.2-3.8-1.9-6.4-1.9
			c-3.9,0-7,1.5-9.3,4.4c-2.3,2.9-3.4,7.6-3.4,13.9c0,6.8,1.2,11.6,3.5,14.5c2.3,2.9,5.6,4.3,9.7,4.3c2,0,3.9-0.3,5.7-0.9
			c1.8-0.6,3.8-1.7,6.2-3.2V255H273.9z"/>
		<path class="st1" d="M346.8,267.3h-20l-2.8,10.3h-18l21.5-62.4h19.3l21.5,62.4h-18.5L346.8,267.3z M343.2,253.8l-6.3-22.4
			l-6.2,22.4H343.2z"/>
		<path class="st1" d="M373.8,215.2h17.7v47H419v15.4h-45.2V215.2z"/>
	</g>
</g>
<g>
	<g>
		<path class="st1" d="M314.6,31.1c0.6-0.7-0.2-3.5-2.3-7.2h-8.7C309.3,28.7,313,33.2,314.6,31.1z"/>
		<path class="st1" d="M211.8,157.4c8.5,0.9,14.1-3.8,12.9-14.1c-1.2-10.3-10.3-60.2-8.8-79.9c1-14,4.6-29.4,13.8-39.5h-10.5
			c-2.5,4-4.4,8.3-6.3,12.5c-7.6,17.6-8.6,44.4-7.7,54.3c0,0,2.9,29.4,3.7,38.5c0.7,9.1-3.4,15.9-14.5,14.7
			c-11.2-1.2-13.5-0.9-10.9,4.4C186.3,153.6,203.3,156.5,211.8,157.4z"/>
	</g>
</g>
<path class="st1" d="M271.5,42.6c-0.4,0-0.8-0.1-1.2-0.1c-0.2,0-0.3,0-0.4,0c0,0,0,0,0,0c-22.3,0-36.3,16.7-35,18.5
	c2.1,3,9-1.6,19.3-4.8c-0.1,0.9-0.2,1.8-0.2,2.7c0,9.1,7.3,16.4,16.4,16.4c9.1,0,16.4-7.3,16.4-16.4c0-1.1-0.1-2.3-0.3-3.3
	c8.8,2.3,13.8,5.6,15,5C303.1,59.6,292.7,43.4,271.5,42.6z"/>
<path class="st1" d="M176.9,172.8c-1.9,1.9-2.8,7.8,1,8.3s9.5-1.1,14.4,2.7c4.9,3.7,5.3,6,14.6,6.2c9.2,0.2,11-6,22.3-8.1
	c11.3-2.1,26.1-4.5,30.2-8.4c4.1-3.9,1.3-11.4-2.5-11.2c-3.9,0.2-4,6.6-7.8,7.4c-3.8,0.7-21.5-3.3-29.4-2.3c-7.9,1-8.9,8.3-13.3,7.8
	c-4.4-0.5-4.9-7.1-14.4-6.6C182.4,169,178.6,171.1,176.9,172.8z"/>
<path class="st1" d="M182.2,191.3c1.5-1.9,8.4,7.4,25.6,6.9c17.2-0.5,22.2-10.4,26-8.6c3.8,1.9-11.4,19.8-26.3,20.7
	C192.6,211.3,180.4,193.7,182.2,191.3z"/>
<path class="st0" d="M266.7,0c-26.9,0-39.6,10.9-47.5,24h10.5c3.7-4.1,8.3-7.3,14.1-9.3c20-6.8,45.5-0.3,54.3,5.3
	c2,1.2,3.8,2.6,5.4,4h8.7C306.8,14.7,292,0,266.7,0z"/>
</svg>
