<?xml version="1.0" encoding="utf-8"?>
<!-- Generator: $$$/GeneralStr/196=Adobe Illustrator 27.6.0, SVG Export Plug-In . SVG Version: 6.00 Build 0)  -->
<svg version="1.1" id="Capa_2_00000015314764979122195980000016487731443953535406_"
	 xmlns="http://www.w3.org/2000/svg" xmlns:xlink="http://www.w3.org/1999/xlink" x="0px" y="0px" viewBox="0 0 225 800"
	 style="enable-background:new 0 0 225 800;" xml:space="preserve">
<style type="text/css">
	.st0{fill:#333333;}
</style>
<g id="Capa_1-2">
	<g>
		<path class="st0" d="M112.5,0L112.5,0C174.6,0,225,50.4,225,112.5v0c0,62.1-50.4,112.5-112.5,112.5h0C50.4,225,0,174.6,0,112.5v0
			C0,50.4,50.4,0,112.5,0z"/>
		<path class="st0" d="M112.5,287.5L112.5,287.5c62.1,0,112.5,50.4,112.5,112.5v0c0,62.1-50.4,112.5-112.5,112.5h0
			C50.4,512.5,0,462.1,0,400v0C0,337.9,50.4,287.5,112.5,287.5z"/>
		<path class="st0" d="M112.5,575L112.5,575c62.1,0,112.5,50.4,112.5,112.5v0c0,62.1-50.4,112.5-112.5,112.5h0
			C50.4,800,0,749.6,0,687.5v0C0,625.4,50.4,575,112.5,575z"/>
	</g>
</g>
</svg>
