<?xml version="1.0" encoding="UTF-8"?>
<svg id="Capa_2" data-name="Capa 2" xmlns="http://www.w3.org/2000/svg" viewBox="0 0 469.12 217.11">
  <defs>
    <style>
      .cls-1 {
        fill: #276dab;
      }

      .cls-2 {
        fill: #01a0e2;
      }

      .cls-3 {
        fill: #2c2b29;
      }
    </style>
  </defs>
  <g id="Capa_1-2" data-name="Capa 1">
    <g>
      <path class="cls-2" d="m0,80.23C0,54.68,0,29.13,0,3.58Q0,.02,3.48.02c51.05,0,102.09,0,153.14,0,.53,0,1.07.04,1.59,0,1.7-.15,2.26.64,2.25,2.3-.04,11.92-.02,23.84-.02,35.76,0,2.11-.21,2.32-2.36,2.33-7.91.02-15.82,0-23.72,0-30.27,0-60.55,0-90.82,0q-3.15,0-3.16,3.12c0,37.71,0,75.42,0,113.13,0,.71-.02,1.42-.01,2.12.02,1.19-.56,1.71-1.74,1.7-1.53-.02-3.07,0-4.6,0-10.45,0-20.89,0-31.34,0-2.56,0-2.69-.13-2.69-2.71C0,131.93,0,106.08,0,80.23Z"/>
      <path class="cls-1" d="m160.47,120.43c0,12.39,0,24.78,0,37.17,0,2.88-.03,2.91-2.82,2.91-11.62,0-23.25,0-34.87,0-2.6,0-2.72-.1-2.72-2.67,0-11.45,0-22.89,0-34.34q0-3.01-3.09-3.02c-11.39,0-22.77,0-34.16,0-2.66,0-2.77-.11-2.78-2.81,0-11.62,0-23.25,0-34.87,0-2.57.16-2.74,2.68-2.74,25.08,0,50.15,0,75.23,0,2.37,0,2.52.16,2.53,2.5,0,12.63,0,25.25,0,37.88Z"/>
      <path class="cls-3" d="m382.2,20.45c0,8.43,0,16.87,0,25.3,0,3.22-.02,3.23-3.27,3.23q-3.66,0-3.66-3.71c0-13.22,0-26.44,0-39.66,0-2.67.13-2.83,2.79-2.81,5.57.04,4.71-.68,6.3,4.66,2.01,6.73,3.99,13.46,5.98,20.19.1.33.24.64.5,1.36,1.02-3.48,1.93-6.57,2.82-9.67,1.39-4.82,2.83-9.62,4.13-14.46.42-1.54,1.23-2.16,2.76-2.09,1.12.05,2.25.06,3.36,0,1.71-.11,2.28.72,2.27,2.34-.03,13.87-.02,27.74,0,41.61,0,1.66-.66,2.31-2.34,2.27-4.99-.11-4.76.58-4.76-4.62,0-7.85,0-15.69-.33-23.65-.2.66-.41,1.32-.61,1.99-1.53,5.33-3.12,10.64-4.56,16-.47,1.73-1.42,2.15-3.07,2.16-1.67.01-2.41-.67-2.84-2.22-1.68-6.08-3.45-12.14-5.18-18.2-.11,0-.22,0-.33-.01Z"/>
      <path class="cls-2" d="m311.57,140.16c.66-.47.66-1.1.82-1.65,2.08-7.2,4.19-14.39,6.21-21.6.46-1.65,1.28-2.39,3.01-2.23,1.17.11,2.36.04,3.54.03,1.19-.01,1.72.6,1.74,1.74,0,.35.02.71.02,1.06,0,13.33,0,26.67,0,40,0,2.9-.11,3-2.97,3.01q-3.84.01-3.84-3.86c0-7.61,0-15.22,0-22.83,0-.64,0-1.28,0-2.18-.74.54-.75,1.15-.89,1.66-1.57,5.5-3.17,11-4.67,16.52-.45,1.67-1.08,2.65-3.08,2.62-1.91-.02-2.52-.92-2.96-2.53-1.51-5.52-3.12-11.01-4.7-16.51-.15-.54-.15-1.16-.7-1.58-.39.62-.2,1.28-.2,1.9-.02,8.08,0,16.17-.02,24.25,0,2.4-.14,2.52-2.48,2.55q-4.31.05-4.31-4.32c0-12.8,0-25.61,0-38.41,0-2.99.1-3.12,3.07-3.08,5.13.05,4.4-.73,5.93,4.42,1.85,6.22,3.68,12.45,5.53,18.66.23.78.33,1.62.98,2.37Z"/>
      <path class="cls-3" d="m233.62,89.83c0-6.09,0-12.1,0-18.1,0-3.66.03-7.32,0-10.97-.01-1.39.52-2.01,1.97-2.06,4.87-.19,4.86-.23,4.86,4.67,0,12.8,0,25.6,0,38.4,0,2.98-.12,3.12-3.07,3.1-6.56-.06-5.15.75-6.89-5.22-2.35-8.04-4.55-16.12-6.82-24.18-.16-.55-.34-1.1-.85-1.63,0,.61,0,1.22,0,1.83,0,8.79,0,17.58,0,26.37,0,2.63-.19,2.8-2.82,2.82q-4.02.03-4.03-3.92c0-12.92,0-25.84,0-38.76,0-3.48,0-3.53,3.56-3.48,6.51.09,5.09-.99,6.87,5.38,2.26,8.12,4.39,16.28,6.6,24.42.11.42.02.96.63,1.32Z"/>
      <path class="cls-3" d="m384.61,81.83c0-6.73,0-13.45,0-20.18,0-2.79.17-2.94,2.87-2.95,3.07,0,6.14-.04,9.2.01,6.48.11,10.53,3.65,11.35,10.09.76,5.98.81,12,.53,18.02-.11,2.41-.09,4.82-.41,7.24-.98,7.15-4.62,10.56-11.86,10.78-3.07.09-6.14.04-9.2.02-2.13-.02-2.45-.33-2.45-2.5-.03-6.84,0-13.69-.01-20.53Zm16.23,0c-.16-3.71.15-7.43-.37-11.13-.52-3.66-2.04-5.08-5.71-5.07-2.22,0-2.38.15-2.39,2.45-.01,4.31,0,8.62,0,12.93,0,4.96,0,9.92.01,14.87,0,.87-.12,1.96,1.14,2.03,3.93.22,6.19-.54,6.9-4.77.63-3.75.29-7.54.43-11.31Z"/>
      <path class="cls-3" d="m201.72,193.58c0-6.96.04-13.92-.03-20.87-.01-1.63.49-2.42,2.2-2.36,3.94.12,7.9-.24,11.84.28,4.26.56,7.11,2.86,8.58,6.92,1.09,3,1.14,6.15,1.23,9.25.18,6.6.44,13.22-.56,19.77-.99,6.53-4.91,9.86-11.46,9.94-3.18.04-6.37-.05-9.55.03-1.66.04-2.29-.55-2.28-2.26.07-6.9.03-13.8.03-20.7Zm7.62-.19c0,4.72,0,9.43,0,14.15,0,.8-.13,1.69.98,2,3.42.96,6.39-.84,7-4.32.69-3.92.42-7.88.43-11.82,0-3.76.25-7.55-.37-11.29-.6-3.58-2.1-4.74-5.77-4.87-1.65-.06-2.34.44-2.3,2.19.09,4.65.03,9.31.03,13.97Z"/>
      <path class="cls-3" d="m201.72,137.56c0-6.84,0-13.69,0-20.53,0-2.27.11-2.37,2.43-2.38,2.77-.01,5.55,0,8.32,0,8.06.01,11.89,3.12,12.7,11.11.84,8.34.9,16.73-.2,25.07-.84,6.33-4.82,9.7-11.19,9.76-3.3.03-6.61-.05-9.91.04-1.62.04-2.17-.56-2.16-2.17.06-6.96.03-13.92.02-20.89Zm7.62.09c0,4.66,0,9.32,0,13.99,0,.81-.1,1.68,1,1.99,3.48.99,6.3-.76,6.99-4.29.5-2.57.4-5.17.4-7.76,0-5.07.34-10.16-.36-15.2-.52-3.74-1.93-4.84-5.68-4.82-2.19,0-2.35.15-2.36,2.29-.01,4.6,0,9.21,0,13.81Z"/>
      <path class="cls-3" d="m326.81,81.84c0-6.84,0-13.68,0-20.52,0-2.39.22-2.64,2.65-2.6,3.77.08,7.55-.34,11.3.32,4.78.84,7.84,3.56,8.93,8.36.88,3.88.85,7.72-.48,11.5-.6,1.7-1.52,3.25-2.98,4.31-1.21.87-1.21,1.79-.79,3.05,1.8,5.36,3.55,10.74,5.3,16.13.72,2.22.54,2.49-1.78,2.48-6.12-.05-4.95.79-6.7-4.81-1.25-4-2.55-7.98-3.66-12.01-.48-1.75-1.52-2.04-3.02-1.84-1.54.21-1.15,1.42-1.15,2.35-.03,4.66-.08,9.32.02,13.97.04,1.81-.68,2.46-2.39,2.36-.94-.06-1.89,0-2.83-.01-2.13-.04-2.41-.31-2.41-2.51-.02-6.84,0-13.68,0-20.52Zm7.62-9.5c0,1.77.01,3.54,0,5.3,0,.96.3,1.52,1.38,1.64,4.4.51,6.47-1.11,6.84-5.51.07-.82.07-1.65.01-2.47-.31-4.34-2.42-6.07-6.76-5.66-1.04.1-1.47.57-1.46,1.57.01,1.71,0,3.42,0,5.13Z"/>
      <path class="cls-3" d="m230.4,25.69c0-6.84,0-13.69,0-20.53,0-2.12.2-2.36,2.33-2.34,3.36.04,6.72-.21,10.08.2,6.54.8,9.79,3.81,10.68,10.26.46,3.34.39,6.71-.87,9.95-.63,1.63-1.53,3.11-2.91,4.15-1.18.88-1.22,1.76-.78,3.04,1.75,5.13,3.42,10.3,5.11,15.45.17.5.31,1.02.46,1.52.29.94,0,1.54-1.03,1.56-1.71.03-3.42.03-5.13,0-1.13-.02-1.4-.88-1.67-1.76-1.53-5.02-3.08-10.03-4.63-15.05-.28-.89-.47-1.82-1.75-1.9-1.77-.12-2.26.22-2.27,2-.02,4.72,0,9.44-.02,14.16,0,2.33-.25,2.59-2.51,2.58-5.97-.02-5.03.61-5.08-5.06-.05-6.08-.01-12.15-.01-18.23Zm15.57-9.07s.04,0,.06,0c0-.35,0-.71,0-1.06-.13-4.33-2.27-6.22-6.55-5.85-.92.08-1.45.43-1.45,1.38,0,3.65,0,7.29.01,10.94,0,.64.27,1.22.96,1.29,3.72.36,6.3,0,6.95-4.41.11-.75.02-1.53.02-2.29Z"/>
      <path class="cls-3" d="m317.5,25.85c0-6.9,0-13.81,0-20.71,0-2.1.22-2.35,2.36-2.32,3.36.04,6.72-.23,10.08.2,6.56.83,9.68,3.78,10.66,10.3.43,2.87.36,5.77-.44,8.6-.57,2.03-1.43,3.97-3.14,5.22-1.46,1.08-1.4,2.13-.88,3.64,1.82,5.3,3.52,10.64,5.25,15.97.62,1.92.41,2.24-1.56,2.22-6.6-.07-5.17.95-7.06-5.02-1.27-3.99-2.53-7.98-3.69-12.01-.42-1.45-1.23-1.83-2.6-1.71-1.52.13-1.35,1.23-1.36,2.21-.02,4.66,0,9.32-.02,13.98-.01,2.3-.26,2.55-2.54,2.55-5.97-.02-5,.58-5.04-4.9-.04-6.08-.01-12.15,0-18.23Zm15.62-9.16c.04-5.28-1.85-7.3-6.46-6.99-1.02.07-1.53.47-1.53,1.49,0,3.59,0,7.17.02,10.76,0,.72.32,1.2,1.07,1.41,3.7,1.03,6.66-1.06,6.9-4.91.04-.59,0-1.18,0-1.76Z"/>
      <path class="cls-2" d="m362.39,137.45c0-6.79-.02-13.57.01-20.36,0-2.24.19-2.37,2.48-2.38,2.66-.02,5.31-.01,7.97,0,8.22.04,12.48,4.07,12.8,12.3.19,4.79-.48,9.35-4.61,12.6-.86.67-.46,1.51-.21,2.27,1.71,5.28,3.45,10.54,5.17,15.82.89,2.73.82,2.85-1.96,2.82-5.63-.06-4.49.74-6.19-4.56-1.3-4.05-2.51-8.12-3.73-12.19-.35-1.16-.97-1.78-2.26-1.79-1.39,0-2.06.47-2.05,1.95.04,4.72.02,9.44,0,14.17,0,2.24-.18,2.43-2.44,2.41-5.42-.05-5.03.79-5.04-5.01-.01-6.02,0-12.04,0-18.06.02,0,.04,0,.06,0Zm7.44-9.05c0,1.71.01,3.42,0,5.13-.01,1.17.53,1.66,1.71,1.74,4.47.3,6.5-1.49,6.63-5.97.02-.65.02-1.3,0-1.95-.16-4.51-1.98-6.12-6.47-5.89-1.35.07-1.9.66-1.88,1.97.03,1.65,0,3.3.01,4.95Z"/>
      <path class="cls-3" d="m259.11,25.87c-.19-4.89-.37-9.8.36-14.65.8-5.32,4.74-8.66,10.13-8.84,1.41-.05,2.85-.07,4.23.17,4.7.83,7.9,4.39,8.52,9.17.44,3.35.37,6.71.34,10.07-.06,5.89.28,11.79-.29,17.68-.63,6.53-5.33,10.61-12.52,10.01-7.04-.58-10.64-4.66-10.75-11.77-.06-3.95-.01-7.9-.01-11.85Zm7.67.04s0,0,0,0c0,4.13-.08,8.26.03,12.38.07,2.77,1.57,4.28,3.92,4.35,2.39.07,3.79-1.35,4.03-4.15.58-7.01.16-14.02.25-21.04.02-1.64-.14-3.3-.33-4.93-.24-2.03-1.55-3.16-3.56-3.23-2.74-.1-4.25,1.34-4.32,4.42-.09,4.07-.02,8.14-.02,12.2Z"/>
      <path class="cls-2" d="m468.89,137.78c0,4.25.17,8.5-.05,12.73-.24,4.64-2.21,8.43-6.92,9.9-4.89,1.52-9.61,1.19-13.44-2.76-2.29-2.36-2.84-5.44-2.89-8.53-.13-8.31-.47-16.64.21-24.94.51-6.14,4.61-9.92,10.87-10.16,6.61-.25,11.1,3.06,11.97,9.26.67,4.79.5,9.65.25,14.48Zm-7.52-.23s0,0,0,0c0-4.07.03-8.13-.01-12.2-.02-1.64-.43-3.18-2.05-4.05-2.68-1.44-5.76.09-5.97,3.21-.61,8.65-.49,17.3-.06,25.96.01.29.06.59.12.87.4,1.79,1.64,2.87,3.45,3.01,2.67.21,4.4-1.32,4.48-4.26.11-4.18.03-8.37.03-12.55Z"/>
      <path class="cls-3" d="m437.43,81.89c-.12,4.71.36,9.44-.3,14.14-.77,5.52-4.76,9.13-10.32,9.29-1.71.05-3.42.09-5.09-.41-4.83-1.46-7.41-4.91-7.64-9.75-.42-9.13-.66-18.28.12-27.39.61-7.15,6.33-10.1,12.5-9.59,7.01.57,10.47,4.55,10.7,12.04.12,3.89.02,7.79.02,11.68Zm-15.89-.24c0,3.72-.02,7.43.01,11.15,0,.94.12,1.89.33,2.8.45,1.95,1.91,2.91,4.12,2.8,1.95-.1,3.15-1.16,3.48-3.11.13-.75.29-1.52.29-2.28.02-7.55.06-15.11-.01-22.66-.04-3.55-1.53-5.35-4.08-5.36-2.65,0-4.07,1.85-4.12,5.5-.04,3.72,0,7.43-.01,11.15Z"/>
      <path class="cls-3" d="m287.83,26.23c.03-4.78,0-9.14.31-13.51.42-6.07,4.59-10.2,10.66-10.35,1.53-.04,3.06-.08,4.58.3,5.46,1.35,7.41,5.66,7.94,9.93.11.92-.34,1.46-1.23,1.63-1.16.22-2.33.37-3.48.64-1.51.35-2.32-.07-2.57-1.71-.27-1.78-1.09-3.28-3.02-3.76-2.84-.71-5.1.95-5.19,3.91-.11,3.66-.12,7.32-.12,10.98,0,4.72,0,9.44.11,14.16.08,3.24,2.77,4.98,5.78,3.89,1.49-.54,2.36-1.59,2.46-3.15.16-2.53.22-5.07.35-7.6.07-1.32-.56-1.73-1.81-1.76-2.9-.07-2.96-.17-2.98-3.02,0-.59.03-1.18.02-1.77-.03-1.41.66-2.03,2.06-2.01,2.66.03,5.31.02,7.97,0,1.37-.01,2.07.52,2.06,1.99-.03,4.9.09,9.8-.37,14.68-.59,6.22-5.74,10.37-12.24,9.88-6.98-.53-10.61-4.39-11.02-11.38-.24-4.13-.21-8.26-.27-11.97Z"/>
      <path class="cls-3" d="m305.05,83.24c.1,2.88-.25,7.12.25,11.36.3,2.56,1.65,3.82,4.17,3.81,2.45-.02,3.98-1.37,4.13-3.9.14-2.29.05-4.6.12-6.9.04-1.37-.59-1.85-1.91-1.91-2.69-.11-2.72-.19-2.73-2.9q-.02-3.9,3.86-3.9c2.12,0,4.25.04,6.37,0,1.27-.02,1.85.58,1.86,1.8.06,5.31.15,10.63-.6,15.88-.73,5.08-4.77,8.49-9.9,8.7-1.59.07-3.18.13-4.75-.25-4.65-1.11-7.57-4.34-8.19-9.08-.62-4.7-.35-9.42-.35-14.14,0-4.54-.2-9.07.27-13.61.71-6.98,5.79-10.59,12.7-10.06,6.14.47,9.61,3.96,10.39,9.89.17,1.29-.29,1.89-1.49,2.1-.52.09-1.04.18-1.57.28q-3.3.63-4.47-2.55c-.74-2-2.44-3.1-4.37-2.83-2.19.31-3.28,1.47-3.52,3.74-.1.94-.25,1.88-.26,2.82-.03,3.42-.01,6.84-.01,11.63Z"/>
      <path class="cls-2" d="m277.35,193.54c0,4.13-.08,8.27.03,12.39.09,3.27,2.71,5.03,5.74,4.04,1.41-.46,2.32-1.36,2.61-2.84.56-2.81.31-5.65.32-8.47,0-.85-.5-1.24-1.33-1.34-1.01-.12-2.41.43-2.93-.68-.71-1.51-.36-3.25-.19-4.88.08-.81.82-.93,1.49-.93,2.83-.01,5.67,0,8.5-.01,1.22,0,1.68.64,1.67,1.78-.06,4.95.24,9.92-.37,14.86-.76,6.23-5.88,10.21-12.28,9.57-7.1-.72-10.61-4.58-10.83-11.75-.24-7.85-.3-15.69-.01-23.54.34-9.49,8.4-14.62,17.16-10.8,3.31,1.45,6.04,5.68,5.97,9.21-.02.83-.35,1.35-1.16,1.53-.58.13-1.15.25-1.74.35q-3.37.56-4.57-2.56c-.84-2.18-2.33-3.01-4.77-2.67-1.92.27-3.18,1.55-3.24,3.81-.12,4.31-.03,8.62-.03,12.92,0,0-.02,0-.03,0Z"/>
      <path class="cls-2" d="m416.8,135.74c.11-2.89-.28-7.49.3-12.08.75-5.97,5.01-9.6,11.35-9.64,6.41-.04,10.62,3.48,11.49,9.46.23,1.56-.2,2.39-1.81,2.52-.35.03-.7.11-1.05.17q-3.32.54-4.48-2.53c-.76-2.01-2.26-2.96-4.4-2.78-2.1.17-3.22,1.23-3.58,3.46-.14.87-.26,1.76-.27,2.64-.02,7.14-.02,14.27,0,21.41,0,.88.12,1.77.28,2.63.43,2.24,1.97,3.43,4.27,3.38,2.15-.05,3.83-1.32,4.01-3.47.23-2.7.15-5.42.16-8.13,0-1.21-.86-1.34-1.84-1.38-2.67-.11-2.73-.19-2.74-2.88,0-.53.02-1.06,0-1.59-.04-1.39.57-2.05,2.01-2.03,2.65.05,5.31.03,7.96,0,1.27-.01,1.82.57,1.81,1.82-.05,4.54.1,9.09-.15,13.62-.27,4.75-2.23,8.69-7.13,10.14-4.98,1.48-9.74,1.04-13.5-3.11-2.39-2.64-2.59-6.01-2.69-9.31-.12-3.53-.03-7.08-.03-12.32Z"/>
      <path class="cls-3" d="m367.19,58.71c.53,0,1.07.04,1.59,0,1.44-.13,2.14.53,2.44,1.93,3.03,13.94,6.1,27.88,9.14,41.82.46,2.1.2,2.42-1.93,2.42-5.88,0-4.8.5-5.93-4.76-1.3-6.06-.13-5.02-6.12-5.1-4.15-.06-3.61-.23-4.39,3.55-.32,1.56-.64,3.12-.96,4.68-.11.52-.18,1.19-.73,1.34-2.02.54-4.11.52-6.11.04-.98-.23-.53-1.31-.37-2.01,1.22-5.53,2.47-11.05,3.7-16.57,1.78-7.94,3.55-15.88,5.31-23.83.77-3.48.76-3.49,4.35-3.49Zm.15,14.38l-.36.04c-.71,3.63-1.43,7.26-2.14,10.89-.95,4.86-1.67,4.44,3.96,4.45,1.01,0,1.39-.38,1.19-1.4-.9-4.66-1.77-9.32-2.65-13.98Z"/>
      <path class="cls-3" d="m367.59,48.98q-3.57,0-4.29-3.52c-.32-1.56-.63-3.12-.89-4.69-.2-1.16-.73-1.76-2-1.71-1.83.08-3.66.08-5.48,0-1.27-.05-1.81.56-2.02,1.71-.38,2.09-.82,4.17-1.18,6.26-.24,1.39-.92,2.07-2.39,1.97-1.17-.08-2.36-.03-3.54-.02-1.32,0-1.79-.56-1.48-1.9,1.15-5,2.23-10.01,3.35-15.02,1.98-8.86,3.96-17.72,5.96-26.58.59-2.62.66-2.68,3.26-2.67,5.2,0,4.35-.42,5.42,4.37,2.85,12.77,5.6,25.57,8.39,38.35.1.46.16.93.29,1.38.46,1.48-.1,2.13-1.61,2.07-.59-.02-1.18,0-1.77,0Zm-9.67-31.59c-.13,0-.27.02-.4.03-.73,3.64-1.46,7.27-2.18,10.91-.89,4.51-.64,4.77,4.02,4.23.06,0,.12,0,.18-.01.81-.05,1.17-.44,1.01-1.28-.88-4.62-1.75-9.25-2.63-13.87Z"/>
      <path class="cls-3" d="m433.53,48.98c-.41,0-.83-.04-1.24,0-1.71.22-2.45-.61-2.7-2.23-.32-2.04-.82-4.04-1.17-6.07-.2-1.13-.77-1.63-1.92-1.61-1.83.04-3.66.04-5.48,0-1.21-.03-1.83.43-2.04,1.67-.35,2.09-.92,4.15-1.23,6.24-.23,1.57-1.03,2.12-2.52,2.01-.76-.06-1.53,0-2.3-.01-2.87-.01-2.98-.16-2.36-2.89.64-2.88,1.27-5.75,1.91-8.63,2.38-10.64,4.75-21.28,7.14-31.92.6-2.67.68-2.74,3.4-2.73,4.81.02,4.25-.47,5.29,4.31,2.83,12.9,5.65,25.79,8.47,38.69.69,3.17.68,3.18-2.54,3.18-.24,0-.47,0-.71,0Zm-9.6-31.74c-.11,0-.22,0-.33,0-.74,3.74-1.52,7.48-2.23,11.23-.84,4.49-1.63,4.11,3.57,4.09.12,0,.23-.01.35-.01,1.09-.04,1.44-.64,1.25-1.65-.87-4.55-1.74-9.11-2.61-13.66Z"/>
      <path class="cls-3" d="m457.96,92.02c-.08-4.89-.83-5.97-5.39-7.76-8.43-3.31-10.26-5.99-9.99-15.05.12-4.14,1.26-7.98,5.39-9.84,4.44-2,9.02-1.98,13.18.81,3.11,2.09,3.89,5.48,4.02,9.02.03.92-.66,1.19-1.39,1.3-1.34.22-2.69.37-4.03.58-1.06.16-1.51-.3-1.62-1.33-.09-.81-.27-1.64-.54-2.41-.65-1.86-1.9-2.58-4.01-2.43-1.82.13-2.91,1.03-3.26,2.92-.33,1.75-.33,3.54.02,5.29.37,1.87,1.81,2.83,3.44,3.52,1.74.73,3.51,1.39,5.23,2.16,3.55,1.61,5.64,4.38,6.24,8.23.58,3.77.59,7.53-.48,11.22-1.06,3.66-3.43,5.96-7.21,6.75-2.29.48-4.6.53-6.86.14-6.74-1.16-8.47-6.61-8.62-11.47-.03-.85.48-1.28,1.28-1.41,1.45-.24,2.91-.48,4.36-.75,1.17-.22,1.61.35,1.75,1.41.12.93.21,1.89.49,2.78.66,2.15,2.25,3.18,4.42,2.99,1.93-.18,3.14-1.44,3.41-3.67.12-.99.13-2,.19-3Z"/>
      <path class="cls-3" d="m455.64,36.32c.07-4.93-.74-6.13-5.3-7.95-.49-.2-.98-.4-1.48-.59-7.69-2.93-8.45-6.96-8.59-13.38-.03-1.58.18-3.17.6-4.73,1.17-4.33,4.46-7.05,8.93-7.28,1.29-.07,2.6-.07,3.89.02,5.44.38,9.6,5.17,9.28,10.6-.05.91-.41,1.45-1.31,1.59-1.4.22-2.79.45-4.19.65-.82.12-1.35-.19-1.51-1.08-.17-.93-.34-1.86-.64-2.75-.59-1.72-1.9-2.49-3.69-2.43-1.81.06-3.09.97-3.47,2.73-1,4.62-.41,7.99,4.59,9.55,1.18.37,2.31.89,3.44,1.39,3.92,1.72,6.34,4.6,6.9,8.92.42,3.3.49,6.6-.27,9.85-1.48,6.31-5.79,8.42-12.1,8.1-6.9-.35-10.28-3.92-10.89-10.84-.13-1.43.29-2.25,1.84-2.39,1.29-.12,2.56-.41,3.84-.62,1.02-.17,1.56.26,1.67,1.29.08.76.17,1.53.34,2.27.62,2.68,2.01,3.72,4.66,3.54,2.04-.14,3.2-1.44,3.47-3.98.09-.82.01-1.65.01-2.47Z"/>
      <path class="cls-2" d="m427.09,216.44c-.53,0-1.06-.03-1.59,0-1.28.08-1.97-.5-2.2-1.76-.39-2.09-.87-4.16-1.23-6.25-.23-1.33-.85-1.96-2.25-1.9-1.59.07-3.2.13-4.78-.02-1.84-.16-2.52.69-2.76,2.37-.28,1.92-.75,3.82-1.1,5.73-.22,1.22-.83,1.84-2.15,1.83-6.22-.05-5.61.61-4.33-5.15,2.83-12.73,5.67-25.45,8.52-38.17.58-2.6.72-2.69,3.44-2.72,4.22-.05,4.2-.05,5.07,3.97,2.78,12.8,5.59,25.59,8.37,38.39.8,3.69.78,3.69-3,3.68Zm-9.6-31.82c-.14,0-.28,0-.42,0-.95,4.82-1.93,9.63-2.82,14.47-.24,1.28.97,1.37,1.66,1.13,1.42-.51,3.53,1.25,4.3-1.26.08-.25-.07-.58-.12-.87-.3-1.56-.6-3.12-.9-4.68-.56-2.93-1.13-5.85-1.69-8.78Z"/>
      <path class="cls-2" d="m318.71,216.45q-3.39,0-4.06-3.38c-.33-1.62-.67-3.23-.98-4.86-.2-1.08-.72-1.68-1.89-1.66-1.95.03-3.89.03-5.84,0-1.07-.01-1.61.45-1.8,1.51-.4,2.2-.91,4.39-1.31,6.59-.23,1.27-.89,1.81-2.17,1.8-6.41-.04-5.57.52-4.31-5.15,2.82-12.78,5.72-25.55,8.52-38.34.4-1.83,1.25-2.55,3.11-2.58,4.59-.06,4.51-.11,5.48,4.37,2.76,12.8,5.58,25.58,8.38,38.37.08.35.16.69.23,1.04.37,1.9.13,2.22-1.76,2.28-.53.02-1.06,0-1.59,0Zm-9.57-31.84c-.13,0-.27,0-.4,0-.74,3.68-1.57,7.34-2.21,11.04-.85,4.87-1.89,4.47,3.91,4.54,1.37.02,1.61-.62,1.37-1.77-.4-1.97-.75-3.94-1.13-5.91-.51-2.63-1.02-5.26-1.54-7.9Z"/>
      <path class="cls-3" d="m201.72,25.87c0-6.9.05-13.81-.03-20.71-.02-1.79.66-2.43,2.38-2.37,3.12.1,6.28-.15,9.37.18,7.46.78,10.52,3.89,11.41,11.31.32,2.7.21,5.42-.42,8.09-1.33,5.59-5.16,8.7-11.04,8.91-4.32.15-4.07-.76-4.07,4.3,0,3.66.02,7.32-.01,10.98-.02,2.13-.28,2.42-2.31,2.42-6.22-.02-5.23.67-5.28-5.22-.05-5.96-.01-11.92,0-17.88Zm7.62-8.84c0,1.88,0,3.76,0,5.65,0,.66.04,1.29.8,1.6,2.64,1.08,6-.56,6.8-3.32.54-1.85.43-3.73.35-5.61-.17-4-2.23-5.79-6.28-5.66-1.21.04-1.71.51-1.69,1.7.03,1.88,0,3.76,0,5.65Z"/>
      <path class="cls-3" d="m272.36,81.88c0-6.73-.02-13.45,0-20.18,0-2.87.17-2.99,3-3,5.13,0,10.27.03,15.4-.02,1.55-.01,2.25.5,2.22,2.15-.09,5.36.55,4.76-4.69,4.79-2.18.01-4.37.02-6.55,0-1.11-.01-1.63.49-1.63,1.59,0,3.07.02,6.14-.01,9.2-.01,1.33.66,1.74,1.88,1.72,2.48-.04,4.96.03,7.43-.02,1.33-.03,1.97.48,2,1.83.12,5.98.09,5.02-4.64,5.09-1.65.02-3.3.03-4.96,0-1.19-.02-1.72.54-1.72,1.72.02,3.19.02,6.37,0,9.56,0,1.22.61,1.66,1.77,1.65,3.01-.03,6.02.04,9.03-.02,1.53-.03,2.11.57,2.08,2.09-.1,5.15.64,4.83-4.69,4.83-4.48,0-8.97.01-13.45,0-2.17,0-2.46-.27-2.47-2.45-.03-6.84-.01-13.69-.01-20.53Z"/>
      <path class="cls-2" d="m333.84,137.61c0-6.79,0-13.57,0-20.36,0-2.38.17-2.54,2.5-2.55,2.95-.01,5.9-.05,8.85.02,6.43.15,10.21,3.41,11.38,9.72.64,3.48.56,6.95-.41,10.34-1.38,4.85-4.65,7.5-9.68,8-1.06.11-2.12.29-3.17.24-1.76-.08-2.21.78-2.19,2.38.06,4.31-.02,8.62.03,12.92.02,1.57-.53,2.24-2.16,2.21-5.93-.09-5.1.6-5.14-5.05-.04-5.96,0-11.92,0-17.88Zm7.3-8.85h0c0,1.88-.01,3.77,0,5.65,0,.72.07,1.42.89,1.75,2.56,1.04,6.26-.77,6.99-3.45.51-1.84.52-3.73.39-5.62-.29-4.2-2.07-5.72-6.26-5.63-1.55.03-2.09.7-2.04,2.17.06,1.71.01,3.42.01,5.12Z"/>
      <path class="cls-3" d="m231.51,193.43c0-6.85,0-13.69,0-20.54,0-2.26.26-2.52,2.57-2.53,5.19-.02,10.39-.02,15.58,0,2.21,0,2.48.28,2.5,2.43.05,5.28.06,4.39-4.31,4.46-2.3.04-4.6.05-6.91,0-1.42-.03-1.84.64-1.82,1.96.05,2.89.05,5.78,0,8.68-.03,1.36.49,1.93,1.87,1.89,2.42-.06,4.84.04,7.26-.03,1.54-.04,2.27.48,2.24,2.14-.09,5.44.5,4.76-4.68,4.8-1.65.02-3.31.04-4.96,0-1.18-.03-1.73.44-1.72,1.66.03,3.19.03,6.37,0,9.56-.01,1.21.51,1.7,1.7,1.69,3.07-.03,6.14.04,9.21-.02,1.52-.03,2.13.61,2.13,2.1.03,5.59.19,4.81-4.5,4.84-4.6.03-9.21.02-13.81,0-2.08,0-2.34-.27-2.35-2.36-.02-6.91,0-13.81,0-20.72Z"/>
      <path class="cls-3" d="m241.89,114.65c2.77,0,5.55.04,8.32-.02,1.35-.03,1.88.53,1.97,1.86.33,5.02.33,5.05-4.67,5.05-2.18,0-4.37.03-6.55,0-1.25-.02-1.84.46-1.82,1.77.05,2.95.04,5.9,0,8.85-.01,1.21.53,1.7,1.71,1.7,2.54-.02,5.07.03,7.61,0,1.38,0,2.04.54,2.03,2-.07,5.7.56,4.81-4.72,4.89-1.47.02-2.95.07-4.42-.01-1.56-.09-2.27.43-2.22,2.1.09,2.95.07,5.9,0,8.85-.03,1.44.5,2.03,1.96,2,2.89-.06,5.78.04,8.67-.03,1.73-.04,2.44.63,2.44,2.39-.02,5.38.07,4.48-4.44,4.52-4.66.04-9.32-.05-13.98.03-1.71.03-2.28-.64-2.27-2.29.03-13.81.03-27.61,0-41.42,0-1.64.53-2.36,2.25-2.29,2.71.1,5.43.03,8.14.03Z"/>
      <path class="cls-2" d="m270.48,137.61c0-6.84,0-13.69,0-20.53,0-2.16.2-2.36,2.31-2.37,5.25-.02,10.5.04,15.75-.03,1.68-.02,2.32.6,2.28,2.28-.12,4.7.52,4.53-4.5,4.52-2.12,0-4.25.03-6.37,0-1.29-.02-2,.47-1.99,1.85.03,2.89.03,5.78,0,8.67-.01,1.35.61,1.92,1.94,1.9,2.36-.03,4.72.04,7.08,0,1.52-.02,2.24.56,2.31,2.17.22,4.62.26,4.62-4.37,4.62-1.71,0-3.42.03-5.13,0-1.14-.02-1.81.42-1.81,1.63,0,3.24,0,6.49,0,9.73,0,1.34.81,1.69,1.97,1.68,2.83-.01,5.67.05,8.5,0,1.74-.04,2.4.66,2.37,2.42-.08,4.85.3,4.35-4.24,4.37-4.31.02-8.61,0-12.92,0q-3.18,0-3.19-3.27c0-6.55,0-13.1,0-19.65Z"/>
      <path class="cls-2" d="m391.9,137.56c0-6.96.03-13.93-.03-20.89-.01-1.48.55-1.99,1.97-1.98,5.49.04,10.98.03,16.47,0,1.33,0,1.89.53,1.96,1.88.27,4.91.3,4.91-4.65,4.91-2.07,0-4.13.06-6.2,0-1.57-.05-2.27.55-2.23,2.17.07,2.71.06,5.43,0,8.14-.03,1.5.56,2.16,2.08,2.13,2.36-.05,4.72.03,7.08,0,1.56-.02,2.21.63,2.19,2.23-.06,5.11.35,4.51-4.41,4.55-1.59.01-3.19.05-4.78,0-1.48-.06-2.18.52-2.16,2.05.04,3.01.04,6.02,0,9.03-.02,1.46.67,1.99,2.05,1.98,2.89-.03,5.78.04,8.68-.01,1.62-.03,2.36.56,2.34,2.27-.06,5.12.27,4.48-4.46,4.51-4.54.02-9.09-.04-13.63.03-1.68.03-2.3-.59-2.28-2.28.06-6.9.02-13.81.02-20.71,0,0-.02,0-.03,0Z"/>
      <path class="cls-2" d="m372.97,193.46c0,4.13-.04,8.26.02,12.39.02,1.7.42,3.32,2.21,4.11,2.43,1.06,4.88-.31,5.34-3.17.44-2.74.54-2.82,3.47-2.3,4.14.74,4.29.98,3.18,5.06-1.4,5.15-5.89,8.07-11.51,7.5-6.32-.64-9.82-4.18-10.22-10.56-.54-8.66-.54-17.34.02-26,.58-8.99,9.73-13.67,17.52-9.03,3.39,2.02,4.4,5.37,4.72,9.03.07.83-.39,1.33-1.2,1.5-.58.12-1.16.21-1.74.31q-3.41.61-4.31-2.61c-.59-2.11-2.02-3.1-4.22-2.9-1.91.17-3.16,1.44-3.22,3.76-.11,4.3-.03,8.61-.03,12.92,0,0-.02,0-.03,0Z"/>
      <path class="cls-3" d="m252.54,84.91c0-5.78-.04-11.56.03-17.34.02-1.5-.5-2.01-1.94-1.94-1.47.07-2.95,0-4.42,0-1.07,0-1.64-.47-1.63-1.6.04-6.15-.72-5.26,4.83-5.3,5.49-.04,10.97-.02,16.46,0,2.21,0,2.38.15,2.36,2.27-.05,5.22.6,4.62-4.61,4.65-3.33.02-3.33,0-3.33,3.27,0,10.91,0,21.83,0,32.74,0,3.13-.1,3.24-3.13,3.22-4.79-.03-4.63.57-4.63-4.57,0-5.13,0-10.26,0-15.4h.02Z"/>
      <path class="cls-2" d="m326.5,193.5c0-6.79,0-13.57,0-20.36,0-2.46.26-2.72,2.76-2.74,5.37-.04,4.71-.22,4.72,4.62.02,10.68,0,21.36.01,32.04,0,2.48.1,2.57,2.62,2.58,2.71,0,5.43.05,8.14-.01,1.55-.03,2.23.55,2.29,2.15.18,4.62.18,4.66-4.4,4.66-4.48,0-8.97,0-13.45,0-2.48,0-2.69-.21-2.7-2.76-.01-6.73,0-13.45,0-20.18Z"/>
      <path class="cls-3" d="m201.72,81.79c0-6.9,0-13.8,0-20.71,0-2.17.19-2.35,2.29-2.37,1.24-.01,2.48,0,3.72.02,1.01,0,1.51.54,1.56,1.53.03.53.04,1.06.04,1.59,0,13.33,0,26.67,0,40,0,2.87-.15,3.02-2.97,3.02-5.49.02-4.59.18-4.63-4.67-.05-6.14-.01-12.27,0-18.41Z"/>
      <path class="cls-2" d="m399.53,193.47c0,6.84,0,13.68,0,20.52,0,2.23-.2,2.45-2.42,2.44-5.48-.02-5.07.65-5.07-4.99,0-12.68,0-25.36,0-38.04,0-2.84.16-3,3-3.01,5.15-.02,4.47-.1,4.49,4.49.03,6.19,0,12.38,0,18.58Z"/>
      <path class="cls-2" d="m351.62,193.33c0-6.73,0-13.46,0-20.18,0-2.46.25-2.71,2.75-2.74,5.44-.06,4.73-.02,4.74,4.65.02,12.81.01,25.61,0,38.42,0,2.83-.15,2.97-3.03,2.97-4.82,0-4.48.35-4.48-4.52,0-6.2,0-12.39,0-18.59Z"/>
    </g>
  </g>
</svg>