<?xml version="1.0" encoding="utf-8"?>
<!-- Generator: $$$/GeneralStr/196=Adobe Illustrator 27.6.0, SVG Export Plug-In . SVG Version: 6.00 Build 0)  -->
<svg version="1.1" id="Capa_1" xmlns="http://www.w3.org/2000/svg" xmlns:xlink="http://www.w3.org/1999/xlink" x="0px" y="0px"
	 viewBox="0 0 562 193.9" style="enable-background:new 0 0 562 193.9;" xml:space="preserve">
<style type="text/css">
	.st0{fill:#FFFFFF;}
	.st1{fill:#019839;}
	.st2{fill:#263571;}
	.st3{fill:#9BD5EA;}
	.st4{fill:#CCAA52;}
	.st5{fill:#E42320;}
	.st6{fill:#F39C8E;}
	.st7{fill:#97CA92;}
	.st8{fill:#EEE420;}
</style>
<g>
	<path class="st0" d="M501.7,120.5v-1.2c0,0,36.6,0,39,0s8.1,0.1,12.6,5.3c4.5,5.3,4.8,8.8,4.8,10.6s0,15.9,0,15.9h-10
		c0,0,0,3.7,0,4.9c0,1.2-0.7,9-5.7,13c-4.6,3.7-7.2,4-13.6,4c-6.4,0-53.6,0-53.6,0s1.9-3.6,1.2-4.7c-0.7-1.1-1.5-1.2-1.5-1.2
		s0.7-3.3-0.7-4S472,163,472,163s0.6-3.4-1.2-3.3c-1.8,0.1-1.9,4.2-1.2,7.4c0.7,3.2,1.3,6.1,1.3,6.1s-4.6-5.6-4.8-9.9
		s2.9-10.3,7.2-14.2c4.3-3.9,6.1-4.3,6.1-5.1s-2.2,0.1-2.2-0.5s1.1-3.1,2.6-3.3c1.5-0.3,2.9-0.3,2.9-0.3s2.7-2.6,3.9-3.9
		s3.8-1.8,3.5-6c-0.4-4.2-2.5-5.6-2.5-5.6s4.2,2.6,5.8,2.1c1.6-0.5,1.5-5.5,1.5-5.5s2.6,2.8,4.3,2.4S501.7,120.5,501.7,120.5z"/>
	<path class="st1" d="M477.7,171.9c0,0,50.5,0,53.6,0s8.3-0.9,12-5.7c3.7-4.9,4.1-9.6,4.1-11.5s0-3.5,0-3.5h-3.9
		c0,0-0.3,0.7,0.2,2.4c0.5,1.6,0.3,2.2,0.8,2.8s1.1,1.2,0.6,2s-1.2,0.7-2.3,0.3c-1.1-0.5-3-1.8-5.3-1.8c-2.4,0.1-3.2,0.6-3.2,0.6
		s0.6,1.4,2.7,2.3s3.6,0.7,4.1,1.8s0.3,3.2-2.1,3.2s-3.6-0.8-3.9-0.8s-0.2,0.5-3.4,0.3c-3.1-0.2-7.4-1.9-10.6-3.4s-6.6-3.7-6.6-3.7
		s-1.3-0.3-2-0.3s-1.4,0.3-1.7,0.5c-0.3,0.2-0.7,0.4-0.9,0.4c-0.2,0-0.4-1.6-1.6-1.6c-1.2,0-1.3,0.4-3.1,0.2
		c-1.8-0.2-1.6-0.7-1.6-0.7s2-1.2,2.6-2c0.6-0.7,1.1-1.9-0.2-2.6c-1.3-0.7-7.3-3.8-12.4-3.2c-5.5,0.6-10.8,4.9-11.9,10.7
		s0.2,7.4-1.4,9.9C478.7,171,477.7,171.9,477.7,171.9z"/>
	<g>
		<g>
			<path class="st2" d="M97.2,80.8c-0.6,1.5-4.2,10.7-4.5,12c-0.1,0.4-0.2,1-0.2,1.3c0,0.8,0.8,1.3,2.2,1.3h3.1
				c0.5,0,0.6,0.1,0.6,0.4v1.4c0,0.4-0.2,0.5-0.5,0.5c-0.9,0-3.6-0.2-7.4-0.2c-4.7,0-6.2,0.2-7.1,0.2c-0.3,0-0.5-0.1-0.5-0.5v-1.5
				c0-0.3,0.3-0.4,0.5-0.4h2.3c1.9,0,2.9-0.8,3.8-2.8c0.5-1,5.2-12.2,7.1-17.2c0.5-1.2,5.7-14.2,6.3-15.9c0.2-0.6,0.5-1.4,0.1-2.1
				c-0.2-0.2-0.5-0.5-0.5-0.8c0-0.2,0.1-0.4,0.6-0.5c1.8-0.4,4.7-2.2,5.4-3c0.3-0.3,0.5-0.5,0.8-0.5c0.4,0,0.5,0.4,0.7,1
				c1.2,3.8,6.3,17.4,7.5,21.3c1.5,4.7,5.7,16,6.6,17.8c1.1,2,2.8,2.7,4.4,2.7h2.1c0.4,0,0.5,0.2,0.5,0.4v1.5c0,0.3-0.2,0.4-0.6,0.4
				c-1.2,0-2.5-0.2-7.8-0.2c-5.4,0-7.7,0.2-9.2,0.2c-0.3,0-0.5-0.2-0.5-0.5v-1.4c0-0.4,0.2-0.4,0.6-0.4h1.6c1.8,0,2.4-0.6,1.9-2.3
				c-0.5-2.2-3.2-9.9-4.1-12.4H97.2z M112.4,78.6c-0.6-1.8-5.8-17-6.2-17.9c-0.2-0.4-0.3-0.8-0.5-0.8c-0.3,0-0.5,0.4-0.7,0.9
				c-0.3,0.8-6.5,16.3-6.9,17.8H112.4z"/>
		</g>
	</g>
	<g>
		<g>
			<path class="st3" d="M325.4,70c0.5,0,7.5-0.3,8.2-0.4c1.9-0.3,2.4-0.9,3-2.9c0.2-0.7,0.5-2,0.5-3.3c0-0.3,0.2-0.5,0.5-0.5
				l1.6,0.1c0.3,0,0.5,0.3,0.4,0.5c-0.2,1.1-0.2,6.6-0.2,7.6c0,2.3,0.3,5.5,0.4,6.9c0,0.3-0.1,0.5-0.4,0.5l-1.4,0.2
				c-0.3,0.1-0.5-0.1-0.5-0.6c-0.1-0.9-0.5-2.4-0.7-3.1c-0.4-1.4-1.1-2.4-2.8-2.6c-3.1-0.3-7.5-0.3-8.6-0.3v4.1
				c0,3.6,0.1,10,0.1,11.4c0.1,3.5,1.7,4.8,3.7,5.2c1.3,0.3,3.2,0.5,4.8,0.5c1.1,0,4.3-0.1,5.7-0.2c1.1-0.1,4-0.9,5.6-2.3
				c0.8-0.7,4.4-5.4,5.3-7c0.2-0.3,0.4-0.6,0.8-0.4l1,0.6c0.3,0.2,0.3,0.4,0.1,0.9l-3.4,9.8c-0.2,0.6-0.6,1-1.4,1
				c-0.3,0-1.8-0.1-5.6-0.1c-3.9,0-10.2-0.1-20.3-0.1c-2.4,0-4.2,0.1-5.5,0.1c-1.4,0.1-2.2,0.1-2.8,0.1c-0.4,0-0.6-0.1-0.6-0.5v-1.8
				c0-0.3,0.2-0.3,0.6-0.3h2.6c3,0,3.2-0.5,3.2-2.9V67.9c0-5.5-0.1-13.8-0.2-14.5c-0.3-2.1-0.9-2.6-3.3-2.6h-2.3
				c-0.3,0-0.5-0.1-0.5-0.5v-1.8c0-0.2,0.1-0.3,0.5-0.3c1.4,0,3.7,0.2,8,0.2h2.9c6.4,0,12.9-0.1,19.3-0.1c1,0,2.3-0.1,2.6-0.1
				c0.3,0,0.5,0.1,0.5,0.3l3.3,10.7c0.1,0.3,0.1,0.5-0.2,0.6l-1,0.5c-0.2,0.1-0.5-0.1-0.5-0.2c-0.1-0.3-4.9-6.6-6.5-7.6
				c-1.4-0.9-3.2-1.7-4.9-1.8l-11.6-0.3V70z"/>
		</g>
	</g>
	<g>
		<g>
			<path class="st2" d="M336.9,44.8c-5.3,3.2-11.4,1-12.6,0.5c-0.3-0.2-0.8-0.3-1-0.6c-0.2-0.4-0.2-0.6,0.1-0.8
				c0.3-0.2,0.4-0.2,1-0.1c1.7,0.4,5.5,1,8.2-0.7c0.7-0.4,1.1-1.2,1-1.7c-0.1-0.6-0.7-3,1.8-4.5c1.3-0.8,2.9-0.5,3.9,1.1
				C340.3,39.6,340.1,42.9,336.9,44.8z"/>
		</g>
	</g>
	<g>
		<g>
			<path class="st2" d="M46.6,95.7c1.3-1.4,10.3-24,11.1-25.2c0.6-1.3,10.5-23.5,10.8-25.4c0.2-1,1.2-1.1,2.1-1.1
				c12.1,0,15.1-0.3,16.1-0.3c0.5,0,0.5,0.3,0.5,0.7v2.2c0,0.6-0.1,0.9-0.7,0.9h-4c-2.7,0-3,1.7-3,3.9c0,2.7-0.3,16.3-0.3,22.6v6.6
				c0,4.7,0.3,20,0.3,21.9c0,3.6,0.8,5.1,3.1,5.1h5.3c0.5,0,0.6,0.3,0.6,0.7v2.2c0,0.6-0.1,0.9-0.8,0.9c-1.1,0-2.7-0.3-12.7-0.3
				c-8.3,0-11.9,0.3-13.1,0.3c-0.6,0-0.7-0.3-0.7-0.9v-2.2c0-0.5,0.1-0.7,0.7-0.7h6.2c1.5,0,2.4-0.6,2.5-3.4
				c0.1-1.1,0.2-17.6,0.2-24.6v-6c0-6.2,0-23.1-0.3-23.9h-0.2c-0.9,1.2-13.8,31-14.2,31.9c-0.5,1.1-10.6,25.2-11,26.1
				c-0.4,0.9-1.1,2.3-1.8,2.3c-0.5,0-1-0.8-1.4-1.7L29.8,76.4c-1.7-4.3-10-25.5-11.2-26.6C18.2,51.1,18,75,18,76.1
				c0,1.1-0.1,21.1,0.2,24.4c0.5,5.4,1.3,6.9,4.2,6.9h4.5c0.5,0,0.6,0.3,0.6,0.7v2.4c0,0.4-0.1,0.7-0.8,0.7c-1,0-3.4-0.3-11-0.3
				c-7.7,0-10.9,0.3-11.7,0.3c-0.7,0-0.8-0.1-0.8-0.9V108c0-0.3,0.1-0.6,0.5-0.6h4.8c3.4,0,4.3-2.5,4.8-5.7
				c1.1-6.7,1.4-30.9,1.4-32.6c0-1.3,0-15.6-0.1-18.3c-0.1-2.2,0-3.5-3.7-3.5H5.4c-0.5,0-0.6-0.3-0.6-0.7v-2.5
				c0-0.3,0.1-0.6,0.6-0.6c0.9,0,3.4,0.3,11.1,0.3c4.3,0,6.6-0.3,7.7-0.3c1.4,0,1.9,0.4,2.4,1.6L46.6,95.7z"/>
		</g>
	</g>
	<g>
		<g>
			<path class="st2" d="M138.8,67.8c0-7,0-13-0.1-15.8c-0.1-3.1-1.2-4.7-3.6-4.7h-3.8c-0.5,0-0.6-0.3-0.6-0.7v-2.4
				c0-0.5,0.1-0.7,0.6-0.7c0.9,0,3.8,0.3,11.7,0.3c5.3,0,14.1-0.3,15.8-0.3c7.8,0,14.1,2.4,17.7,5.8c3.1,3,4.9,7.3,4.9,10.8
				c0,11.8-5.4,16.3-17.5,18.9v0.2c2.3,0.9,3.6,2.6,4.3,3.6c1.1,1.2,7.8,10.9,8.6,12.1c0.5,0.9,6.5,9.5,8.3,10.9
				c2,1.4,4.2,1.6,6.8,1.6c0.7,0,0.8,0.4,0.8,0.8v2.1c0,0.6-0.1,0.9-0.8,0.9c-0.8,0-3.2-0.3-7.4-0.3c-2.7,0-6.2,0.2-7.7,0.3
				c-1-0.9-3.1-4.2-4-5.4c-0.8-1.1-5.9-10.1-6.3-10.9c-0.4-0.7-4.9-7.5-6-8.8c-2.5-2.9-4.7-5.5-10.2-5.5c-0.9,0-1.8,0-3.1,0.3v5.3
				c0,5.6,0.1,16.2,0.2,17.6c0.2,2,0.9,3.7,2.4,3.7h6c0.7,0,0.8,0.3,0.8,0.8v2.1c0,0.7-0.1,0.9-1,0.9c-1,0-3.4-0.3-12.4-0.3
				c-8.6,0-10.8,0.3-11.8,0.3c-0.8,0-0.8-0.3-0.8-0.8v-2.2c0-0.5,0-0.8,0.5-0.8h3.9c2.1,0,3.7-0.7,3.7-3.2
				c0.2-9.4,0.2-18.2,0.2-27.2V67.8z M147.3,77.2c1.4,0.3,2.5,0.4,4.3,0.4c17.2,0,20.5-11.8,20.5-15.8c0-4.3-2-8.5-4.7-10.8
				c-3.7-2.9-7.8-4.3-15.7-4.3c-1.1,0-2.4,0.2-3.2,0.8c-0.7,0.5-1.1,1.5-1.1,3V77.2z"/>
		</g>
	</g>
	<path class="st2" d="M554.5,95.4h-2.1c-1.6,0-3.3-0.7-4.4-2.7c-0.9-1.8-5.1-13-6.6-17.8c-1.2-3.9-6.3-17.5-7.5-21.3
		c-0.2-0.7-0.3-1-0.7-1c-0.3,0-0.5,0.2-0.8,0.5c-0.7,0.8-3.6,2.7-5.4,3c-0.5,0.1-0.6,0.4-0.6,0.5c0,0.2,0.3,0.5,0.5,0.8
		c0.5,0.7,0.1,1.5-0.1,2.1c-0.6,1.6-5.8,14.7-6.3,15.9c-1.9,5-6.6,16.2-7.1,17.2c-0.2,0.4-0.8,2.5-1,2.8c0,0,0,0,0,0
		c-4.5,5.9-12.7,11.4-23.2,11.4c-6.4,0-11.9-0.8-18.4-7.9c-7.5-8.1-9.2-18.8-9.2-24.3c-0.1-13.8,6.8-28.8,23.9-28.8
		c7.6,0,12.6,3.2,16.7,7.3c4,4.1,6.1,8.6,7.5,11.7c0.3,0.8,0.5,0.9,1,0.8l1.4-0.4c0.4-0.1,0.5-0.5,0.4-0.9
		c-0.5-2.6-2.4-16.5-2.4-18.3c0-1.3-0.2-1.5-1.1-1.5c-0.9,0-1.1,0-1.2,0.6l-0.8,2.7c-0.2,0.7-0.7,0.8-1.9,0
		c-3.4-2-10.6-5.2-19.4-5.2c-10.4,0-19.1,4.4-23.9,9.5c-6.9,7.2-9.8,16.3-9.8,25c0,9.1,3.4,20,10.3,26.5c5.7,5.2,12.9,8.7,24.2,8.7
		c13.5,0,22.8-7.6,28.5-15.9c-0.2,0.4-0.5,1.1,0,0c0-0.1,0.1-0.1,0.1-0.2c0,0,0-0.1,0.1-0.1c0,0,0,0,0,0.1c0,0,0,0,0,0
		c0,0,0,0,0-0.1c0.1-0.3,1.4-2.9,1.4-3.3c0.3-1.3,3.9-10.5,4.5-12h16c0.9,2.4,3.6,10.2,4.1,12.4c0.5,1.7-0.1,2.3-1.9,2.3h-1.6
		c-0.4,0-0.6,0.1-0.6,0.4v1.4c0,0.4,0.2,0.5,0.5,0.5c1.5,0,3.8-0.2,9.2-0.2c5.3,0,6.6,0.2,7.8,0.2c0.5,0,0.6-0.1,0.6-0.4v-1.5
		C555,95.6,554.9,95.4,554.5,95.4z M521.9,78.6c0.5-1.5,6.6-17,6.9-17.8c0.2-0.5,0.5-0.9,0.7-0.9c0.2,0,0.3,0.4,0.5,0.8
		c0.3,0.9,5.6,16.1,6.2,17.9H521.9z"/>
	<path class="st3" d="M225.7,71.2c0-2.3-0.3-19.3-0.4-20.7c-0.2-2.3-1.2-3.2-5-3.2h-5.8c-0.5,0-0.8-0.2-0.8-0.6v-2.6
		c0-0.4,0.3-0.6,0.7-0.6c1.2,0,6.3,0.3,15.5,0.3c8.9,0,12.1-0.3,13.5-0.3c0.5,0,0.7,0.3,0.7,0.7v2.4c0,0.5-0.3,0.7-0.8,0.7h-4.7
		c-2,0-3.5,0.8-3.5,2.6c0,0.9-0.3,21.8-0.3,23v7.3c0,0.9,0.3,22.8,0.3,23.8c0,2.9,1.5,3.4,4.7,3.4h4.1c0.5,0,0.8,0.2,0.8,0.7v2.5
		c0,0.4-0.3,0.6-0.9,0.6c-1.2,0-5.2-0.3-13.9-0.3c-9.5,0-13.8,0.3-14.8,0.3c-0.5,0-0.8-0.2-0.8-0.6V108c0-0.4,0.3-0.6,0.8-0.6h5.6
		c2,0,4.1-0.3,4.5-2.7c0.2-1.4,0.5-21.8,0.5-26.8V71.2z"/>
	<path class="st2" d="M445,107.4h-4.1c-3.2,0-4.7-0.5-4.7-3.4c0-1-0.3-22.9-0.3-23.8v-7.3c0-1.1,0.3-22,0.3-23
		c0-1.9,1.5-2.6,3.5-2.6h4.7c0.5,0,0.8-0.2,0.8-0.7v-2.4c0-0.4-0.2-0.7-0.7-0.7c-1.4,0-4.6,0.3-13.5,0.3c-9.3,0-14.3-0.3-15.5-0.3
		c-0.4,0-0.7,0.2-0.7,0.6v2.6c0,0.4,0.3,0.6,0.8,0.6h5.8c3.8,0,4.8,0.9,5,3.2c0.1,1.4,0.4,18.4,0.4,20.7v6.6c0,5-0.3,25.4-0.5,26.8
		c-0.4,2.5-2.5,2.7-4.5,2.7H419c-2.6,0-4.8-0.2-6.8-1.6c-1.8-1.3-7.8-9.9-8.3-10.9c-0.8-1.2-7.5-10.9-8.6-12.1
		c-0.8-1-2.1-2.7-4.3-3.6v-0.2c12.1-2.6,17.5-7.1,17.5-18.9c0-3.5-1.8-7.7-4.9-10.8c-3.6-3.4-9.8-5.8-17.7-5.8
		c-1.7,0-10.5,0.3-15.8,0.3c-7.9,0-10.9-0.3-11.7-0.3c-0.5,0-0.6,0.2-0.6,0.7v2.4c0,0.4,0.1,0.7,0.6,0.7h3.8c2.4,0,3.5,1.6,3.6,4.7
		c0.1,2.7,0.1,8.8,0.1,15.8V77c0,9,0,17.9-0.2,27.2c0,2.6-1.6,3.2-3.7,3.2h-3.9c-0.5,0-0.5,0.3-0.5,0.8v2.2c0,0.5,0,0.8,0.8,0.8
		c1,0,3.2-0.3,11.8-0.3c9,0,11.3,0.3,12.4,0.3c0.9,0,1-0.2,1-0.9v-2.1c0-0.5-0.1-0.8-0.8-0.8h-6c-1.4,0-2.2-1.7-2.4-3.7
		c-0.1-1.4-0.2-12-0.2-17.6v-5.3c1.3-0.3,2.3-0.3,3.1-0.3c5.5,0,7.8,2.6,10.2,5.5c1.1,1.3,5.7,8.1,6,8.8c0.5,0.8,5.6,9.7,6.3,10.9
		c0.9,1.2,2.9,4.4,4,5.4c1.4-0.1,4.9-0.3,7.7-0.3c1.5,0,2.8,0,3.9,0.1c0.1,0.1,0.4,0.2,0.6,0.2c0.3,0,0.9,0,1.8-0.1
		c0.5,0,0.8,0.1,1.1,0.1c0.2,0,0.4,0,0.5-0.1c2.4-0.1,6.1-0.2,11.5-0.2c8.7,0,12.7,0.3,13.9,0.3c0.6,0,0.9-0.2,0.9-0.6v-2.5
		C445.8,107.6,445.5,107.4,445,107.4z M378.6,77.6c-1.8,0-2.8-0.1-4.3-0.4V50.4c0-1.5,0.5-2.6,1.1-3c0.9-0.6,2.1-0.8,3.2-0.8
		c7.8,0,12,1.4,15.7,4.3c2.7,2.3,4.7,6.4,4.7,10.8C399.1,65.8,395.8,77.6,378.6,77.6z"/>
	<path class="st3" d="M260.8,69.7c0-3.5-0.2-15-0.3-16.7c-0.3-5.5-2-5.7-7-5.7h-3.3c-0.6,0-0.9-0.2-0.9-0.7v-2.4
		c0-0.5,0.2-0.7,0.9-0.7c1.7,0,6.5,0.3,14.3,0.3c3.4,0,9.9-0.3,13.6-0.3c8.4,0,15.2,0.7,19,2.6c6.1,2.9,8.3,7.3,8.3,12.8
		c0,9.4-4.7,11.7-13.1,15.6l0.3,0.2c10.4,3,17.4,8.7,17.4,18.7c0,4.8-3.3,11.4-8.3,14.2c-4.5,2.5-10.6,3.4-20.5,3.4
		c-7.4,0-11.6-0.3-16.1-0.3c-5.4,0-11.7,0.3-13.7,0.3c-1.3,0-1.5-0.2-1.5-0.6v-2.5c0-0.5,0.2-0.7,1-0.7h5.2c3.3,0,3.9-1.1,4.3-4.2
		c0.3-2.2,0.5-14.6,0.5-22.4V69.7z M270.2,73.4c2,0.2,3.9,0.2,5.7,0.2c6.1,0,10.9-0.9,13.5-2.5c4.4-2.9,6-7.2,6-11.3
		c0-3.6-1.3-7.4-5.3-9.9c-3.9-2.4-9.2-3.2-14.7-3.2c-1.5,0-2.7-0.1-3.5,0.1c-0.9,0.2-1.5,0.9-1.5,1.7c-0.1,1.9-0.2,10.1-0.2,18V73.4
		z M270.2,95.5c0,8.7,2.4,12.6,11.3,12.6c9,0,17.3-3.8,17.3-15c0-7.7-4.4-12.7-10.7-14.8c-4.4-1.5-9.4-1.6-14.4-1.6h-3.4V95.5z"/>
	<path class="st2" d="M5.5,130.9c0.7,0.4,1.8,0.7,2.9,0.7c1.2,0,2.4-0.6,2.4-1.6c0-0.7-0.6-1.2-1.8-1.8c-1.5-0.7-2.6-1.6-2.6-2.9
		c0-2.1,2.1-3.4,4.7-3.4c1.4,0,2.4,0.3,2.9,0.6l-0.7,1.6c-0.4-0.2-1.3-0.5-2.3-0.5c-1.4,0-2.2,0.7-2.2,1.4c0,0.7,0.7,1.2,1.9,1.8
		c1.6,0.7,2.5,1.6,2.5,2.9c0,2.2-2.1,3.5-4.9,3.5c-1.6,0-2.8-0.4-3.4-0.8L5.5,130.9z"/>
	<path class="st2" d="M22.3,128.2h-4.6l-0.7,3.3h5.2l-0.4,1.6h-7.4l2.4-11H24l-0.4,1.6h-4.9l-0.6,2.9h4.6L22.3,128.2z"/>
	<path class="st2" d="M26.3,122.1h2.2l-2.1,9.3h5l-0.4,1.7h-7.3L26.3,122.1z"/>
	<path class="st2" d="M40.7,128.2h-4.6l-0.7,3.3h5.2l-0.4,1.6h-7.4l2.4-11h7.1l-0.4,1.6H37l-0.6,2.9H41L40.7,128.2z"/>
	<path class="st2" d="M51.5,132.7c-0.7,0.3-1.8,0.5-3.3,0.5c-3.3,0-5.5-1.8-5.5-4.6c0-2.3,1.1-4.2,3-5.4c1.3-0.9,2.9-1.3,4.8-1.3
		c1.4,0,2.4,0.3,2.8,0.5l-0.6,1.5c-0.4-0.2-1.3-0.4-2.4-0.4c-1.2,0-2.4,0.4-3.3,1c-1.1,0.8-1.8,2.2-1.8,3.8c0,1.8,1.1,3.2,3.6,3.2
		c0.9,0,1.9-0.1,2.6-0.4L51.5,132.7z"/>
	<path class="st2" d="M57.7,122.1l-2.4,11H53l2.4-11H57.7z"/>
	<path class="st2" d="M70.3,126.5c0,2-0.8,4-2.3,5.2c-1.2,1-2.7,1.5-4.6,1.5c-3.3,0-5-2.1-5-4.5c0-2,0.9-4,2.4-5.3
		c1.2-1,2.8-1.5,4.5-1.5C68.7,121.9,70.3,124,70.3,126.5z M62.5,124.5c-1.1,1-1.8,2.7-1.8,4.2c0,1.7,0.9,3,3,3
		c0.9,0,1.8-0.3,2.5-0.9c1.1-0.9,1.7-2.8,1.7-4.2c0-1.4-0.6-3-2.9-3C64,123.5,63.1,123.9,62.5,124.5z"/>
	<path class="st2" d="M71,133.1l2.4-11H76l2.2,5.1c0.6,1.3,0.9,2.3,1.2,3.4h0c0.1-1.1,0.2-2.1,0.6-3.7l1.1-4.8h2.1l-2.4,11h-2.3
		l-2.3-5.2c-0.6-1.4-0.9-2.3-1.2-3.5l-0.1,0c-0.1,1-0.4,2.4-0.7,4l-1,4.7H71z"/>
	<path class="st2" d="M86.5,129.9l-1.7,3.1h-2.4l6.4-11h2.8l1.6,11h-2.3l-0.4-3.1H86.5z M90.4,128.5l-0.4-2.7
		c-0.1-0.6-0.1-1.4-0.2-2.1h0c-0.3,0.7-0.7,1.4-1,2.1l-1.6,2.7H90.4z"/>
	<path class="st2" d="M105.4,133.1l0.9-5.2c0.2-1.1,0.5-2.7,0.8-4H107c-0.7,1.3-1.4,2.7-2.1,3.9l-3.2,5.2H100l-0.7-5.1
		c-0.2-1.2-0.3-2.6-0.3-3.9h0c-0.3,1.3-0.7,2.9-1,4l-1.5,5.2h-2.1l3.3-11h2.9l0.7,5.1c0.1,1,0.2,2.1,0.2,3.2h0.1
		c0.5-1,1.1-2.2,1.6-3.1l3.1-5.1h3l-1.7,11H105.4z"/>
	<path class="st2" d="M122.2,126.5c0,2-0.8,4-2.3,5.2c-1.2,1-2.7,1.5-4.6,1.5c-3.3,0-5-2.1-5-4.5c0-2,0.9-4,2.4-5.3
		c1.2-1,2.8-1.5,4.5-1.5C120.6,121.9,122.2,124,122.2,126.5z M114.4,124.5c-1.1,1-1.8,2.7-1.8,4.2c0,1.7,0.9,3,3,3
		c0.9,0,1.8-0.3,2.5-0.9c1.1-0.9,1.7-2.8,1.7-4.2c0-1.4-0.6-3-2.9-3C115.9,123.5,115.1,123.9,114.4,124.5z"/>
	<path class="st2" d="M123.3,130.9c0.7,0.4,1.8,0.7,2.9,0.7c1.2,0,2.4-0.6,2.4-1.6c0-0.7-0.6-1.2-1.8-1.8c-1.5-0.7-2.6-1.6-2.6-2.9
		c0-2.1,2.1-3.4,4.7-3.4c1.4,0,2.4,0.3,2.9,0.6l-0.7,1.6c-0.4-0.2-1.3-0.5-2.3-0.5c-1.4,0-2.2,0.7-2.2,1.4c0,0.7,0.7,1.2,1.9,1.8
		c1.6,0.7,2.5,1.6,2.5,2.9c0,2.2-2.1,3.5-4.9,3.5c-1.6,0-2.8-0.4-3.4-0.8L123.3,130.9z"/>
	<path class="st2" d="M151.6,126.5c0,2-0.8,4-2.3,5.2c-1.2,1-2.7,1.5-4.6,1.5c-3.3,0-5-2.1-5-4.5c0-2,0.9-4,2.4-5.3
		c1.2-1,2.8-1.5,4.5-1.5C150,121.9,151.6,124,151.6,126.5z M143.8,124.5c-1.1,1-1.8,2.7-1.8,4.2c0,1.7,0.9,3,3,3
		c0.9,0,1.8-0.3,2.5-0.9c1.1-0.9,1.7-2.8,1.7-4.2c0-1.4-0.6-3-2.9-3C145.3,123.5,144.5,123.9,143.8,124.5z"/>
	<path class="st2" d="M166.5,133.1l0.9-5.2c0.2-1.1,0.5-2.7,0.8-4h-0.1c-0.7,1.3-1.4,2.7-2.1,3.9l-3.2,5.2h-1.7l-0.7-5.1
		c-0.2-1.2-0.3-2.6-0.3-3.9h0c-0.3,1.3-0.7,2.9-1,4l-1.5,5.2h-2.1l3.3-11h2.9l0.7,5.1c0.1,1,0.2,2.1,0.2,3.2h0.1
		c0.5-1,1.1-2.2,1.6-3.1l3.1-5.1h3l-1.7,11H166.5z"/>
	<path class="st2" d="M178.9,128.2h-4.6l-0.7,3.3h5.2l-0.4,1.6H171l2.4-11h7.1l-0.4,1.6h-4.9l-0.6,2.9h4.6L178.9,128.2z"/>
	<path class="st2" d="M182.9,122.1h2.2l-2.1,9.3h5l-0.4,1.7h-7.3L182.9,122.1z"/>
	<path class="st2" d="M194,122.1l-1,4.4h5.2l1-4.4h2.2l-2.4,11h-2.2l1.1-4.8h-5.2l-1.1,4.8h-2.2l2.4-11H194z"/>
	<path class="st2" d="M214,126.5c0,2-0.8,4-2.3,5.2c-1.2,1-2.7,1.5-4.6,1.5c-3.3,0-5-2.1-5-4.5c0-2,0.9-4,2.4-5.3
		c1.2-1,2.8-1.5,4.5-1.5C212.4,121.9,214,124,214,126.5z M206.2,124.5c-1.1,1-1.8,2.7-1.8,4.2c0,1.7,0.9,3,3,3
		c0.9,0,1.8-0.3,2.5-0.9c1.1-0.9,1.7-2.8,1.7-4.2c0-1.4-0.6-3-2.9-3C207.7,123.5,206.9,123.9,206.2,124.5z"/>
	<path class="st2" d="M217.1,122.3c0.8-0.2,2-0.3,3.2-0.3c1.2,0,2.4,0.2,3.2,0.7c0.7,0.4,1.2,1.1,1.2,2c0,1.6-1.3,2.7-3,3.1l0,0
		c0.8,0.3,1.2,1,1.3,2.1c0.2,1.4,0.2,2.6,0.5,3.1h-2.3c-0.1-0.3-0.2-1.3-0.3-2.6c-0.1-1.4-0.7-1.9-1.9-1.9h-1.1l-1,4.5h-2.2
		L217.1,122.3z M218.3,127.1h1.3c1.7,0,2.9-0.9,2.9-2.1c0-1-0.9-1.5-2.2-1.5c-0.6,0-0.9,0-1.2,0.1L218.3,127.1z"/>
	<path class="st4" d="M232.7,130.9c0.7,0.4,1.8,0.7,2.9,0.7c1.2,0,2.4-0.6,2.4-1.6c0-0.7-0.6-1.2-1.8-1.8c-1.5-0.7-2.6-1.6-2.6-2.9
		c0-2.1,2.1-3.4,4.7-3.4c1.4,0,2.4,0.3,2.9,0.6l-0.7,1.6c-0.4-0.2-1.3-0.5-2.3-0.5c-1.4,0-2.2,0.7-2.2,1.4c0,0.7,0.7,1.2,1.9,1.8
		c1.6,0.7,2.5,1.6,2.5,2.9c0,2.2-2.1,3.5-4.9,3.5c-1.6,0-2.8-0.4-3.4-0.8L232.7,130.9z"/>
	<path class="st4" d="M249.5,128.2h-4.6l-0.7,3.3h5.2l-0.4,1.6h-7.4l2.4-11h7.1l-0.4,1.6h-4.9l-0.6,2.9h4.6L249.5,128.2z"/>
	<path class="st4" d="M253.4,122.1h2.2l-2.1,9.3h5l-0.4,1.7H251L253.4,122.1z"/>
	<path class="st4" d="M267.8,128.2h-4.6l-0.7,3.3h5.2l-0.4,1.6h-7.4l2.4-11h7.1l-0.4,1.6h-4.9l-0.6,2.9h4.6L267.8,128.2z"/>
	<path class="st4" d="M278.6,132.7c-0.7,0.3-1.8,0.5-3.3,0.5c-3.3,0-5.5-1.8-5.5-4.6c0-2.3,1.1-4.2,3-5.4c1.3-0.9,2.9-1.3,4.8-1.3
		c1.4,0,2.4,0.3,2.8,0.5l-0.6,1.5c-0.4-0.2-1.3-0.4-2.4-0.4c-1.2,0-2.4,0.4-3.3,1c-1.1,0.8-1.8,2.2-1.8,3.8c0,1.8,1.1,3.2,3.6,3.2
		c0.9,0,1.9-0.1,2.6-0.4L278.6,132.7z"/>
	<path class="st4" d="M289,132.7c-0.7,0.3-1.8,0.5-3.3,0.5c-3.3,0-5.5-1.8-5.5-4.6c0-2.3,1.1-4.2,3-5.4c1.3-0.9,2.9-1.3,4.8-1.3
		c1.4,0,2.4,0.3,2.8,0.5l-0.6,1.5c-0.4-0.2-1.3-0.4-2.4-0.4c-1.2,0-2.4,0.4-3.3,1c-1.1,0.8-1.8,2.2-1.8,3.8c0,1.8,1.1,3.2,3.6,3.2
		c0.9,0,1.9-0.1,2.6-0.4L289,132.7z"/>
	<path class="st4" d="M295.2,122.1l-2.4,11h-2.2l2.4-11H295.2z"/>
	<path class="st4" d="M307.8,126.5c0,2-0.8,4-2.3,5.2c-1.2,1-2.7,1.5-4.6,1.5c-3.3,0-5-2.1-5-4.5c0-2,0.9-4,2.4-5.3
		c1.2-1,2.8-1.5,4.5-1.5C306.2,121.9,307.8,124,307.8,126.5z M300,124.5c-1.1,1-1.8,2.7-1.8,4.2c0,1.7,0.9,3,3,3
		c0.9,0,1.8-0.3,2.5-0.9c1.1-0.9,1.7-2.8,1.7-4.2c0-1.4-0.6-3-2.9-3C301.5,123.5,300.7,123.9,300,124.5z"/>
	<path class="st4" d="M308.5,133.1l2.4-11h2.5l2.2,5.1c0.6,1.3,0.9,2.3,1.2,3.4h0c0.1-1.1,0.2-2.1,0.6-3.7l1.1-4.8h2.1l-2.4,11H316
		l-2.3-5.2c-0.6-1.4-0.9-2.3-1.2-3.5l-0.1,0c-0.1,1-0.4,2.4-0.7,4l-1,4.7H308.5z"/>
	<path class="st4" d="M324,129.9l-1.7,3.1h-2.4l6.4-11h2.8l1.6,11h-2.3l-0.4-3.1H324z M327.9,128.5l-0.4-2.7
		c-0.1-0.6-0.1-1.4-0.2-2.1h0c-0.3,0.7-0.7,1.4-1,2.1l-1.6,2.7H327.9z"/>
	<path class="st4" d="M342.9,133.1l0.9-5.2c0.2-1.1,0.5-2.7,0.8-4h-0.1c-0.7,1.3-1.4,2.7-2.1,3.9l-3.2,5.2h-1.7l-0.7-5.1
		c-0.2-1.2-0.3-2.6-0.3-3.9h0c-0.3,1.3-0.7,2.9-1,4l-1.5,5.2h-2.1l3.3-11h2.9l0.7,5.1c0.1,1,0.2,2.1,0.2,3.2h0.1
		c0.5-1,1.1-2.2,1.6-3.1l3.1-5.1h3l-1.7,11H342.9z"/>
	<path class="st4" d="M359.8,126.5c0,2-0.8,4-2.3,5.2c-1.2,1-2.7,1.5-4.6,1.5c-3.3,0-5-2.1-5-4.5c0-2,0.9-4,2.4-5.3
		c1.2-1,2.8-1.5,4.5-1.5C358.2,121.9,359.8,124,359.8,126.5z M351.9,124.5c-1.1,1-1.8,2.7-1.8,4.2c0,1.7,0.9,3,3,3
		c0.9,0,1.8-0.3,2.5-0.9c1.1-0.9,1.7-2.8,1.7-4.2c0-1.4-0.6-3-2.9-3C353.5,123.5,352.6,123.9,351.9,124.5z"/>
	<path class="st4" d="M360.9,130.9c0.7,0.4,1.8,0.7,2.9,0.7c1.2,0,2.4-0.6,2.4-1.6c0-0.7-0.6-1.2-1.8-1.8c-1.5-0.7-2.6-1.6-2.6-2.9
		c0-2.1,2.1-3.4,4.7-3.4c1.4,0,2.4,0.3,2.9,0.6l-0.7,1.6c-0.4-0.2-1.3-0.5-2.3-0.5c-1.4,0-2.2,0.7-2.2,1.4c0,0.7,0.7,1.2,1.9,1.8
		c1.6,0.7,2.5,1.6,2.5,2.9c0,2.2-2.1,3.5-4.9,3.5c-1.6,0-2.8-0.4-3.4-0.8L360.9,130.9z"/>
	<path class="st4" d="M375.7,122.1h2.2l-2.1,9.3h5l-0.4,1.7h-7.3L375.7,122.1z"/>
	<path class="st4" d="M393.7,126.5c0,2-0.8,4-2.3,5.2c-1.2,1-2.7,1.5-4.6,1.5c-3.3,0-5-2.1-5-4.5c0-2,0.9-4,2.4-5.3
		c1.2-1,2.8-1.5,4.5-1.5C392.1,121.9,393.7,124,393.7,126.5z M385.9,124.5c-1.1,1-1.8,2.7-1.8,4.2c0,1.7,0.9,3,3,3
		c0.9,0,1.8-0.3,2.5-0.9c1.1-0.9,1.7-2.8,1.7-4.2c0-1.4-0.6-3-2.9-3C387.4,123.5,386.6,123.9,385.9,124.5z"/>
	<path class="st4" d="M408.6,133.1l0.9-5.2c0.2-1.1,0.5-2.7,0.8-4h-0.1c-0.7,1.3-1.4,2.7-2.1,3.9l-3.2,5.2h-1.7l-0.7-5.1
		c-0.2-1.2-0.3-2.6-0.3-3.9h0c-0.3,1.3-0.7,2.9-1,4l-1.5,5.2h-2.1l3.3-11h2.9l0.7,5.1c0.1,1,0.2,2.1,0.2,3.2h0.1
		c0.5-1,1.1-2.2,1.6-3.1l3.1-5.1h3l-1.7,11H408.6z"/>
	<path class="st4" d="M421,128.2h-4.6l-0.7,3.3h5.2l-0.4,1.6h-7.4l2.4-11h7.1l-0.4,1.6h-4.9l-0.6,2.9h4.6L421,128.2z"/>
	<path class="st4" d="M421.9,131.4c0.4,0.1,0.9,0.2,1.6,0.2c1.3,0,2.1-0.6,2.5-2.3l1.6-7.2h2.2l-1.6,7.4c-0.6,2.7-1.9,3.8-4.6,3.8
		c-0.8,0-1.7-0.1-2-0.3L421.9,131.4z"/>
	<path class="st4" d="M442.2,126.5c0,2-0.8,4-2.3,5.2c-1.2,1-2.7,1.5-4.6,1.5c-3.3,0-5-2.1-5-4.5c0-2,0.9-4,2.4-5.3
		c1.2-1,2.8-1.5,4.5-1.5C440.6,121.9,442.2,124,442.2,126.5z M434.4,124.5c-1.1,1-1.8,2.7-1.8,4.2c0,1.7,0.9,3,3,3
		c0.9,0,1.8-0.3,2.5-0.9c1.1-0.9,1.7-2.8,1.7-4.2c0-1.4-0.6-3-2.9-3C435.9,123.5,435.1,123.9,434.4,124.5z"/>
	<path class="st4" d="M445.3,122.3c0.8-0.2,2-0.3,3.2-0.3c1.2,0,2.4,0.2,3.2,0.7c0.7,0.4,1.2,1.1,1.2,2c0,1.6-1.3,2.7-3,3.1l0,0
		c0.8,0.3,1.2,1,1.3,2.1c0.2,1.4,0.2,2.6,0.5,3.1h-2.3c-0.1-0.3-0.2-1.3-0.3-2.6c-0.1-1.4-0.7-1.9-1.9-1.9h-1.1l-1,4.5h-2.2
		L445.3,122.3z M446.5,127.1h1.3c1.7,0,2.9-0.9,2.9-2.1c0-1-0.9-1.5-2.2-1.5c-0.6,0-0.9,0-1.2,0.1L446.5,127.1z"/>
	<path class="st3" d="M93.9,103.9c0,0,1.6-2.7,4.8-2.7c3.1,0,3.1,1.3,5.2,1.3s1.8-1.3,4.9-1.3c3.1,0,2.5,1,5.1,1s2-1.4,5.2-1.4
		c3.1,0,4,3,4,3s-1.1-1-3.6-1s-3,1.3-5.6,1.3s-3.4-1.2-5.3-1.2c-1.9,0-2,1.2-4.9,1.2c-3,0-1.9-1.7-4.9-1.7
		C95.6,102.5,93.9,103.9,93.9,103.9z"/>
	<path class="st3" d="M93.9,107.1c0,0,1.6-2.7,4.8-2.7c3.1,0,3.1,1.3,5.2,1.3s1.8-1.3,4.9-1.3c3.1,0,2.5,1,5.1,1s2-1.4,5.2-1.4
		c3.1,0,4,3,4,3s-1.1-1-3.6-1s-3,1.3-5.6,1.3s-3.4-1.2-5.3-1.2c-1.9,0-2,1.2-4.9,1.2c-3,0-1.9-1.7-4.9-1.7
		C95.6,105.8,93.9,107.1,93.9,107.1z"/>
	<path class="st3" d="M93.9,110.2c0,0,1.6-2.7,4.8-2.7c3.1,0,3.1,1.3,5.2,1.3s1.8-1.3,4.9-1.3c3.1,0,2.5,1,5.1,1s2-1.4,5.2-1.4
		c3.1,0,4,3,4,3s-1.1-1-3.6-1s-3,1.3-5.6,1.3s-3.4-1.2-5.3-1.2c-1.9,0-2,1.2-4.9,1.2c-3,0-1.9-1.7-4.9-1.7
		C95.6,108.9,93.9,110.2,93.9,110.2z"/>
	<path class="st2" d="M318,103.9c0,0,1.6-2.7,4.8-2.7c3.1,0,3.1,1.3,5.2,1.3s1.8-1.3,4.9-1.3c3.1,0,2.5,1,5.1,1s2-1.4,5.2-1.4
		s4,3,4,3s-1.1-1-3.6-1c-2.5,0-3,1.3-5.6,1.3c-2.7,0-3.4-1.2-5.3-1.2s-2,1.2-4.9,1.2c-3,0-1.9-1.7-4.9-1.7
		C319.7,102.5,318,103.9,318,103.9z"/>
	<path class="st2" d="M318,107.1c0,0,1.6-2.7,4.8-2.7c3.1,0,3.1,1.3,5.2,1.3s1.8-1.3,4.9-1.3c3.1,0,2.5,1,5.1,1s2-1.4,5.2-1.4
		s4,3,4,3s-1.1-1-3.6-1c-2.5,0-3,1.3-5.6,1.3c-2.7,0-3.4-1.2-5.3-1.2s-2,1.2-4.9,1.2c-3,0-1.9-1.7-4.9-1.7
		C319.7,105.8,318,107.1,318,107.1z"/>
	<path class="st2" d="M318,110.2c0,0,1.6-2.7,4.8-2.7c3.1,0,3.1,1.3,5.2,1.3s1.8-1.3,4.9-1.3c3.1,0,2.5,1,5.1,1s2-1.4,5.2-1.4
		s4,3,4,3s-1.1-1-3.6-1c-2.5,0-3,1.3-5.6,1.3c-2.7,0-3.4-1.2-5.3-1.2s-2,1.2-4.9,1.2c-3,0-1.9-1.7-4.9-1.7
		C319.7,108.9,318,110.2,318,110.2z"/>
	<path class="st3" d="M533,103.9c0,0,1.6-2.7,4.8-2.7s3.1,1.3,5.2,1.3c2,0,1.8-1.3,4.9-1.3s2.5,1,5.1,1c2.5,0,2-1.4,5.2-1.4
		c3.1,0,4,3,4,3s-1.1-1-3.6-1c-2.5,0-3,1.3-5.6,1.3s-3.4-1.2-5.3-1.2c-1.9,0-2,1.2-4.9,1.2c-3,0-1.9-1.7-4.9-1.7
		S533,103.9,533,103.9z"/>
	<path class="st3" d="M533,107.1c0,0,1.6-2.7,4.8-2.7s3.1,1.3,5.2,1.3c2,0,1.8-1.3,4.9-1.3s2.5,1,5.1,1c2.5,0,2-1.4,5.2-1.4
		c3.1,0,4,3,4,3s-1.1-1-3.6-1c-2.5,0-3,1.3-5.6,1.3s-3.4-1.2-5.3-1.2c-1.9,0-2,1.2-4.9,1.2c-3,0-1.9-1.7-4.9-1.7
		S533,107.1,533,107.1z"/>
	<path class="st3" d="M533,110.2c0,0,1.6-2.7,4.8-2.7s3.1,1.3,5.2,1.3c2,0,1.8-1.3,4.9-1.3s2.5,1,5.1,1c2.5,0,2-1.4,5.2-1.4
		c3.1,0,4,3,4,3s-1.1-1-3.6-1c-2.5,0-3,1.3-5.6,1.3s-3.4-1.2-5.3-1.2c-1.9,0-2,1.2-4.9,1.2c-3,0-1.9-1.7-4.9-1.7
		S533,110.2,533,110.2z"/>
	<path class="st5" d="M502.9,119.9h38.6c0,0,7.9,0.4,11.8,5.9c3.9,5.5,3.9,9,3.9,10.3s0,14.3,0,14.3h-14c0,0-2.2-7.9-7.2-12.3
		s-7.9-5.1-7.9-5.1s-3.7-4.6-6.4-7.2s-4.1-3.1-4.1-3.1s-0.8,3.4-1.7,3.6c-0.8,0.1-3.4-2.1-4.4-3.7c-1-1.6-1-1.6-1-1.6
		s-0.8,3.1-3.1,2.9C505.2,123.7,502.9,119.9,502.9,119.9z"/>
	<path class="st6" d="M490.1,134.1c0,0,0.8-2,0.8-3.9c0-1.8-1.1-3.6-1.1-3.6s3,1.3,4.4,0.4c1.4-0.8,1.4-4.1,1.4-4.1s2.4,1.7,4.1,1.1
		c1.7-0.6,2.9-3.6,2.9-3.6s3.3,4.3,5.3,3.9c2-0.3,2.9-2.5,2.9-2.5s3.7,5.6,5.4,4.8s1.8-3.3,1.8-3.3s3,2.3,5.6,5.1
		c2.6,2.8,3.7,4.3,3.7,4.3s-7.3-3.6-18.5-3.7C497.6,129.1,490.1,134.1,490.1,134.1z"/>
	<path class="st7" d="M487.5,142.1c0,0-3.4-1.4-6-1.3c-2.7,0.1-3.2,1.8-3.2,1.8s1.9,0.3,2,0.7c0.1,0.4-0.4,1.5-0.4,1.5
		s2.4-1.1,4-1.7C485.4,142.6,487.5,142.1,487.5,142.1z"/>
	<path class="st8" d="M541.3,155.8c-2-0.4-5-1.8-7.7-2.7c-2.8-0.9-4.6-0.1-4.6-0.1s0.4-0.6,1.8-0.7c1.4-0.1,3.4,0.4,6.4,1.6
		c3,1.1,6.3,2,6.6,1.7s-0.2-0.6-0.5-3.2s-2.6-8.1-5.1-11.7c-2.5-3.5-8.7-7.8-18.8-10.2c-10.2-2.3-18.8-1.1-25.5,2
		c-6.7,3-10.9,7.7-10.9,7.7s0.7,0.3,2.5,0.5c1.8,0.3,3.2,1.3,3.2,1.3s-0.6,0.4-4.6,1.3c-4.1,0.8-7.8,3.7-9.3,5
		c-1.5,1.3-7.4,8.6-7.6,13.2c-0.2,4.6,2.2,8.1,2.2,8.1s-1-3-0.9-6.5s1.2-8.2,5.9-13.1c4.7-4.9,7.5-5.6,14.6-6.1
		c7.1-0.4,15,4.3,17.6,6.2c2.5,1.8,10.3,8.1,11.5,8.9c1.2,0.9,8.6,3.3,10.6,4.1c2,0.8,6.2,0.6,6.2,0.6s0,0-3.4-1.5
		c-3.4-1.5-5.2-2-5.2-2s1.1,0,2.5,0.4c0.6,0.2,1.5,0.6,2.6,1c1.3,0.5,2.9,1.2,4.7,1.8c3.4,1.1,4.7,0.6,5.3-0.8
		c0.6-1.4-2.2-1.9-4.1-2.5c-1.9-0.6-3-2.3-3-2.3s-2.2,0.4-3.9,0.4c-1.8,0-3.7-1.9-3.7-1.9s1.7,0.6,2.7,0.9c1,0.3,2,0.1,3.3,0
		c1.3-0.1,3-1.1,5.3-0.8s3.5,0.6,5.1,1.2s2.1,0.4,2.1-0.3C544.8,156.7,543.3,156.2,541.3,155.8z M534.8,145.7c1.4,0,2.6,1.2,2.6,2.6
		c0,1.4-1.2,2.6-2.6,2.6s-2.6-1.2-2.6-2.6C532.2,146.8,533.4,145.7,534.8,145.7z M499,136.2c0.1-0.3,1-0.2,0.3-1
		c-0.7-0.8-1-1.1-1-1.1s2.3,0,8.2,2.4s7.7,4.2,7.7,4.2s-0.4,0.4-0.5,0.7s-0.2,0.6-0.2,0.6s-4-1.5-7.9-3
		C501.7,137.4,498.8,136.4,499,136.2z M503.3,141.4c0,0-0.2-1.2-0.4-1.8c-0.3-0.6-1.8-1.6-1.8-1.6s3.6,1.2,7,2.7
		c3.4,1.5,5.4,1.7,5.4,1.7s-0.3,0.5-0.3,1.3c0,0.8,0.3,1,0.3,1s-2.3,0.3-4.3-0.6c-2-0.9-3.4-1.7-4.4-2.2
		C503.6,141.4,503.3,141.4,503.3,141.4z M515.1,148.6c-0.3,0-1.8-0.3-4.2-0.8c-2.4-0.5-4.5-2.1-5.3-3.5c-0.8-1.4-2-2-2-2
		s2.5,1,4.8,2.1c2.3,1.1,5,1.3,5,1.3s0.3,0.3,0.7,1c0.4,0.8,1.7,1.9,1.7,1.9S515.4,148.6,515.1,148.6z M514.7,140.8
		c0,0-1.7-1.8-6.9-4.5c-5.2-2.7-9.7-2.5-9.5-2.8c0.2-0.3,1.1-0.6,1.6-0.4c0.5,0.1,1.1-1.4,8,1c6.9,2.4,10,6.3,10,6.3s-0.7-0.2-2-0.3
		C514.6,140,514.7,140.8,514.7,140.8z M522.8,149.8c-2,3.6-0.1,8.5-0.1,8.5s-2.1-4.5-1-8.3c1.1-3.7,5.6-4.9,5.6-4.9
		S524.8,146.3,522.8,149.8z M518.9,145.2c-3.2,5.3,3.1,12.5,3.1,12.5s-0.4-0.3-1.4-1.4c-1-1.1-5.5-6.6-2.5-12.2
		c2.9-5.6,13-2.4,13-2.4S522.1,139.8,518.9,145.2z"/>
	<path class="st1" d="M534.8,146.1c-1.2,0-2.2,1-2.2,2.2c0,0.7,0.3,1.3,0.8,1.7c0-0.1,0-0.2,0-0.2c0-0.6,0.5-1.1,1.1-1.1
		c0.6,0,1.1,0.5,1.1,1.1c0,0.3-0.1,0.5-0.2,0.7c1-0.2,1.7-1.1,1.7-2.1C537,147.1,536,146.1,534.8,146.1z"/>
	<path class="st7" d="M469.8,158.8c0,0,0.5-4.7,6.4-9.8c5.8-5.1,11.9-5.6,19.4-3.8c7.5,1.8,18.2,11.2,18.2,11.2s-1.4-0.2-2.3,0.1
		c-0.9,0.4-1.1,0.7-1.1,0.7s-0.5-1.2-1.4-1.4c-0.9-0.2-1.6,0.2-3,0.2s-1.9-0.3-1.9-0.3s3.2-2,3.1-3.2c-0.1-1.2-1.4-2.3-4.3-3.3
		c-2.9-1-8.2-3.2-14.2,0c-6.1,3.2-8,9.1-7.9,12.1c0.1,3,0.2,5.8-1.6,7.9c-1.9,2.2-2.4,2.8-2.4,2.8s1.1-2.5,0.2-4.2
		c-0.9-1.8-1.6-1.5-1.6-1.5s0.5-2.5-0.5-3.4c-1-0.9-2.2-0.9-2.2-0.9s0.3-2.1-1.1-2.9S469.8,158.8,469.8,158.8z"/>
	<g>
		<path class="st0" d="M483.8,170.2v-8.9h1.8c0.4,0,0.7,0.1,0.9,0.3c0.2,0.2,0.4,0.5,0.5,0.9c0.1,0.4,0.1,0.9,0.1,1.4
			c0,0.5,0,1-0.1,1.4c-0.1,0.4-0.2,0.7-0.4,0.9c-0.2,0.2-0.5,0.3-0.9,0.3h-0.6v3.5H483.8z M485.2,165.1L485.2,165.1
			c0.3,0,0.5-0.1,0.6-0.3c0.1-0.2,0.1-0.5,0.1-0.8c0-0.3,0-0.6-0.1-0.8c-0.1-0.2-0.2-0.3-0.4-0.3h-0.2V165.1z"/>
		<path class="st0" d="M490.5,170.3c-0.6,0-1-0.2-1.3-0.6s-0.4-1-0.4-1.9v-4.2c0-0.8,0.1-1.3,0.4-1.7c0.3-0.4,0.7-0.6,1.3-0.6
			c0.6,0,1,0.2,1.3,0.6c0.3,0.4,0.4,1,0.4,1.7v4.2c0,0.8-0.1,1.4-0.4,1.9S491,170.3,490.5,170.3z M490.5,168.6
			c0.2,0,0.3-0.3,0.3-0.8v-4.3c0-0.4-0.1-0.7-0.3-0.7c-0.2,0-0.3,0.2-0.3,0.7v4.3c0,0.3,0,0.5,0.1,0.6
			C490.3,168.6,490.4,168.6,490.5,168.6z"/>
		<path class="st0" d="M493.9,170.2v-8.9h2.1c0.4,0,0.6,0.1,0.8,0.3c0.2,0.2,0.3,0.5,0.4,0.9c0.1,0.4,0.1,0.8,0.1,1.3
			c0,0.5,0,0.9-0.1,1.2c-0.1,0.3-0.3,0.5-0.5,0.6c0.2,0.1,0.4,0.2,0.5,0.4c0.1,0.2,0.1,0.5,0.1,0.9v3.4h-1.4v-3.5
			c0-0.3,0-0.4-0.1-0.5c-0.1-0.1-0.2-0.1-0.4-0.1v4.1H493.9z M495.3,164.6h0.3c0.2,0,0.3-0.3,0.3-0.8c0-0.3,0-0.6-0.1-0.7
			c0-0.1-0.1-0.2-0.2-0.2h-0.3V164.6z"/>
		<path class="st0" d="M499.5,170.2V163h-0.8v-1.7h3.1v1.7h-0.8v7.2H499.5z"/>
		<path class="st0" d="M504.9,170.3c-0.6,0-1-0.2-1.3-0.6c-0.3-0.4-0.4-1-0.4-1.8v-6.5h1.4v6.4c0,0.1,0,0.3,0,0.4
			c0,0.1,0,0.2,0.1,0.3c0,0.1,0.1,0.1,0.2,0.1c0.1,0,0.2,0,0.2-0.1c0-0.1,0.1-0.2,0.1-0.3c0-0.1,0-0.3,0-0.4v-6.4h1.4v6.5
			c0,0.8-0.1,1.4-0.4,1.8C505.9,170,505.5,170.3,504.9,170.3z"/>
		<path class="st0" d="M509.7,170.3c-1,0-1.5-0.9-1.5-2.7v-3.8c0-1.7,0.6-2.5,1.7-2.5c0.5,0,0.8,0.1,1.1,0.4
			c0.3,0.2,0.4,0.6,0.5,1.1c0.1,0.5,0.1,1,0.1,1.7h-1.4v-0.8c0-0.2,0-0.4-0.1-0.5c0-0.1-0.1-0.2-0.3-0.2c-0.2,0-0.3,0.1-0.3,0.2
			c-0.1,0.1-0.1,0.3-0.1,0.5v4.3c0,0.2,0,0.4,0.1,0.6s0.1,0.2,0.3,0.2c0.1,0,0.2-0.1,0.3-0.2s0.1-0.3,0.1-0.6v-1.3h-0.4V165h1.7v5.2
			h-0.6l-0.2-0.7C510.6,170,510.2,170.3,509.7,170.3z"/>
		<path class="st0" d="M513.1,170.2l0.7-8.9h2.4l0.7,8.9h-1.3l-0.1-1.4h-0.8l-0.1,1.4H513.1z M514.7,167.3h0.6l-0.3-4.5H515
			L514.7,167.3z"/>
		<path class="st0" d="M518.4,170.2v-8.9h1.4v7.4h1.4v1.5H518.4z"/>
	</g>
</g>
</svg>
