<?xml version="1.0" encoding="UTF-8"?>
<svg id="Capa_2" data-name="Capa 2" xmlns="http://www.w3.org/2000/svg" viewBox="0 0 793.77 118.64">
  <defs>
    <style>
      .cls-1 {
        fill: #007bc4;
      }
    </style>
  </defs>
  <g id="Capa_1-2" data-name="Capa 1">
    <g>
      <path class="cls-1" d="m0,0v118.64h83.05V0H0Zm38.56,9.89h1.98v-1.98h1.98v1.98h1.98v1.98h-1.98v1.98h-1.98v-1.98h-1.98v-1.98h0Zm-14.83,85.02h-3.95v3.95h-3.95v-3.95h-3.95v-3.95h3.95v-3.95h3.95v3.95h3.95v3.95Zm0-23.73h-3.95v3.95h-3.95v-3.95h-3.95v-3.95h3.95v-3.95h3.95v3.95h3.95v3.95Zm0-23.73h-3.95v3.95h-3.95v-3.95h-3.95v-3.95h3.95v-3.95h3.95v3.95h3.95v3.95Zm19.85,41.37c-.05.7-.08,1.41-.08,2.13,0,5.88,1.83,11.33,4.96,15.82h-13.88c3.13-4.48,4.96-9.94,4.96-15.82,0-.72-.03-1.43-.08-2.13-6.67-.99-11.78-6.74-11.78-13.69h27.68c0,6.94-5.11,12.69-11.78,13.69Zm3.87-45.33v3.95h-3.95v3.95h-3.95v-3.95h-3.95v-3.95h3.95v-3.95h3.95v3.95h3.95Zm-5.93,11.86c4.37,0,7.91,3.54,7.91,7.91s-3.54,7.91-7.91,7.91-7.91-3.54-7.91-7.91,3.54-7.91,7.91-7.91Zm13.84-20.76h-27.68v-2.97h27.68v2.97Zm2.8-8l-1.45,2.07h-3.69l2.65-3.81c.45-.65.61-1.51.61-2.04,0-.93-.3-1.71-.9-2.33-.71-.73-1.59-1.11-2.61-1.11-.44,0-.75.04-.75.04h0c.22.77.34,1.53.34,2.25,0,1.28-.14,2.37-.82,3.52l-2.06,3.48h-3.6l2.93-4.97c.27-.46.49-1.35.49-2.03,0-1.02-.32-1.84-.97-2.51-.76-.79-1.64-1.19-2.61-1.19-1.22,0-2.11.35-2.7,1.07v9.63h-2.97v-9.63c-.59-.72-1.47-1.07-2.7-1.07-.97,0-1.85.4-2.61,1.19-.65.67-.97,1.49-.97,2.51,0,.68.21,1.58.49,2.03l2.93,4.97h-3.6l-2.06-3.48c-.68-1.15-.82-2.24-.82-3.52,0-.71.12-1.47.34-2.26h0s-.31-.03-.75-.03c-1.02,0-1.9.37-2.61,1.11-.6.61-.9,1.4-.9,2.33,0,.54.16,1.39.61,2.04l2.65,3.81h-3.69l-1.45-2.07c-.79-1.14-1.16-2.34-1.16-3.78,0-1.85.65-3.4,1.93-4.58,1.28-1.32,2.84-1.99,4.63-1.99.76,0,1.59.16,2.45.45.07-.07.13-.15.21-.21,1.17-1.09,2.65-1.64,4.4-1.64,1.51,0,2.92.46,4.18,1.38,1.26-.92,2.67-1.38,4.18-1.38,1.74,0,3.22.55,4.4,1.64.08.07.14.14.21.21.86-.29,1.69-.45,2.45-.45,1.79,0,3.35.67,4.63,1.99,1.28,1.18,1.93,2.73,1.93,4.58,0,1.44-.37,2.64-1.16,3.79Zm13.02,68.31h-3.95v3.95h-3.95v-3.95h-3.95v-3.95h3.95v-3.95h3.95v3.95h3.95v3.95Zm0-23.73h-3.95v3.95h-3.95v-3.95h-3.95v-3.95h3.95v-3.95h3.95v3.95h3.95v3.95Zm0-23.73h-3.95v3.95h-3.95v-3.95h-3.95v-3.95h3.95v-3.95h3.95v3.95h3.95v3.95Zm66.95,39.24c0,12.84-7.4,20.07-18.29,20.07h-13.07v-39.56h12.5c11.35,0,18.86,7.05,18.86,19.49Zm-5.5,0c0-9.8-5.68-14.68-13.47-14.68h-7.22v29.93h7.57c7.68,0,13.13-5.05,13.13-15.25Zm14.85-19.49h24.31l-1.61,4.82h-17.54v11.7h15.71v4.82h-15.71v13.42h17.77l1.61,4.82h-24.54v-39.56h0Zm47.64,19.61c0-12.33,7.68-20.53,19.44-20.53,4.41,0,9.69,1.72,13.59,4.01v5.96c-4.87-3.04-10.15-5.05-13.59-5.05-8.2,0-13.93,6.25-13.93,15.6,0,9.92,4.99,16.05,12.38,16.05,6.88,0,11.87-4.36,12.5-11.75h-11.07l-1.55-4.82h17.72c.23,1.09.34,2.29.34,3.61,0,10.49-6.94,17.89-17.95,17.89-11.01,0-17.89-8.08-17.89-20.98Zm57.22-19.61h3.33l16.63,39.56h-5.68l-3.84-9.69h-17.72l-3.9,9.69h-5.45l16.63-39.56Zm8.54,25.17l-6.94-17.37-6.99,17.37h13.93Zm18.58-25.17h5.16v34.75h18.35l1.61,4.82h-25.11v-39.56Zm32.51,0h5.16v39.56h-5.16v-39.56Zm14.51,19.49c0-12.27,6.71-20.41,17.43-20.41,4.64,0,9.58,1.72,13.19,4.41v6.02c-4.36-3.27-9.17-5.5-13.19-5.5-6.88,0-11.93,5.85-11.93,15.48s4.82,16.05,11.93,16.05c4.01,0,8.83-2.24,13.19-5.5v6.02c-3.61,2.69-8.54,4.41-13.19,4.41-10.95,0-17.43-8.37-17.43-20.98Zm39.85-19.49h5.16v39.56h-5.16v-39.56Zm28.95,0h3.33l16.63,39.56h-5.68l-3.84-9.69h-17.72l-3.9,9.69h-5.45l16.63-39.56Zm8.54,25.17l-6.94-17.37-6.99,17.37h13.93ZM120.14,31.06l-12.67-19.21h6.08l9.86,14.96,9.75-14.96h5.85l-12.67,19.32,13.36,20.24h-6.08l-10.55-16-10.44,16h-5.85l13.36-20.35Zm25.8,7.11V11.85h5.16v26.09c0,6.13,3.73,9.58,9.46,9.58s9.46-3.44,9.46-9.58V11.85h5.16v26.32c0,8.89-5.68,14.28-14.62,14.28s-14.62-5.39-14.62-14.28Zm40.54-26.32h4.36l20.24,28.21V11.85h5.16v39.56h-2.92l-21.67-30.22v30.22h-5.16V11.85Zm52.75,4.82h-14.33l-1.61-4.82h37.04l-1.61,4.82h-14.33v34.75h-5.16V16.66Zm35.84-4.82h3.33l16.63,39.56h-5.68l-3.84-9.69h-17.72l-3.9,9.69h-5.45l16.63-39.56Zm8.54,25.17l-6.94-17.37-6.99,17.37h13.93Z"/>
      <rect class="cls-1" x="432.52" width="5.15" height="118.64"/>
      <g>
        <path class="cls-1" d="m469.42,30.09c-1.06.55-3.39,1.09-6.34,1.09-7.79,0-12.53-4.88-12.53-12.35,0-8.09,5.61-12.97,13.11-12.97,2.95,0,5.06.62,5.97,1.09l-.98,3.57c-1.17-.51-2.77-.95-4.81-.95-4.99,0-8.6,3.13-8.6,9.03,0,5.39,3.17,8.85,8.56,8.85,1.82,0,3.72-.36,4.88-.91l.73,3.53Z"/>
        <path class="cls-1" d="m494.08,18.29c0,8.23-4.99,12.93-11.76,12.93s-11.29-5.28-11.29-12.49,4.74-12.86,11.66-12.86,11.4,5.43,11.4,12.42Zm-18.32.36c0,4.99,2.51,8.96,6.81,8.96s6.77-4.01,6.77-9.14c0-4.63-2.3-9-6.77-9s-6.81,4.12-6.81,9.18Z"/>
        <path class="cls-1" d="m497.94,30.82V6.27h5.1l6.34,10.53c1.64,2.73,3.06,5.57,4.19,8.23h.07c-.29-3.28-.4-6.45-.4-10.2V6.27h4.15v24.55h-4.63l-6.41-10.78c-1.57-2.7-3.2-5.72-4.41-8.49l-.11.04c.18,3.17.22,6.41.22,10.45v8.78h-4.12Z"/>
        <path class="cls-1" d="m522.45,25.94c1.46.84,3.64,1.57,5.94,1.57,2.88,0,4.48-1.35,4.48-3.35,0-1.86-1.24-2.95-4.37-4.08-4.04-1.46-6.63-3.61-6.63-7.14,0-4.01,3.35-7.07,8.67-7.07,2.66,0,4.63.58,5.9,1.24l-1.09,3.61c-.87-.47-2.59-1.17-4.88-1.17-2.84,0-4.08,1.53-4.08,2.95,0,1.89,1.42,2.77,4.7,4.04,4.26,1.6,6.34,3.75,6.34,7.28,0,3.93-2.99,7.36-9.32,7.36-2.59,0-5.28-.73-6.63-1.53l.98-3.72Z"/>
        <path class="cls-1" d="m555.2,19.93h-9.25v7.21h10.34v3.68h-14.82V6.27h14.28v3.68h-9.8v6.34h9.25v3.64Z"/>
        <path class="cls-1" d="m560.23,6.27h4.48v20.8h10.09v3.75h-14.57V6.27Z"/>
        <path class="cls-1" d="m578.18,6.27h4.48v20.8h10.09v3.75h-14.57V6.27Z"/>
        <path class="cls-1" d="m609.87,19.93h-9.25v7.21h10.34v3.68h-14.82V6.27h14.28v3.68h-9.8v6.34h9.25v3.64Z"/>
        <path class="cls-1" d="m614.9,6.6c1.68-.29,4.19-.51,6.77-.51,3.53,0,5.94.58,7.58,1.97,1.35,1.13,2.11,2.84,2.11,4.92,0,3.17-2.15,5.32-4.44,6.16v.11c1.75.66,2.8,2.37,3.42,4.73.77,3.06,1.42,5.9,1.93,6.85h-4.63c-.36-.73-.95-2.73-1.64-5.79-.69-3.21-1.86-4.23-4.41-4.3h-2.26v10.09h-4.44V6.6Zm4.44,10.85h2.66c3.02,0,4.92-1.6,4.92-4.04,0-2.7-1.89-3.93-4.81-3.93-1.42,0-2.33.11-2.77.22v7.76Z"/>
        <path class="cls-1" d="m643.67.59l-4.55,4.37h-3.61l3.2-4.37h4.95Zm-3.57,5.68v24.55h-4.48V6.27h4.48Z"/>
        <path class="cls-1" d="m650.15,23.86l-2.11,6.96h-4.63l7.87-24.55h5.72l7.98,24.55h-4.81l-2.22-6.96h-7.79Zm7.03-3.39l-1.93-6.05c-.47-1.49-.87-3.17-1.24-4.59h-.07c-.36,1.42-.73,3.13-1.17,4.59l-1.89,6.05h6.3Z"/>
        <path class="cls-1" d="m675.94,6.6c1.97-.33,4.48-.51,7.14-.51,4.59,0,7.76.95,10.02,2.84,2.37,1.93,3.82,4.84,3.82,9.03s-1.49,7.65-3.82,9.76c-2.44,2.22-6.34,3.35-11.11,3.35-2.62,0-4.59-.15-6.05-.33V6.6Zm4.48,20.8c.62.11,1.57.11,2.48.11,5.83.04,9.29-3.17,9.29-9.4.04-5.43-3.1-8.52-8.7-8.52-1.42,0-2.44.11-3.06.25v17.56Z"/>
        <path class="cls-1" d="m714.55,19.93h-9.25v7.21h10.34v3.68h-14.82V6.27h14.28v3.68h-9.8v6.34h9.25v3.64Z"/>
        <path class="cls-1" d="m465.56,63.64h-9.25v7.21h10.34v3.68h-14.82v-24.55h14.28v3.68h-9.8v6.34h9.25v3.64Z"/>
        <path class="cls-1" d="m491.31,64.51c-.15-3.17-.33-6.99-.29-10.31h-.11c-.8,2.99-1.82,6.3-2.91,9.4l-3.57,10.64h-3.46l-3.28-10.49c-.95-3.13-1.82-6.48-2.48-9.54h-.07c-.11,3.21-.26,7.1-.44,10.45l-.55,9.87h-4.19l1.64-24.55h5.9l3.2,9.87c.87,2.88,1.64,5.79,2.26,8.52h.11c.66-2.66,1.49-5.68,2.44-8.56l3.39-9.83h5.83l1.42,24.55h-4.37l-.47-10.02Z"/>
        <path class="cls-1" d="m500.71,50.31c1.6-.29,3.82-.51,6.85-.51,3.28,0,5.68.69,7.25,2,1.46,1.2,2.4,3.13,2.4,5.43s-.73,4.26-2.11,5.57c-1.78,1.79-4.59,2.62-7.76,2.62-.84,0-1.6-.04-2.19-.15v9.25h-4.44v-24.22Zm4.44,11.44c.55.15,1.28.18,2.19.18,3.35,0,5.39-1.64,5.39-4.52s-1.89-4.19-4.99-4.19c-1.24,0-2.11.11-2.59.22v8.3Z"/>
        <path class="cls-1" d="m521.07,50.31c1.68-.29,4.19-.51,6.77-.51,3.53,0,5.94.58,7.58,1.97,1.35,1.13,2.11,2.84,2.11,4.92,0,3.17-2.15,5.32-4.44,6.16v.11c1.75.66,2.8,2.37,3.42,4.73.77,3.06,1.42,5.9,1.93,6.85h-4.63c-.36-.73-.95-2.73-1.64-5.79-.69-3.21-1.86-4.23-4.41-4.3h-2.26v10.09h-4.44v-24.22Zm4.44,10.85h2.66c3.02,0,4.92-1.6,4.92-4.04,0-2.7-1.89-3.93-4.81-3.93-1.42,0-2.33.11-2.77.22v7.76Z"/>
        <path class="cls-1" d="m555.53,63.64h-9.25v7.21h10.34v3.68h-14.82v-24.55h14.28v3.68h-9.8v6.34h9.25v3.64Z"/>
        <path class="cls-1" d="m580.22,73.4c-1.57.58-4.63,1.38-7.9,1.38-4.15,0-7.28-1.06-9.62-3.28-2.19-2.08-3.46-5.32-3.42-9.03,0-7.76,5.54-12.75,13.66-12.75,3.02,0,5.39.62,6.52,1.17l-.98,3.61c-1.35-.58-2.99-1.06-5.57-1.06-5.24,0-8.92,3.1-8.92,8.81s3.42,8.89,8.52,8.89c1.6,0,2.8-.22,3.39-.51v-6.12h-4.33v-3.53h8.67v12.42Z"/>
        <path class="cls-1" d="m606.59,62c0,8.23-4.99,12.93-11.76,12.93s-11.29-5.28-11.29-12.49,4.74-12.86,11.66-12.86,11.4,5.43,11.4,12.42Zm-18.32.36c0,4.99,2.51,8.96,6.81,8.96s6.77-4.01,6.77-9.14c0-4.63-2.3-9-6.77-9s-6.81,4.12-6.81,9.18Z"/>
        <path class="cls-1" d="m606.81,78.94c.98-2.77,1.97-6.59,2.44-9.62l4.7-.36c-1.02,3.42-2.66,7.36-4.08,9.69l-3.06.29Z"/>
        <path class="cls-1" d="m642.83,73.8c-1.06.55-3.39,1.09-6.34,1.09-7.79,0-12.53-4.88-12.53-12.35,0-8.09,5.61-12.97,13.11-12.97,2.95,0,5.06.62,5.97,1.09l-.98,3.57c-1.17-.51-2.77-.95-4.81-.95-4.99,0-8.6,3.13-8.6,9.03,0,5.39,3.17,8.85,8.56,8.85,1.82,0,3.72-.36,4.88-.91l.73,3.53Z"/>
        <path class="cls-1" d="m667.49,62c0,8.23-4.99,12.93-11.76,12.93s-11.29-5.28-11.29-12.49,4.74-12.86,11.66-12.86,11.4,5.43,11.4,12.42Zm-18.32.36c0,4.99,2.51,8.96,6.81,8.96s6.77-4.01,6.77-9.14c0-4.63-2.3-9-6.77-9s-6.81,4.12-6.81,9.18Z"/>
        <path class="cls-1" d="m692.07,64.51c-.15-3.17-.33-6.99-.29-10.31h-.11c-.8,2.99-1.82,6.3-2.91,9.4l-3.57,10.64h-3.46l-3.28-10.49c-.95-3.13-1.82-6.48-2.48-9.54h-.07c-.11,3.21-.26,7.1-.44,10.45l-.55,9.87h-4.19l1.64-24.55h5.9l3.2,9.87c.87,2.88,1.64,5.79,2.26,8.52h.11c.66-2.66,1.49-5.68,2.44-8.56l3.39-9.83h5.83l1.42,24.55h-4.37l-.47-10.02Z"/>
        <path class="cls-1" d="m715.2,63.64h-9.25v7.21h10.34v3.68h-14.82v-24.55h14.28v3.68h-9.8v6.34h9.25v3.64Z"/>
        <path class="cls-1" d="m720.23,50.31c1.68-.29,4.19-.51,6.77-.51,3.53,0,5.94.58,7.58,1.97,1.35,1.13,2.11,2.84,2.11,4.92,0,3.17-2.15,5.32-4.44,6.16v.11c1.75.66,2.8,2.37,3.42,4.73.77,3.06,1.42,5.9,1.93,6.85h-4.63c-.36-.73-.95-2.73-1.64-5.79-.69-3.21-1.86-4.23-4.41-4.3h-2.26v10.09h-4.44v-24.22Zm4.44,10.85h2.66c3.02,0,4.92-1.6,4.92-4.04,0-2.7-1.89-3.93-4.81-3.93-1.42,0-2.33.11-2.77.22v7.76Z"/>
        <path class="cls-1" d="m758.55,73.8c-1.06.55-3.39,1.09-6.34,1.09-7.79,0-12.53-4.88-12.53-12.35,0-8.09,5.61-12.97,13.11-12.97,2.95,0,5.06.62,5.97,1.09l-.98,3.57c-1.17-.51-2.77-.95-4.81-.95-4.99,0-8.6,3.13-8.6,9.03,0,5.39,3.17,8.85,8.56,8.85,1.82,0,3.72-.36,4.88-.91l.73,3.53Z"/>
        <path class="cls-1" d="m766.85,49.98v24.55h-4.48v-24.55h4.48Z"/>
        <path class="cls-1" d="m793.77,62c0,8.23-4.99,12.93-11.76,12.93s-11.29-5.28-11.29-12.49,4.74-12.86,11.66-12.86,11.4,5.43,11.4,12.42Zm-18.32.36c0,4.99,2.51,8.96,6.81,8.96s6.77-4.01,6.77-9.14c0-4.63-2.3-9-6.77-9s-6.81,4.12-6.81,9.18Z"/>
        <path class="cls-1" d="m465.56,107.35h-9.25v7.21h10.34v3.68h-14.82v-24.55h14.28v3.68h-9.8v6.34h9.25v3.64Z"/>
        <path class="cls-1" d="m491.86,107.35h-9.25v7.21h10.34v3.68h-14.82v-24.55h14.28v3.68h-9.8v6.34h9.25v3.64Z"/>
        <path class="cls-1" d="m517.61,108.22c-.15-3.17-.33-6.99-.29-10.31h-.11c-.8,2.99-1.82,6.3-2.91,9.4l-3.57,10.64h-3.46l-3.28-10.49c-.95-3.13-1.82-6.48-2.48-9.54h-.07c-.11,3.21-.26,7.1-.44,10.45l-.55,9.87h-4.19l1.64-24.55h5.9l3.2,9.87c.87,2.88,1.64,5.79,2.26,8.52h.11c.66-2.66,1.49-5.68,2.44-8.56l3.39-9.83h5.83l1.42,24.55h-4.37l-.47-10.02Z"/>
        <path class="cls-1" d="m531.49,93.69v24.55h-4.48v-24.55h4.48Z"/>
        <path class="cls-1" d="m556.29,117.11c-1.57.58-4.63,1.38-7.9,1.38-4.15,0-7.28-1.06-9.62-3.28-2.19-2.08-3.46-5.32-3.42-9.03,0-7.76,5.54-12.75,13.66-12.75,3.02,0,5.39.62,6.52,1.17l-.98,3.61c-1.35-.58-2.99-1.06-5.57-1.06-5.24,0-8.92,3.1-8.92,8.81s3.42,8.89,8.52,8.89c1.6,0,2.8-.22,3.39-.51v-6.12h-4.33v-3.53h8.67v12.42Z"/>
        <path class="cls-1" d="m560.88,94.02c1.68-.29,4.19-.51,6.77-.51,3.53,0,5.94.58,7.58,1.97,1.35,1.13,2.11,2.84,2.11,4.92,0,3.17-2.15,5.32-4.44,6.16v.11c1.75.66,2.8,2.37,3.42,4.73.77,3.06,1.42,5.9,1.93,6.85h-4.63c-.36-.73-.95-2.73-1.64-5.79-.69-3.21-1.86-4.23-4.41-4.3h-2.26v10.09h-4.44v-24.22Zm4.44,10.85h2.66c3.02,0,4.92-1.6,4.92-4.04,0-2.7-1.89-3.93-4.81-3.93-1.42,0-2.33.11-2.77.22v7.76Z"/>
        <path class="cls-1" d="m586.77,111.28l-2.11,6.96h-4.63l7.87-24.55h5.72l7.98,24.55h-4.81l-2.22-6.96h-7.79Zm7.03-3.39l-1.93-6.05c-.47-1.49-.87-3.17-1.24-4.59h-.07c-.36,1.42-.73,3.13-1.17,4.59l-1.89,6.05h6.3Z"/>
        <path class="cls-1" d="m621.85,117.51c-1.06.55-3.39,1.09-6.34,1.09-7.79,0-12.53-4.88-12.53-12.35,0-8.09,5.61-12.97,13.11-12.97,2.95,0,5.06.62,5.97,1.09l-.98,3.57c-1.17-.51-2.77-.95-4.81-.95-4.99,0-8.6,3.13-8.6,9.03,0,5.39,3.17,8.85,8.56,8.85,1.82,0,3.72-.36,4.88-.91l.73,3.53Z"/>
        <path class="cls-1" d="m630.16,93.69v24.55h-4.48v-24.55h4.48Z"/>
        <path class="cls-1" d="m657.07,105.71c0,8.23-4.99,12.93-11.76,12.93s-11.29-5.28-11.29-12.49,4.74-12.86,11.66-12.86,11.4,5.43,11.4,12.42Zm-18.32.36c0,4.99,2.51,8.96,6.81,8.96s6.77-4.01,6.77-9.14c0-4.63-2.3-9-6.77-9s-6.81,4.12-6.81,9.18Zm12.68-18.14l-4.55,4.37h-3.61l3.21-4.37h4.95Z"/>
        <path class="cls-1" d="m660.93,118.24v-24.55h5.1l6.34,10.53c1.64,2.73,3.06,5.57,4.19,8.23h.07c-.29-3.28-.4-6.45-.4-10.2v-8.56h4.15v24.55h-4.63l-6.41-10.78c-1.57-2.7-3.2-5.72-4.41-8.49l-.11.04c.18,3.17.22,6.41.22,10.45v8.78h-4.12Z"/>
      </g>
    </g>
  </g>
</svg>