<?xml version="1.0" encoding="UTF-8"?>
<svg id="Capa_2" data-name="Capa 2" xmlns="http://www.w3.org/2000/svg" viewBox="0 0 320.54 64.48">
  <defs>
    <style>
      .cls-1 {
        fill: #5561a8;
      }
    </style>
  </defs>
  <g id="Capa_1-2" data-name="Capa 1">
    <g>
      <path class="cls-1" d="m42.5,5.19h-22.44L0,63.68h21.25l2.28-9.14h15.15l1.76,9.14h21.71L42.5,5.19Zm-16.9,34.27l5.48-18.51,3.65,18.51h-9.14Z"/>
      <polygon class="cls-1" points="65.41 5.19 65.41 63.68 107.61 63.68 107.61 48.53 83.3 48.53 83.3 40.59 102.19 40.59 102.19 27.03 83.3 27.03 83.3 19.79 106.01 19.79 106.01 5.19 65.41 5.19"/>
      <polygon class="cls-1" points="113.64 4.72 113.64 63.1 129.32 63.1 129.32 37.48 130.51 37.48 140.07 63.1 151.63 63.1 160.75 37.78 162.18 37.78 162.18 63.1 179.26 63.1 179.26 4.72 159.57 4.72 147.27 36.37 146.02 36.37 133.74 4.72 113.64 4.72"/>
      <path class="cls-1" d="m216.11,4.09h-7.54c-6.26,0-11.93,2.49-16.09,6.52-4.33,4.2-7.02,10.08-7.02,16.59v14.17c0,12.76,10.35,23.11,23.11,23.11h7.54c12.76,0,23.11-10.35,23.11-23.11v-14.17c0-12.76-10.35-23.11-23.11-23.11Zm3.97,37.03c0,4.27-3.46,7.74-7.74,7.74s-7.74-3.46-7.74-7.74v-13.67c0-2.26.97-4.3,2.52-5.72,1.38-1.26,3.21-2.02,5.22-2.02,4.27,0,7.74,3.46,7.74,7.74v13.67Z"/>
      <path class="cls-1" d="m284.17,6.83l-1.71,14.07s-6.83-2.51-13.47-2.51-7.03,1.51-7.64,3.32,1.91,3.52,7.74,5.23,17.69,4.92,17.69,17.89-10.15,19.67-23.41,19.67-18.79-4.2-18.79-4.2l1.71-14.57s3.82,3.32,11.96,4.02,10.55-.6,10.95-2.31.1-3.62-8.04-5.73-16.58-6.93-16.58-19.7,10.45-17.91,21.81-17.91,17.79,2.74,17.79,2.74Z"/>
      <path class="cls-1" d="m306.43,28.23c-7.78,0-14.12-6.33-14.12-14.12s6.33-14.12,14.12-14.12,14.12,6.33,14.12,14.12-6.33,14.12-14.12,14.12Zm0-27.23c-7.23,0-13.12,5.88-13.12,13.12s5.88,13.12,13.12,13.12,13.12-5.88,13.12-13.12-5.88-13.12-13.12-13.12Z"/>
      <path class="cls-1" d="m300.31,22.03V6.59h6.33c1.27,0,2.24.14,2.9.42s1.19.77,1.59,1.47c.4.7.59,1.48.59,2.33,0,1.1-.33,2.02-.98,2.77-.66.75-1.67,1.23-3.04,1.43.5.26.88.52,1.14.77.55.55,1.07,1.23,1.57,2.05l2.48,4.2h-2.38l-1.89-3.21c-.55-.93-1.01-1.64-1.36-2.13s-.68-.84-.96-1.03c-.28-.2-.57-.33-.86-.41-.21-.05-.57-.07-1.05-.07h-2.19v6.86h-1.89Zm1.89-8.63h4.06c.86,0,1.54-.1,2.03-.29.49-.19.86-.5,1.11-.93.25-.42.38-.89.38-1.39,0-.73-.25-1.33-.73-1.8-.49-.47-1.26-.71-2.32-.71h-4.52v5.11Z"/>
    </g>
  </g>
</svg>